<?xml version="1.0" encoding="UTF-8" standalone="no"?>
<!DOCTYPE svg PUBLIC "-//W3C//DTD SVG 1.1//EN"
 "http://www.w3.org/Graphics/SVG/1.1/DTD/svg11.dtd">
<!-- Generated by graphviz version 5.0.1 (20220820.1526)
 -->
<!-- Title: G Pages: 1 -->
<svg width="452pt" height="505pt"
 viewBox="0.00 0.00 451.64 504.75" xmlns="http://www.w3.org/2000/svg" xmlns:xlink="http://www.w3.org/1999/xlink">
<g id="graph0" class="graph" transform="scale(1 1) rotate(0) translate(4 500.75)">
<title>G</title>
<polygon fill="white" stroke="none" points="-4,4 -4,-500.75 447.64,-500.75 447.64,4 -4,4"/>
<!-- new -->
<g id="node1" class="node">
<title>new</title>
<ellipse fill="none" stroke="black" cx="281.13" cy="-420.15" rx="36" ry="36"/>
<text text-anchor="middle" x="281.13" y="-416.45" font-family="Arial" font-size="14.00">new</text>
</g>
<!-- first_draft -->
<g id="node3" class="node">
<title>first_draft</title>
<ellipse fill="none" stroke="black" cx="281.13" cy="-297.15" rx="38.54" ry="36"/>
<text text-anchor="middle" x="281.13" y="-293.45" font-family="Arial" font-size="14.00">first_draft</text>
</g>
<!-- new&#45;&gt;first_draft -->
<g id="edge5" class="edge">
<title>new&#45;&gt;first_draft</title>
<path fill="none" stroke="black" d="M281.13,-383.82C281.13,-371.27 281.13,-356.97 281.13,-343.68"/>
<polygon fill="black" stroke="black" points="284.63,-343.31 281.13,-333.31 277.63,-343.31 284.63,-343.31"/>
<text text-anchor="middle" x="334.13" y="-354.95" font-family="Arial" font-size="14.00">update_metadata</text>
</g>
<!-- starting_state -->
<g id="node2" class="node">
<title>starting_state</title>
<ellipse fill="black" stroke="black" cx="281.13" cy="-494.95" rx="1.8" ry="1.8"/>
</g>
<!-- starting_state&#45;&gt;new -->
<g id="edge1" class="edge">
<title>starting_state&#45;&gt;new</title>
<path fill="none" stroke="black" d="M281.13,-493.13C281.13,-490.12 281.13,-479.2 281.13,-466.74"/>
<polygon fill="black" stroke="black" points="284.63,-466.53 281.13,-456.53 277.63,-466.53 284.63,-466.53"/>
</g>
<!-- first_draft&#45;&gt;first_draft -->
<g id="edge6" class="edge">
<title>first_draft&#45;&gt;first_draft</title>
<path fill="none" stroke="black" d="M317.82,-308.38C328.95,-308.1 337.64,-304.35 337.64,-297.15 337.64,-292.3 333.72,-289.03 327.77,-287.31"/>
<polygon fill="black" stroke="black" points="328.21,-283.84 317.82,-285.91 327.24,-290.77 328.21,-283.84"/>
<text text-anchor="middle" x="390.64" y="-293.45" font-family="Arial" font-size="14.00">update_metadata</text>
</g>
<!-- depositing -->
<g id="node5" class="node">
<title>depositing</title>
<ellipse fill="none" stroke="black" cx="165.13" cy="-174.15" rx="41.31" ry="36"/>
<text text-anchor="middle" x="165.13" y="-170.45" font-family="Arial" font-size="14.00">depositing</text>
</g>
<!-- first_draft&#45;&gt;depositing -->
<g id="edge2" class="edge">
<title>first_draft&#45;&gt;depositing</title>
<path fill="none" stroke="black" d="M255.96,-269.89C239.01,-252.22 216.5,-228.74 198.13,-209.57"/>
<polygon fill="black" stroke="black" points="200.5,-206.99 191.05,-202.19 195.44,-211.83 200.5,-206.99"/>
<text text-anchor="middle" x="271.63" y="-231.95" font-family="Arial" font-size="14.00">begin_deposit</text>
</g>
<!-- version_draft -->
<g id="node4" class="node">
<title>version_draft</title>
<ellipse fill="none" stroke="black" cx="50.13" cy="-297.15" rx="50.25" ry="36"/>
<text text-anchor="middle" x="50.13" y="-293.45" font-family="Arial" font-size="14.00">version_draft</text>
</g>
<!-- version_draft&#45;&gt;version_draft -->
<g id="edge7" class="edge">
<title>version_draft&#45;&gt;version_draft</title>
<path fill="none" stroke="black" d="M97.88,-308.22C109.56,-307.4 118.25,-303.71 118.25,-297.15 118.25,-292.64 114.14,-289.48 107.78,-287.68"/>
<polygon fill="black" stroke="black" points="108.31,-284.22 97.88,-286.07 107.19,-291.13 108.31,-284.22"/>
<text text-anchor="middle" x="171.25" y="-293.45" font-family="Arial" font-size="14.00">update_metadata</text>
</g>
<!-- version_draft&#45;&gt;depositing -->
<g id="edge3" class="edge">
<title>version_draft&#45;&gt;depositing</title>
<path fill="none" stroke="black" d="M77.96,-266.86C94.25,-249.72 114.91,-227.98 132.03,-209.98"/>
<polygon fill="black" stroke="black" points="134.77,-212.17 139.12,-202.51 129.69,-207.35 134.77,-212.17"/>
<text text-anchor="middle" x="156.63" y="-231.95" font-family="Arial" font-size="14.00">begin_deposit</text>
</g>
<!-- deposited -->
<g id="node6" class="node">
<title>deposited</title>
<ellipse fill="none" stroke="black" cx="165.13" cy="-43.57" rx="39.64" ry="39.64"/>
<ellipse fill="none" stroke="black" cx="165.13" cy="-43.57" rx="43.65" ry="43.65"/>
<text text-anchor="middle" x="165.13" y="-39.87" font-family="Arial" font-size="14.00">deposited</text>
</g>
<!-- depositing&#45;&gt;deposited -->
<g id="edge4" class="edge">
<title>depositing&#45;&gt;deposited</title>
<path fill="none" stroke="black" d="M165.13,-138.01C165.13,-125.57 165.13,-111.28 165.13,-97.68"/>
<polygon fill="black" stroke="black" points="168.63,-97.45 165.13,-87.45 161.63,-97.45 168.63,-97.45"/>
<text text-anchor="middle" x="218.63" y="-108.95" font-family="Arial" font-size="14.00">deposit_complete</text>
</g>
</g>
</svg>
