<?xml version="1.0" encoding="UTF-8" standalone="no"?>
<!DOCTYPE svg PUBLIC "-//W3C//DTD SVG 1.1//EN"
 "http://www.w3.org/Graphics/SVG/1.1/DTD/svg11.dtd">
<!-- Generated by graphviz version 2.43.0 (0)
 -->
<!-- Title: G Pages: 1 -->
<svg width="274pt" height="490pt"
 viewBox="0.00 0.00 274.13 489.60" xmlns="http://www.w3.org/2000/svg" xmlns:xlink="http://www.w3.org/1999/xlink">
<g id="graph0" class="graph" transform="scale(1 1) rotate(0) translate(4 485.6)">
<title>G</title>
<polygon fill="white" stroke="transparent" points="-4,4 -4,-485.6 270.13,-485.6 270.13,4 -4,4"/>
<!-- first_draft -->
<g id="node1" class="node">
<title>first_draft</title>
<ellipse fill="none" stroke="black" cx="67.13" cy="-405" rx="38.54" ry="36"/>
<text text-anchor="middle" x="67.13" y="-401.3" font-family="Arial" font-size="14.00">first_draft</text>
</g>
<!-- first_draft&#45;&gt;first_draft -->
<g id="edge7" class="edge">
<title>first_draft&#45;&gt;first_draft</title>
<path fill="none" stroke="black" d="M104.36,-415.09C115.23,-414.75 123.64,-411.38 123.64,-405 123.64,-400.81 120.02,-397.92 114.46,-396.33"/>
<polygon fill="black" stroke="black" points="114.75,-392.84 104.36,-394.91 113.77,-399.77 114.75,-392.84"/>
<text text-anchor="middle" x="176.64" y="-401.3" font-family="Arial" font-size="14.00">update_metadata</text>
</g>
<!-- depositing -->
<g id="node5" class="node">
<title>depositing</title>
<ellipse fill="none" stroke="black" cx="67.13" cy="-282" rx="41.31" ry="36"/>
<text text-anchor="middle" x="67.13" y="-278.3" font-family="Arial" font-size="14.00">depositing</text>
</g>
<!-- first_draft&#45;&gt;depositing -->
<g id="edge2" class="edge">
<title>first_draft&#45;&gt;depositing</title>
<path fill="none" stroke="black" d="M67.13,-368.68C67.13,-356.13 67.13,-341.82 67.13,-328.54"/>
<polygon fill="black" stroke="black" points="70.63,-328.16 67.13,-318.16 63.63,-328.16 70.63,-328.16"/>
<text text-anchor="middle" x="109.63" y="-339.8" font-family="Arial" font-size="14.00">begin_deposit</text>
</g>
<!-- starting_state -->
<g id="node2" class="node">
<title>starting_state</title>
<ellipse fill="black" stroke="black" cx="67.13" cy="-479.8" rx="1.8" ry="1.8"/>
</g>
<!-- starting_state&#45;&gt;first_draft -->
<g id="edge1" class="edge">
<title>starting_state&#45;&gt;first_draft</title>
<path fill="none" stroke="black" d="M67.13,-477.98C67.13,-474.97 67.13,-464.05 67.13,-451.59"/>
<polygon fill="black" stroke="black" points="70.63,-451.39 67.13,-441.39 63.63,-451.39 70.63,-451.39"/>
</g>
<!-- version_draft -->
<g id="node3" class="node">
<title>version_draft</title>
<ellipse fill="none" stroke="black" cx="50.13" cy="-36" rx="50.25" ry="36"/>
<text text-anchor="middle" x="50.13" y="-32.3" font-family="Arial" font-size="14.00">version_draft</text>
</g>
<!-- version_draft&#45;&gt;version_draft -->
<g id="edge8" class="edge">
<title>version_draft&#45;&gt;version_draft</title>
<path fill="none" stroke="black" d="M97.88,-47.07C109.56,-46.25 118.25,-42.56 118.25,-36 118.25,-31.49 114.14,-28.33 107.78,-26.54"/>
<polygon fill="black" stroke="black" points="108.31,-23.08 97.88,-24.93 107.19,-29.99 108.31,-23.08"/>
<text text-anchor="middle" x="171.25" y="-32.3" font-family="Arial" font-size="14.00">update_metadata</text>
</g>
<!-- version_draft&#45;&gt;depositing -->
<g id="edge3" class="edge">
<title>version_draft&#45;&gt;depositing</title>
<path fill="none" stroke="black" d="M44.98,-72C41.11,-104.12 37.37,-152.97 43.13,-195 45.04,-208.95 48.61,-223.83 52.43,-237.22"/>
<polygon fill="black" stroke="black" points="49.17,-238.54 55.38,-247.13 55.88,-236.55 49.17,-238.54"/>
<text text-anchor="middle" x="85.63" y="-155.3" font-family="Arial" font-size="14.00">begin_deposit</text>
</g>
<!-- deposited -->
<g id="node4" class="node">
<title>deposited</title>
<ellipse fill="none" stroke="black" cx="177.13" cy="-159" rx="39.65" ry="36"/>
<text text-anchor="middle" x="177.13" y="-155.3" font-family="Arial" font-size="14.00">deposited</text>
</g>
<!-- deposited&#45;&gt;version_draft -->
<g id="edge6" class="edge">
<title>deposited&#45;&gt;version_draft</title>
<path fill="none" stroke="black" d="M150.19,-132.34C131.86,-114.87 107.35,-91.52 87.18,-72.3"/>
<polygon fill="black" stroke="black" points="89.34,-69.52 79.68,-65.16 84.51,-74.59 89.34,-69.52"/>
<text text-anchor="middle" x="175.13" y="-93.8" font-family="Arial" font-size="14.00">update_metadata</text>
</g>
<!-- deposited&#45;&gt;depositing -->
<g id="edge4" class="edge">
<title>deposited&#45;&gt;depositing</title>
<path fill="none" stroke="black" d="M182.94,-194.61C183.15,-206.02 181.39,-218.27 175.13,-228 161.93,-248.5 138.31,-261.32 116.52,-269.21"/>
<polygon fill="black" stroke="black" points="115.38,-265.9 107.01,-272.4 117.6,-272.54 115.38,-265.9"/>
<text text-anchor="middle" x="223.63" y="-216.8" font-family="Arial" font-size="14.00">begin_deposit</text>
</g>
<!-- depositing&#45;&gt;deposited -->
<g id="edge5" class="edge">
<title>depositing&#45;&gt;deposited</title>
<path fill="none" stroke="black" d="M57.35,-246.95C55.99,-235.2 57.02,-222.59 64.13,-213 80.44,-190.97 98.27,-206.57 123.13,-195 128.06,-192.7 133.08,-190.01 137.96,-187.16"/>
<polygon fill="black" stroke="black" points="139.86,-190.1 146.57,-181.9 136.21,-184.13 139.86,-190.1"/>
<text text-anchor="middle" x="117.63" y="-216.8" font-family="Arial" font-size="14.00">deposit_complete</text>
</g>
</g>
</svg>
