<svg height="674pt" viewBox="0 0 568.13 674.18" width="568pt" xmlns="http://www.w3.org/2000/svg"><g transform="translate(4 670.18)"><path d="m-4 4v-674.18h568.13v674.18z" fill="#fff"/><ellipse cx="376.13" cy="-589.58" fill="none" rx="36" ry="36" stroke="#000"/><text font-family="Arial" font-size="14" text-anchor="middle" x="376.13" y="-585.88">new</text><ellipse cx="281.13" cy="-466.58" fill="none" rx="38.54" ry="36" stroke="#000"/><text font-family="Arial" font-size="14" text-anchor="middle" x="281.13" y="-462.88">first_draft</text><path d="m354.09-560.52c-12.88 16.41-29.31 37.34-43.32 55.18" fill="none" stroke="#000"/><path d="m313.56-503.23-8.93 5.71 3.43-10.03z" stroke="#000"/><text font-family="Arial" font-size="14" text-anchor="middle" x="387.13" y="-524.38">update_metadata</text><ellipse cx="264.13" cy="-66.79" fill="none" rx="62.59" ry="62.59" stroke="#000"/><ellipse cx="264.13" cy="-66.79" fill="none" rx="66.58" ry="66.58" stroke="#000"/><text font-family="Arial" font-size="14" text-anchor="middle" x="264.13" y="-63.09">decommissioned</text><path d="m406.5-570.05c12.95 9.1 27.39 21 37.63 34.47 19.77 26.03 28 35.32 28 68v248c0 68-73.44 108.78-133.05 130.68" fill="none" stroke="#000"/><path d="m340.54-85.7-10.6.04 8.26-6.64z" stroke="#000"/><text font-family="Arial" font-size="14" text-anchor="middle" x="516.13" y="-339.88">decommission</text><g stroke="#000"><ellipse cx="376.13" cy="-664.38" rx="1.8" ry="1.8"/><path d="m376.13-662.12v24.95" fill="none"/><path d="m379.63-637.37-3.5 10-3.5-10z"/><path d="m318.09-478.09c11 .35 19.55 4.18 19.55 11.51 0 4.58-3.34 7.8-8.53 9.65" fill="none"/><path d="m330.03-453.54-10.45-1.79 9.28-5.11z"/></g><text font-family="Arial" font-size="14" text-anchor="middle" x="390.64" y="-462.88">update_metadata</text><ellipse cx="172.13" cy="-343.58" fill="none" rx="41.31" ry="36" stroke="#000"/><text font-family="Arial" font-size="14" text-anchor="middle" x="172.13" y="-339.88">depositing</text><path d="m259.09-436.85c-9.79 12.35-21.63 26.79-32.96 39.27-5.78 6.36-12.13 12.93-18.38 19.18" fill="none" stroke="#000"/><path d="m210.59-376.28-9.58 4.54 4.66-9.52z" stroke="#000"/><text font-family="Arial" font-size="14" text-anchor="middle" x="280.63" y="-401.38">begin_deposit</text><path d="m308.06-440.47c7.3 8.2 14.44 17.81 19.07 27.89 24.3 52.98 49.11 207.49 26 261-6.1 14.11-15.87 26.94-26.74 38.09" fill="none" stroke="#000"/><path d="m329.02-111.17-9.63 4.44 4.76-9.47z" stroke="#000"/><text font-family="Arial" font-size="14" text-anchor="middle" x="402.13" y="-278.38">decommission</text><ellipse cx="50.13" cy="-466.58" fill="none" rx="50.25" ry="36" stroke="#000"/><text font-family="Arial" font-size="14" text-anchor="middle" x="50.13" y="-462.88">version_draft</text><path d="m98.19-477.91c11.52.89 20.06 4.66 20.06 11.33 0 4.27-3.5 7.36-9.05 9.25" fill="none" stroke="#000"/><path d="m110.15-453.94-10.47-1.59 9.18-5.29z" stroke="#000"/><text font-family="Arial" font-size="14" text-anchor="middle" x="171.25" y="-462.88">update_metadata</text><path d="m79.04-436.9c17.35 17.21 39.55 39.22 57.92 57.44" fill="none" stroke="#000"/><path d="m139.38-381.98 4.64 9.52-9.57-4.55z" stroke="#000"/><text font-family="Arial" font-size="14" text-anchor="middle" x="161.63" y="-401.38">begin_deposit</text><path d="m46.41-430.32c-2.75 39.47-3.02 104.59 17.72 155.74 27.41 67.62 88.66 125.4 136.21 162.56" fill="none" stroke="#000"/><path d="m202.35-114.89 5.8 8.87-10.06-3.32z" stroke="#000"/><text font-family="Arial" font-size="14" text-anchor="middle" x="108.13" y="-278.38">decommission</text><ellipse cx="299.13" cy="-220.58" fill="none" rx="39.65" ry="36" stroke="#000"/><text font-family="Arial" font-size="14" text-anchor="middle" x="299.13" y="-216.88">deposited</text><path d="m197.94-314.92c11.99 12.55 26.56 27.45 40.19 40.34 7.55 7.15 15.85 14.61 23.83 21.59" fill="none" stroke="#000"/><path d="m264.04-255.82 5.25 9.2-9.84-3.91z" stroke="#000"/><text font-family="Arial" font-size="14" text-anchor="middle" x="291.63" y="-278.38">deposit_complete</text><path d="m162.07-308.41c-7.86 32.84-15.15 83.3.06 123.83 9.18 24.48 26.08 47.2 43.52 65.96" fill="none" stroke="#000"/><path d="m207.94-121.28 4.41 9.64-9.45-4.79z" stroke="#000"/><text font-family="Arial" font-size="14" text-anchor="middle" x="206.13" y="-216.88">decommission</text><path d="m276.56-190.75c-4.67 7.47-8.93 15.79-11.43 24.17-2.07 6.93-3.49 14.26-4.41 21.66" fill="none" stroke="#000"/><path d="m264.23-144.8-4.41 9.63-2.56-10.27z" stroke="#000"/><text font-family="Arial" font-size="14" text-anchor="middle" x="309.13" y="-155.38">decommission</text><path d="m329.18-83.08c11.62 2.12 19.74 7.55 19.74 16.29 0 5.74-3.5 10.05-9.19 12.93" fill="none" stroke="#000"/><path d="m341.22-50.66-10.6-.3 8.47-6.37z" stroke="#000"/><text font-family="Arial" font-size="14" text-anchor="middle" x="392.92" y="-63.09">decommission</text></g></svg>