<?xml version="1.0" encoding="UTF-8" standalone="no"?>
<!DOCTYPE svg PUBLIC "-//W3C//DTD SVG 1.1//EN"
 "http://www.w3.org/Graphics/SVG/1.1/DTD/svg11.dtd">
<!-- Generated by graphviz version 2.46.1 (20210213.1702)
 -->
<!-- Title: G Pages: 1 -->
<svg width="236pt" height="613pt"
 viewBox="0.00 0.00 236.13 612.60" xmlns="http://www.w3.org/2000/svg" xmlns:xlink="http://www.w3.org/1999/xlink">
<g id="graph0" class="graph" transform="scale(1 1) rotate(0) translate(4 608.6)">
<title>G</title>
<polygon fill="white" stroke="transparent" points="-4,4 -4,-608.6 232.13,-608.6 232.13,4 -4,4"/>
<!-- new -->
<g id="node1" class="node">
<title>new</title>
<ellipse fill="none" stroke="black" cx="50.13" cy="-528" rx="36" ry="36"/>
<text text-anchor="middle" x="50.13" y="-524.3" font-family="Arial" font-size="14.00">new</text>
</g>
<!-- first_draft -->
<g id="node3" class="node">
<title>first_draft</title>
<ellipse fill="none" stroke="black" cx="50.13" cy="-405" rx="38.54" ry="36"/>
<text text-anchor="middle" x="50.13" y="-401.3" font-family="Arial" font-size="14.00">first_draft</text>
</g>
<!-- new&#45;&gt;first_draft -->
<g id="edge5" class="edge">
<title>new&#45;&gt;first_draft</title>
<path fill="none" stroke="black" d="M50.13,-491.68C50.13,-479.13 50.13,-464.82 50.13,-451.54"/>
<polygon fill="black" stroke="black" points="53.63,-451.16 50.13,-441.16 46.63,-451.16 53.63,-451.16"/>
<text text-anchor="middle" x="103.13" y="-462.8" font-family="Arial" font-size="14.00">update_metadata</text>
</g>
<!-- starting_state -->
<g id="node2" class="node">
<title>starting_state</title>
<ellipse fill="black" stroke="black" cx="50.13" cy="-602.8" rx="1.8" ry="1.8"/>
</g>
<!-- starting_state&#45;&gt;new -->
<g id="edge1" class="edge">
<title>starting_state&#45;&gt;new</title>
<path fill="none" stroke="black" d="M50.13,-600.98C50.13,-597.97 50.13,-587.05 50.13,-574.59"/>
<polygon fill="black" stroke="black" points="53.63,-574.39 50.13,-564.39 46.63,-574.39 53.63,-574.39"/>
</g>
<!-- first_draft&#45;&gt;first_draft -->
<g id="edge7" class="edge">
<title>first_draft&#45;&gt;first_draft</title>
<path fill="none" stroke="black" d="M86.82,-416.23C97.95,-415.95 106.64,-412.21 106.64,-405 106.64,-400.16 102.72,-396.88 96.77,-395.16"/>
<polygon fill="black" stroke="black" points="97.21,-391.69 86.82,-393.77 96.24,-398.62 97.21,-391.69"/>
<text text-anchor="middle" x="159.64" y="-401.3" font-family="Arial" font-size="14.00">update_metadata</text>
</g>
<!-- depositing -->
<g id="node5" class="node">
<title>depositing</title>
<ellipse fill="none" stroke="black" cx="50.13" cy="-282" rx="41.31" ry="36"/>
<text text-anchor="middle" x="50.13" y="-278.3" font-family="Arial" font-size="14.00">depositing</text>
</g>
<!-- first_draft&#45;&gt;depositing -->
<g id="edge2" class="edge">
<title>first_draft&#45;&gt;depositing</title>
<path fill="none" stroke="black" d="M50.13,-368.68C50.13,-356.13 50.13,-341.82 50.13,-328.54"/>
<polygon fill="black" stroke="black" points="53.63,-328.16 50.13,-318.16 46.63,-328.16 53.63,-328.16"/>
<text text-anchor="middle" x="92.63" y="-339.8" font-family="Arial" font-size="14.00">begin_deposit</text>
</g>
<!-- version_draft -->
<g id="node4" class="node">
<title>version_draft</title>
<ellipse fill="none" stroke="black" cx="50.13" cy="-36" rx="50.25" ry="36"/>
<text text-anchor="middle" x="50.13" y="-32.3" font-family="Arial" font-size="14.00">version_draft</text>
</g>
<!-- version_draft&#45;&gt;version_draft -->
<g id="edge8" class="edge">
<title>version_draft&#45;&gt;version_draft</title>
<path fill="none" stroke="black" d="M97.88,-47.07C109.56,-46.25 118.25,-42.56 118.25,-36 118.25,-31.49 114.14,-28.33 107.78,-26.54"/>
<polygon fill="black" stroke="black" points="108.31,-23.08 97.88,-24.93 107.19,-29.99 108.31,-23.08"/>
<text text-anchor="middle" x="171.25" y="-32.3" font-family="Arial" font-size="14.00">update_metadata</text>
</g>
<!-- version_draft&#45;&gt;depositing -->
<g id="edge3" class="edge">
<title>version_draft&#45;&gt;depositing</title>
<path fill="none" stroke="black" d="M46.62,-72.11C45.23,-87.68 43.81,-106.24 43.13,-123 41.83,-154.97 41.83,-163.03 43.13,-195 43.66,-208.23 44.66,-222.57 45.74,-235.68"/>
<polygon fill="black" stroke="black" points="42.28,-236.23 46.62,-245.89 49.25,-235.63 42.28,-236.23"/>
<text text-anchor="middle" x="85.63" y="-155.3" font-family="Arial" font-size="14.00">begin_deposit</text>
</g>
<!-- deposited -->
<g id="node6" class="node">
<title>deposited</title>
<ellipse fill="none" stroke="black" cx="177.13" cy="-159" rx="39.65" ry="36"/>
<text text-anchor="middle" x="177.13" y="-155.3" font-family="Arial" font-size="14.00">deposited</text>
</g>
<!-- depositing&#45;&gt;deposited -->
<g id="edge4" class="edge">
<title>depositing&#45;&gt;deposited</title>
<path fill="none" stroke="black" d="M77.68,-254.74C96.79,-236.55 122.36,-212.18 142.79,-192.72"/>
<polygon fill="black" stroke="black" points="145.23,-195.22 150.06,-185.79 140.4,-190.15 145.23,-195.22"/>
<text text-anchor="middle" x="174.63" y="-216.8" font-family="Arial" font-size="14.00">deposit_complete</text>
</g>
<!-- deposited&#45;&gt;version_draft -->
<g id="edge6" class="edge">
<title>deposited&#45;&gt;version_draft</title>
<path fill="none" stroke="black" d="M150.19,-132.34C131.86,-114.87 107.35,-91.52 87.18,-72.3"/>
<polygon fill="black" stroke="black" points="89.34,-69.52 79.68,-65.16 84.51,-74.59 89.34,-69.52"/>
<text text-anchor="middle" x="174.13" y="-93.8" font-family="Arial" font-size="14.00">update_metadata</text>
</g>
</g>
</svg>
