<?xml version="1.0" encoding="UTF-8" standalone="no"?>
<!DOCTYPE svg PUBLIC "-//W3C//DTD SVG 1.1//EN"
 "http://www.w3.org/Graphics/SVG/1.1/DTD/svg11.dtd">
<!-- Generated by graphviz version 2.44.1 (20200629.0846)
 -->
<!-- Title: G Pages: 1 -->
<svg width="467pt" height="736pt"
 viewBox="0.00 0.00 466.52 735.60" xmlns="http://www.w3.org/2000/svg" xmlns:xlink="http://www.w3.org/1999/xlink">
<g id="graph0" class="graph" transform="scale(1 1) rotate(0) translate(4 731.6)">
<title>G</title>
<polygon fill="white" stroke="transparent" points="-4,4 -4,-731.6 462.52,-731.6 462.52,4 -4,4"/>
<!-- new -->
<g id="node1" class="node">
<title>new</title>
<ellipse fill="none" stroke="black" cx="38.52" cy="-651" rx="36" ry="36"/>
<text text-anchor="middle" x="38.52" y="-647.3" font-family="Arial" font-size="14.00">new</text>
</g>
<!-- first_draft -->
<g id="node3" class="node">
<title>first_draft</title>
<ellipse fill="none" stroke="black" cx="38.52" cy="-528" rx="38.54" ry="36"/>
<text text-anchor="middle" x="38.52" y="-524.3" font-family="Arial" font-size="14.00">first_draft</text>
</g>
<!-- new&#45;&gt;first_draft -->
<g id="edge11" class="edge">
<title>new&#45;&gt;first_draft</title>
<path fill="none" stroke="black" d="M38.52,-614.68C38.52,-602.13 38.52,-587.82 38.52,-574.54"/>
<polygon fill="black" stroke="black" points="42.02,-574.16 38.52,-564.16 35.02,-574.16 42.02,-574.16"/>
<text text-anchor="middle" x="91.52" y="-585.8" font-family="Arial" font-size="14.00">update_metadata</text>
</g>
<!-- starting_state -->
<g id="node2" class="node">
<title>starting_state</title>
<ellipse fill="black" stroke="black" cx="38.52" cy="-725.8" rx="1.8" ry="1.8"/>
</g>
<!-- starting_state&#45;&gt;new -->
<g id="edge1" class="edge">
<title>starting_state&#45;&gt;new</title>
<path fill="none" stroke="black" d="M38.52,-723.98C38.52,-720.97 38.52,-710.05 38.52,-697.59"/>
<polygon fill="black" stroke="black" points="42.02,-697.39 38.52,-687.39 35.02,-697.39 42.02,-697.39"/>
</g>
<!-- first_draft&#45;&gt;first_draft -->
<g id="edge12" class="edge">
<title>first_draft&#45;&gt;first_draft</title>
<path fill="none" stroke="black" d="M75.21,-539.23C86.34,-538.95 95.04,-535.21 95.04,-528 95.04,-523.16 91.11,-519.88 85.16,-518.16"/>
<polygon fill="black" stroke="black" points="85.6,-514.69 75.21,-516.77 84.63,-521.62 85.6,-514.69"/>
<text text-anchor="middle" x="148.04" y="-524.3" font-family="Arial" font-size="14.00">update_metadata</text>
</g>
<!-- pending_approval -->
<g id="node5" class="node">
<title>pending_approval</title>
<ellipse fill="none" stroke="black" cx="190.52" cy="-405" rx="65.36" ry="36"/>
<text text-anchor="middle" x="190.52" y="-401.3" font-family="Arial" font-size="14.00">pending_approval</text>
</g>
<!-- first_draft&#45;&gt;pending_approval -->
<g id="edge6" class="edge">
<title>first_draft&#45;&gt;pending_approval</title>
<path fill="none" stroke="black" d="M67.47,-503.96C89.7,-486.26 120.78,-461.52 146.14,-441.33"/>
<polygon fill="black" stroke="black" points="148.51,-443.91 154.16,-434.95 144.15,-438.44 148.51,-443.91"/>
<text text-anchor="middle" x="180.02" y="-462.8" font-family="Arial" font-size="14.00">submit_for_review</text>
</g>
<!-- depositing -->
<g id="node6" class="node">
<title>depositing</title>
<ellipse fill="none" stroke="black" cx="55.52" cy="-282" rx="41.31" ry="36"/>
<text text-anchor="middle" x="55.52" y="-278.3" font-family="Arial" font-size="14.00">depositing</text>
</g>
<!-- first_draft&#45;&gt;depositing -->
<g id="edge2" class="edge">
<title>first_draft&#45;&gt;depositing</title>
<path fill="none" stroke="black" d="M33.41,-492.32C29.53,-460.19 25.74,-411.17 31.52,-369 33.43,-355.05 37.01,-340.17 40.82,-326.78"/>
<polygon fill="black" stroke="black" points="44.28,-327.45 43.77,-316.87 37.57,-325.46 44.28,-327.45"/>
<text text-anchor="middle" x="74.02" y="-401.3" font-family="Arial" font-size="14.00">begin_deposit</text>
</g>
<!-- version_draft -->
<g id="node4" class="node">
<title>version_draft</title>
<ellipse fill="none" stroke="black" cx="198.52" cy="-36" rx="50.25" ry="36"/>
<text text-anchor="middle" x="198.52" y="-32.3" font-family="Arial" font-size="14.00">version_draft</text>
</g>
<!-- version_draft&#45;&gt;version_draft -->
<g id="edge13" class="edge">
<title>version_draft&#45;&gt;version_draft</title>
<path fill="none" stroke="black" d="M246.27,-47.07C257.95,-46.25 266.64,-42.56 266.64,-36 266.64,-31.49 262.54,-28.33 256.17,-26.54"/>
<polygon fill="black" stroke="black" points="256.7,-23.08 246.27,-24.93 255.58,-29.99 256.7,-23.08"/>
<text text-anchor="middle" x="319.64" y="-32.3" font-family="Arial" font-size="14.00">update_metadata</text>
</g>
<!-- version_draft&#45;&gt;pending_approval -->
<g id="edge7" class="edge">
<title>version_draft&#45;&gt;pending_approval</title>
<path fill="none" stroke="black" d="M245.74,-48.45C268.26,-56.37 293.51,-69.33 308.52,-90 368.29,-172.36 349.8,-218.28 329.52,-318 326.34,-333.61 326.78,-339.74 315.52,-351 299.98,-366.54 279.18,-377.79 259.01,-385.81"/>
<polygon fill="black" stroke="black" points="257.63,-382.59 249.5,-389.39 260.09,-389.15 257.63,-382.59"/>
<text text-anchor="middle" x="403.02" y="-216.8" font-family="Arial" font-size="14.00">submit_for_review</text>
</g>
<!-- version_draft&#45;&gt;depositing -->
<g id="edge3" class="edge">
<title>version_draft&#45;&gt;depositing</title>
<path fill="none" stroke="black" d="M153.92,-52.95C123.1,-66.51 84.24,-89.22 64.52,-123 44.55,-157.19 44.21,-202.95 47.73,-236.42"/>
<polygon fill="black" stroke="black" points="44.26,-236.88 48.93,-246.39 51.21,-236.04 44.26,-236.88"/>
<text text-anchor="middle" x="107.02" y="-155.3" font-family="Arial" font-size="14.00">begin_deposit</text>
</g>
<!-- pending_approval&#45;&gt;depositing -->
<g id="edge4" class="edge">
<title>pending_approval&#45;&gt;depositing</title>
<path fill="none" stroke="black" d="M140.44,-381.63C130.85,-377.4 120.89,-373.04 111.52,-369 92.49,-360.8 81.57,-367.09 68.52,-351 63.24,-344.5 59.87,-336.5 57.77,-328.3"/>
<polygon fill="black" stroke="black" points="61.16,-327.41 55.78,-318.28 54.29,-328.77 61.16,-327.41"/>
<text text-anchor="middle" x="111.02" y="-339.8" font-family="Arial" font-size="14.00">begin_deposit</text>
</g>
<!-- rejected -->
<g id="node8" class="node">
<title>rejected</title>
<ellipse fill="none" stroke="black" cx="160.52" cy="-282" rx="36" ry="36"/>
<text text-anchor="middle" x="160.52" y="-278.3" font-family="Arial" font-size="14.00">rejected</text>
</g>
<!-- pending_approval&#45;&gt;rejected -->
<g id="edge9" class="edge">
<title>pending_approval&#45;&gt;rejected</title>
<path fill="none" stroke="black" d="M168.41,-370.9C165.15,-364.54 162.3,-357.75 160.52,-351 158.59,-343.7 157.63,-335.8 157.27,-328.06"/>
<polygon fill="black" stroke="black" points="160.77,-327.98 157.11,-318.03 153.77,-328.09 160.77,-327.98"/>
<text text-anchor="middle" x="177.52" y="-339.8" font-family="Arial" font-size="14.00">reject</text>
</g>
<!-- deposited -->
<g id="node7" class="node">
<title>deposited</title>
<ellipse fill="none" stroke="black" cx="198.52" cy="-159" rx="39.65" ry="36"/>
<text text-anchor="middle" x="198.52" y="-155.3" font-family="Arial" font-size="14.00">deposited</text>
</g>
<!-- depositing&#45;&gt;deposited -->
<g id="edge5" class="edge">
<title>depositing&#45;&gt;deposited</title>
<path fill="none" stroke="black" d="M84.8,-256.22C107.12,-237.34 137.99,-211.22 161.93,-190.96"/>
<polygon fill="black" stroke="black" points="164.39,-193.46 169.76,-184.33 159.87,-188.12 164.39,-193.46"/>
<text text-anchor="middle" x="189.02" y="-216.8" font-family="Arial" font-size="14.00">deposit_complete</text>
</g>
<!-- deposited&#45;&gt;version_draft -->
<g id="edge10" class="edge">
<title>deposited&#45;&gt;version_draft</title>
<path fill="none" stroke="black" d="M198.52,-122.68C198.52,-110.13 198.52,-95.82 198.52,-82.54"/>
<polygon fill="black" stroke="black" points="202.02,-82.16 198.52,-72.16 195.02,-82.16 202.02,-82.16"/>
<text text-anchor="middle" x="251.52" y="-93.8" font-family="Arial" font-size="14.00">update_metadata</text>
</g>
<!-- rejected&#45;&gt;pending_approval -->
<g id="edge8" class="edge">
<title>rejected&#45;&gt;pending_approval</title>
<path fill="none" stroke="black" d="M184.2,-309.26C190.03,-317.29 195.47,-326.51 198.52,-336 200.87,-343.32 201.52,-351.28 201.19,-359.09"/>
<polygon fill="black" stroke="black" points="197.69,-358.92 200.23,-369.2 204.66,-359.58 197.69,-358.92"/>
<text text-anchor="middle" x="256.02" y="-339.8" font-family="Arial" font-size="14.00">submit_for_review</text>
</g>
<!-- rejected&#45;&gt;rejected -->
<g id="edge14" class="edge">
<title>rejected&#45;&gt;rejected</title>
<path fill="none" stroke="black" d="M194.79,-293.25C205.8,-293.13 214.52,-289.38 214.52,-282 214.52,-277.16 210.76,-273.87 205.07,-272.16"/>
<polygon fill="black" stroke="black" points="205.18,-268.64 194.79,-270.75 204.23,-275.58 205.18,-268.64"/>
<text text-anchor="middle" x="267.52" y="-278.3" font-family="Arial" font-size="14.00">update_metadata</text>
</g>
</g>
</svg>
