<?xml version="1.0" encoding="UTF-8" standalone="no"?>
<!DOCTYPE svg PUBLIC "-//W3C//DTD SVG 1.1//EN"
 "http://www.w3.org/Graphics/SVG/1.1/DTD/svg11.dtd">
<!-- Generated by graphviz version 2.46.1 (20210213.1702)
 -->
<!-- Title: G Pages: 1 -->
<svg width="688pt" height="874pt"
 viewBox="0.00 0.00 688.23 873.75" xmlns="http://www.w3.org/2000/svg" xmlns:xlink="http://www.w3.org/1999/xlink">
<g id="graph0" class="graph" transform="scale(1 1) rotate(0) translate(4 869.75)">
<title>G</title>
<polygon fill="white" stroke="transparent" points="-4,4 -4,-869.75 684.23,-869.75 684.23,4 -4,4"/>
<!-- new -->
<g id="node1" class="node">
<title>new</title>
<ellipse fill="none" stroke="black" cx="342.1" cy="-789.15" rx="36" ry="36"/>
<text text-anchor="middle" x="342.1" y="-785.45" font-family="Arial" font-size="14.00">new</text>
</g>
<!-- first_draft -->
<g id="node3" class="node">
<title>first_draft</title>
<ellipse fill="none" stroke="black" cx="275.1" cy="-420.15" rx="38.54" ry="36"/>
<text text-anchor="middle" x="275.1" y="-416.45" font-family="Arial" font-size="14.00">first_draft</text>
</g>
<!-- new&#45;&gt;first_draft -->
<g id="edge14" class="edge">
<title>new&#45;&gt;first_draft</title>
<path fill="none" stroke="black" d="M335.8,-753.62C323.6,-686.82 296.79,-539.94 283.26,-465.81"/>
<polygon fill="black" stroke="black" points="286.68,-465.06 281.44,-455.85 279.79,-466.31 286.68,-465.06"/>
<text text-anchor="middle" x="363.1" y="-600.95" font-family="Arial" font-size="14.00">update_metadata</text>
</g>
<!-- reserving_purl -->
<g id="node8" class="node">
<title>reserving_purl</title>
<ellipse fill="none" stroke="black" cx="444.1" cy="-666.15" rx="53.64" ry="36"/>
<text text-anchor="middle" x="444.1" y="-662.45" font-family="Arial" font-size="14.00">reserving_purl</text>
</g>
<!-- new&#45;&gt;reserving_purl -->
<g id="edge13" class="edge">
<title>new&#45;&gt;reserving_purl</title>
<path fill="none" stroke="black" d="M364.99,-760.99C378.64,-744.8 396.2,-723.97 411.31,-706.05"/>
<polygon fill="black" stroke="black" points="414.28,-707.95 418.05,-698.05 408.93,-703.44 414.28,-707.95"/>
<text text-anchor="middle" x="437.1" y="-723.95" font-family="Arial" font-size="14.00">reserve_purl</text>
</g>
<!-- starting_state -->
<g id="node2" class="node">
<title>starting_state</title>
<ellipse fill="black" stroke="black" cx="342.1" cy="-863.95" rx="1.8" ry="1.8"/>
</g>
<!-- starting_state&#45;&gt;new -->
<g id="edge1" class="edge">
<title>starting_state&#45;&gt;new</title>
<path fill="none" stroke="black" d="M342.1,-862.13C342.1,-859.12 342.1,-848.2 342.1,-835.74"/>
<polygon fill="black" stroke="black" points="345.6,-835.53 342.1,-825.53 338.6,-835.53 345.6,-835.53"/>
</g>
<!-- first_draft&#45;&gt;first_draft -->
<g id="edge15" class="edge">
<title>first_draft&#45;&gt;first_draft</title>
<path fill="none" stroke="black" d="M311.8,-431.38C322.92,-431.1 331.62,-427.35 331.62,-420.15 331.62,-415.3 327.7,-412.03 321.74,-410.31"/>
<polygon fill="black" stroke="black" points="322.19,-406.84 311.8,-408.91 321.21,-413.77 322.19,-406.84"/>
<text text-anchor="middle" x="384.62" y="-416.45" font-family="Arial" font-size="14.00">update_metadata</text>
</g>
<!-- pending_approval -->
<g id="node5" class="node">
<title>pending_approval</title>
<ellipse fill="none" stroke="black" cx="69.1" cy="-297.15" rx="65.36" ry="36"/>
<text text-anchor="middle" x="69.1" y="-293.45" font-family="Arial" font-size="14.00">pending_approval</text>
</g>
<!-- first_draft&#45;&gt;pending_approval -->
<g id="edge8" class="edge">
<title>first_draft&#45;&gt;pending_approval</title>
<path fill="none" stroke="black" d="M242.92,-400.24C210.65,-381.29 160.41,-351.78 122.23,-329.35"/>
<polygon fill="black" stroke="black" points="123.69,-326.15 113.3,-324.1 120.15,-332.19 123.69,-326.15"/>
<text text-anchor="middle" x="240.6" y="-354.95" font-family="Arial" font-size="14.00">submit_for_review</text>
</g>
<!-- depositing -->
<g id="node6" class="node">
<title>depositing</title>
<ellipse fill="none" stroke="black" cx="423.1" cy="-174.15" rx="41.31" ry="36"/>
<text text-anchor="middle" x="423.1" y="-170.45" font-family="Arial" font-size="14.00">depositing</text>
</g>
<!-- first_draft&#45;&gt;depositing -->
<g id="edge2" class="edge">
<title>first_draft&#45;&gt;depositing</title>
<path fill="none" stroke="black" d="M309.58,-403.96C337.53,-389.78 375.53,-365.88 396.1,-333.15 417.28,-299.45 423.22,-254.09 424.34,-220.61"/>
<polygon fill="black" stroke="black" points="427.85,-220.26 424.55,-210.19 420.85,-220.12 427.85,-220.26"/>
<text text-anchor="middle" x="462.6" y="-293.45" font-family="Arial" font-size="14.00">begin_deposit</text>
</g>
<!-- version_draft -->
<g id="node4" class="node">
<title>version_draft</title>
<ellipse fill="none" stroke="black" cx="506.1" cy="-420.15" rx="50.25" ry="36"/>
<text text-anchor="middle" x="506.1" y="-416.45" font-family="Arial" font-size="14.00">version_draft</text>
</g>
<!-- version_draft&#45;&gt;version_draft -->
<g id="edge16" class="edge">
<title>version_draft&#45;&gt;version_draft</title>
<path fill="none" stroke="black" d="M553.86,-431.22C565.54,-430.4 574.23,-426.71 574.23,-420.15 574.23,-415.64 570.12,-412.48 563.76,-410.68"/>
<polygon fill="black" stroke="black" points="564.29,-407.22 553.86,-409.07 563.16,-414.13 564.29,-407.22"/>
<text text-anchor="middle" x="627.23" y="-416.45" font-family="Arial" font-size="14.00">update_metadata</text>
</g>
<!-- version_draft&#45;&gt;pending_approval -->
<g id="edge9" class="edge">
<title>version_draft&#45;&gt;pending_approval</title>
<path fill="none" stroke="black" d="M469.55,-395.1C462.31,-391.02 454.63,-387.15 447.1,-384.15 345.4,-343.58 220.29,-319.84 142.61,-307.92"/>
<polygon fill="black" stroke="black" points="142.85,-304.42 132.44,-306.39 141.81,-311.34 142.85,-304.42"/>
<text text-anchor="middle" x="442.6" y="-354.95" font-family="Arial" font-size="14.00">submit_for_review</text>
</g>
<!-- version_draft&#45;&gt;depositing -->
<g id="edge3" class="edge">
<title>version_draft&#45;&gt;depositing</title>
<path fill="none" stroke="black" d="M515.58,-384.65C522.83,-351.58 528.99,-300.95 512.1,-261.15 502.21,-237.82 482.54,-217.73 464.2,-202.85"/>
<polygon fill="black" stroke="black" points="465.95,-199.78 455.91,-196.39 461.65,-205.3 465.95,-199.78"/>
<text text-anchor="middle" x="564.6" y="-293.45" font-family="Arial" font-size="14.00">begin_deposit</text>
</g>
<!-- pending_approval&#45;&gt;pending_approval -->
<g id="edge11" class="edge">
<title>pending_approval&#45;&gt;pending_approval</title>
<path fill="none" stroke="black" d="M134.17,-302.38C145.03,-301.64 152.53,-299.9 152.53,-297.15 152.53,-295.38 149.45,-294.03 144.38,-293.1"/>
<polygon fill="black" stroke="black" points="144.5,-289.59 134.17,-291.92 143.7,-296.54 144.5,-289.59"/>
<text text-anchor="middle" x="208.03" y="-293.45" font-family="Arial" font-size="14.00">submit_for_review</text>
</g>
<!-- pending_approval&#45;&gt;pending_approval -->
<g id="edge17" class="edge">
<title>pending_approval&#45;&gt;pending_approval</title>
<path fill="none" stroke="black" d="M132.18,-307.01C190.18,-310.57 263.53,-307.28 263.53,-297.15 263.53,-287.58 198.25,-284.12 142.17,-286.75"/>
<polygon fill="black" stroke="black" points="141.98,-283.25 132.18,-287.29 142.36,-290.24 141.98,-283.25"/>
<text text-anchor="middle" x="316.53" y="-293.45" font-family="Arial" font-size="14.00">update_metadata</text>
</g>
<!-- pending_approval&#45;&gt;depositing -->
<g id="edge4" class="edge">
<title>pending_approval&#45;&gt;depositing</title>
<path fill="none" stroke="black" d="M124.03,-277.37C192.93,-253.82 309.95,-213.82 375.31,-191.48"/>
<polygon fill="black" stroke="black" points="376.63,-194.73 384.96,-188.18 374.37,-188.11 376.63,-194.73"/>
<text text-anchor="middle" x="310.6" y="-231.95" font-family="Arial" font-size="14.00">begin_deposit</text>
</g>
<!-- rejected -->
<g id="node10" class="node">
<title>rejected</title>
<ellipse fill="none" stroke="black" cx="69.1" cy="-174.15" rx="36" ry="36"/>
<text text-anchor="middle" x="69.1" y="-170.45" font-family="Arial" font-size="14.00">rejected</text>
</g>
<!-- pending_approval&#45;&gt;rejected -->
<g id="edge12" class="edge">
<title>pending_approval&#45;&gt;rejected</title>
<path fill="none" stroke="black" d="M101.24,-265.43C106.51,-258.64 111.19,-251.08 114.1,-243.15 119.06,-229.65 113,-216.16 103.89,-204.8"/>
<polygon fill="black" stroke="black" points="106.46,-202.42 97.19,-197.29 101.24,-207.08 106.46,-202.42"/>
<text text-anchor="middle" x="133.1" y="-231.95" font-family="Arial" font-size="14.00">reject</text>
</g>
<!-- depositing&#45;&gt;depositing -->
<g id="edge7" class="edge">
<title>depositing&#45;&gt;depositing</title>
<path fill="none" stroke="black" d="M462.36,-185.35C473.59,-184.91 482.26,-181.18 482.26,-174.15 482.26,-169.42 478.35,-166.19 472.37,-164.44"/>
<polygon fill="black" stroke="black" points="472.76,-160.96 462.36,-162.94 471.73,-167.88 472.76,-160.96"/>
<text text-anchor="middle" x="522.26" y="-170.45" font-family="Arial" font-size="14.00">pid_assigned</text>
</g>
<!-- deposited -->
<g id="node7" class="node">
<title>deposited</title>
<ellipse fill="none" stroke="black" cx="423.1" cy="-43.57" rx="39.64" ry="39.64"/>
<ellipse fill="none" stroke="black" cx="423.1" cy="-43.57" rx="43.65" ry="43.65"/>
<text text-anchor="middle" x="423.1" y="-39.87" font-family="Arial" font-size="14.00">deposited</text>
</g>
<!-- depositing&#45;&gt;deposited -->
<g id="edge5" class="edge">
<title>depositing&#45;&gt;deposited</title>
<path fill="none" stroke="black" d="M423.1,-138.01C423.1,-125.57 423.1,-111.28 423.1,-97.68"/>
<polygon fill="black" stroke="black" points="426.6,-97.45 423.1,-87.45 419.6,-97.45 426.6,-97.45"/>
<text text-anchor="middle" x="476.6" y="-108.95" font-family="Arial" font-size="14.00">deposit_complete</text>
</g>
<!-- purl_reserved -->
<g id="node9" class="node">
<title>purl_reserved</title>
<ellipse fill="none" stroke="black" cx="486.1" cy="-543.15" rx="52.47" ry="36"/>
<text text-anchor="middle" x="486.1" y="-539.45" font-family="Arial" font-size="14.00">purl_reserved</text>
</g>
<!-- reserving_purl&#45;&gt;purl_reserved -->
<g id="edge6" class="edge">
<title>reserving_purl&#45;&gt;purl_reserved</title>
<path fill="none" stroke="black" d="M456.03,-630.8C460.64,-617.51 465.97,-602.15 470.86,-588.08"/>
<polygon fill="black" stroke="black" points="474.18,-589.18 474.15,-578.58 467.56,-586.88 474.18,-589.18"/>
<text text-anchor="middle" x="507.1" y="-600.95" font-family="Arial" font-size="14.00">pid_assigned</text>
</g>
<!-- purl_reserved&#45;&gt;version_draft -->
<g id="edge19" class="edge">
<title>purl_reserved&#45;&gt;version_draft</title>
<path fill="none" stroke="black" d="M491.89,-507.15C494,-494.36 496.42,-479.7 498.66,-466.16"/>
<polygon fill="black" stroke="black" points="502.15,-466.5 500.33,-456.07 495.25,-465.36 502.15,-466.5"/>
<text text-anchor="middle" x="550.1" y="-477.95" font-family="Arial" font-size="14.00">update_metadata</text>
</g>
<!-- rejected&#45;&gt;pending_approval -->
<g id="edge10" class="edge">
<title>rejected&#45;&gt;pending_approval</title>
<path fill="none" stroke="black" d="M36.82,-190.28C15.33,-202.68 -7.21,-221.64 3.1,-243.15 6.63,-250.51 11.74,-257.17 17.57,-263.09"/>
<polygon fill="black" stroke="black" points="15.55,-265.99 25.28,-270.19 20.29,-260.84 15.55,-265.99"/>
<text text-anchor="middle" x="58.6" y="-231.95" font-family="Arial" font-size="14.00">submit_for_review</text>
</g>
<!-- rejected&#45;&gt;rejected -->
<g id="edge18" class="edge">
<title>rejected&#45;&gt;rejected</title>
<path fill="none" stroke="black" d="M103.38,-185.39C114.38,-185.28 123.1,-181.53 123.1,-174.15 123.1,-169.3 119.35,-166.02 113.66,-164.31"/>
<polygon fill="black" stroke="black" points="113.76,-160.79 103.38,-162.9 112.81,-167.72 113.76,-160.79"/>
<text text-anchor="middle" x="176.1" y="-170.45" font-family="Arial" font-size="14.00">update_metadata</text>
</g>
</g>
</svg>
