<?xml version="1.0" encoding="UTF-8" standalone="no"?>
<!DOCTYPE svg PUBLIC "-//W3C//DTD SVG 1.1//EN"
 "http://www.w3.org/Graphics/SVG/1.1/DTD/svg11.dtd">
<!-- Generated by graphviz version 2.43.0 (0)
 -->
<!-- Title: G Pages: 1 -->
<svg width="387pt" height="613pt"
 viewBox="0.00 0.00 387.43 612.60" xmlns="http://www.w3.org/2000/svg" xmlns:xlink="http://www.w3.org/1999/xlink">
<g id="graph0" class="graph" transform="scale(1 1) rotate(0) translate(4 608.6)">
<title>G</title>
<polygon fill="white" stroke="transparent" points="-4,4 -4,-608.6 383.43,-608.6 383.43,4 -4,4"/>
<!-- first_draft -->
<g id="node1" class="node">
<title>first_draft</title>
<ellipse fill="none" stroke="black" cx="149.43" cy="-528" rx="38.54" ry="36"/>
<text text-anchor="middle" x="149.43" y="-524.3" font-family="Arial" font-size="14.00">first_draft</text>
</g>
<!-- first_draft&#45;&gt;first_draft -->
<g id="edge11" class="edge">
<title>first_draft&#45;&gt;first_draft</title>
<path fill="none" stroke="black" d="M186.66,-538.09C197.53,-537.75 205.95,-534.38 205.95,-528 205.95,-523.81 202.32,-520.92 196.76,-519.33"/>
<polygon fill="black" stroke="black" points="197.05,-515.84 186.66,-517.91 196.07,-522.77 197.05,-515.84"/>
<text text-anchor="middle" x="258.95" y="-524.3" font-family="Arial" font-size="14.00">update_metadata</text>
</g>
<!-- pending_approval -->
<g id="node4" class="node">
<title>pending_approval</title>
<ellipse fill="none" stroke="black" cx="65.43" cy="-405" rx="65.36" ry="36"/>
<text text-anchor="middle" x="65.43" y="-401.3" font-family="Arial" font-size="14.00">pending_approval</text>
</g>
<!-- first_draft&#45;&gt;pending_approval -->
<g id="edge6" class="edge">
<title>first_draft&#45;&gt;pending_approval</title>
<path fill="none" stroke="black" d="M110.98,-523.19C79.7,-517.84 37.42,-504.96 16.43,-474 9.27,-463.44 12.76,-452.14 20.44,-441.85"/>
<polygon fill="black" stroke="black" points="23.16,-444.06 27.03,-434.2 17.85,-439.49 23.16,-444.06"/>
<text text-anchor="middle" x="71.93" y="-462.8" font-family="Arial" font-size="14.00">submit_for_review</text>
</g>
<!-- depositing -->
<g id="node5" class="node">
<title>depositing</title>
<ellipse fill="none" stroke="black" cx="194.43" cy="-282" rx="41.31" ry="36"/>
<text text-anchor="middle" x="194.43" y="-278.3" font-family="Arial" font-size="14.00">depositing</text>
</g>
<!-- first_draft&#45;&gt;depositing -->
<g id="edge2" class="edge">
<title>first_draft&#45;&gt;depositing</title>
<path fill="none" stroke="black" d="M165.82,-495.09C168.77,-488.28 171.51,-481.01 173.43,-474 186.78,-425.27 191.68,-367.34 193.46,-328.16"/>
<polygon fill="black" stroke="black" points="196.96,-328.25 193.87,-318.12 189.96,-327.97 196.96,-328.25"/>
<text text-anchor="middle" x="233.93" y="-401.3" font-family="Arial" font-size="14.00">begin_deposit</text>
</g>
<!-- starting_state -->
<g id="node2" class="node">
<title>starting_state</title>
<ellipse fill="black" stroke="black" cx="149.43" cy="-602.8" rx="1.8" ry="1.8"/>
</g>
<!-- starting_state&#45;&gt;first_draft -->
<g id="edge1" class="edge">
<title>starting_state&#45;&gt;first_draft</title>
<path fill="none" stroke="black" d="M149.43,-600.98C149.43,-597.97 149.43,-587.05 149.43,-574.59"/>
<polygon fill="black" stroke="black" points="152.93,-574.39 149.43,-564.39 145.93,-574.39 152.93,-574.39"/>
</g>
<!-- version_draft -->
<g id="node3" class="node">
<title>version_draft</title>
<ellipse fill="none" stroke="black" cx="128.43" cy="-36" rx="50.25" ry="36"/>
<text text-anchor="middle" x="128.43" y="-32.3" font-family="Arial" font-size="14.00">version_draft</text>
</g>
<!-- version_draft&#45;&gt;version_draft -->
<g id="edge12" class="edge">
<title>version_draft&#45;&gt;version_draft</title>
<path fill="none" stroke="black" d="M176.18,-47.07C187.86,-46.25 196.55,-42.56 196.55,-36 196.55,-31.49 192.45,-28.33 186.08,-26.54"/>
<polygon fill="black" stroke="black" points="186.61,-23.08 176.18,-24.93 185.49,-29.99 186.61,-23.08"/>
<text text-anchor="middle" x="249.55" y="-32.3" font-family="Arial" font-size="14.00">update_metadata</text>
</g>
<!-- version_draft&#45;&gt;pending_approval -->
<g id="edge7" class="edge">
<title>version_draft&#45;&gt;pending_approval</title>
<path fill="none" stroke="black" d="M111.93,-70.04C95.64,-104.67 71.83,-161.14 62.43,-213 53.49,-262.28 56.14,-319.88 59.82,-358.84"/>
<polygon fill="black" stroke="black" points="56.34,-359.21 60.82,-368.81 63.3,-358.51 56.34,-359.21"/>
<text text-anchor="middle" x="117.93" y="-216.8" font-family="Arial" font-size="14.00">submit_for_review</text>
</g>
<!-- version_draft&#45;&gt;depositing -->
<g id="edge3" class="edge">
<title>version_draft&#45;&gt;depositing</title>
<path fill="none" stroke="black" d="M138.28,-71.33C148.37,-106.74 164.39,-163.63 177.43,-213 179.46,-220.69 181.56,-228.89 183.57,-236.84"/>
<polygon fill="black" stroke="black" points="180.22,-237.86 186.04,-246.71 187.01,-236.16 180.22,-237.86"/>
<text text-anchor="middle" x="215.93" y="-155.3" font-family="Arial" font-size="14.00">begin_deposit</text>
</g>
<!-- pending_approval&#45;&gt;first_draft -->
<g id="edge8" class="edge">
<title>pending_approval&#45;&gt;first_draft</title>
<path fill="none" stroke="black" d="M104.78,-433.91C113.15,-441.3 121.3,-449.81 127.43,-459 132.23,-466.2 136.05,-474.52 139.06,-482.82"/>
<polygon fill="black" stroke="black" points="135.79,-484.07 142.24,-492.48 142.44,-481.88 135.79,-484.07"/>
<text text-anchor="middle" x="152.43" y="-462.8" font-family="Arial" font-size="14.00">reject</text>
</g>
<!-- pending_approval&#45;&gt;version_draft -->
<g id="edge9" class="edge">
<title>pending_approval&#45;&gt;version_draft</title>
<path fill="none" stroke="black" d="M48.63,-369.88C31.96,-331.69 10.5,-267.97 22.43,-213 33.87,-160.3 68.77,-108.46 95.42,-74.85"/>
<polygon fill="black" stroke="black" points="98.44,-76.68 102.01,-66.7 93,-72.28 98.44,-76.68"/>
<text text-anchor="middle" x="39.43" y="-216.8" font-family="Arial" font-size="14.00">reject</text>
</g>
<!-- pending_approval&#45;&gt;depositing -->
<g id="edge4" class="edge">
<title>pending_approval&#45;&gt;depositing</title>
<path fill="none" stroke="black" d="M77.92,-369.3C83.27,-357.76 90.4,-345.45 99.43,-336 112.97,-321.83 131.15,-310.44 147.97,-301.9"/>
<polygon fill="black" stroke="black" points="149.67,-304.97 157.14,-297.45 146.62,-298.67 149.67,-304.97"/>
<text text-anchor="middle" x="141.93" y="-339.8" font-family="Arial" font-size="14.00">begin_deposit</text>
</g>
<!-- deposited -->
<g id="node6" class="node">
<title>deposited</title>
<ellipse fill="none" stroke="black" cx="334.43" cy="-159" rx="39.65" ry="36"/>
<text text-anchor="middle" x="334.43" y="-155.3" font-family="Arial" font-size="14.00">deposited</text>
</g>
<!-- depositing&#45;&gt;deposited -->
<g id="edge5" class="edge">
<title>depositing&#45;&gt;deposited</title>
<path fill="none" stroke="black" d="M223.44,-255.93C245.17,-237.15 275.04,-211.33 298.32,-191.21"/>
<polygon fill="black" stroke="black" points="300.66,-193.81 305.94,-184.63 296.08,-188.52 300.66,-193.81"/>
<text text-anchor="middle" x="325.93" y="-216.8" font-family="Arial" font-size="14.00">deposit_complete</text>
</g>
<!-- deposited&#45;&gt;version_draft -->
<g id="edge10" class="edge">
<title>deposited&#45;&gt;version_draft</title>
<path fill="none" stroke="black" d="M302.93,-137.14C295.6,-132.4 287.78,-127.46 280.43,-123 246.24,-102.27 206.94,-80.08 176.87,-63.43"/>
<polygon fill="black" stroke="black" points="178.3,-60.22 167.85,-58.45 174.92,-66.35 178.3,-60.22"/>
<text text-anchor="middle" x="300.43" y="-93.8" font-family="Arial" font-size="14.00">update_metadata</text>
</g>
</g>
</svg>
