<?xml version="1.0" encoding="UTF-8" standalone="no"?>
<!DOCTYPE svg PUBLIC "-//W3C//DTD SVG 1.1//EN"
 "http://www.w3.org/Graphics/SVG/1.1/DTD/svg11.dtd">
<!-- Generated by graphviz version 2.46.1 (20210213.1702)
 -->
<!-- Title: G Pages: 1 -->
<svg width="930pt" height="997pt"
 viewBox="0.00 0.00 929.92 996.75" xmlns="http://www.w3.org/2000/svg" xmlns:xlink="http://www.w3.org/1999/xlink">
<g id="graph0" class="graph" transform="scale(1 1) rotate(0) translate(4 992.75)">
<title>G</title>
<polygon fill="white" stroke="transparent" points="-4,4 -4,-992.75 925.92,-992.75 925.92,4 -4,4"/>
<!-- new -->
<g id="node1" class="node">
<title>new</title>
<ellipse fill="none" stroke="black" cx="262.1" cy="-912.15" rx="36" ry="36"/>
<text text-anchor="middle" x="262.1" y="-908.45" font-family="Arial" font-size="14.00">new</text>
</g>
<!-- first_draft -->
<g id="node3" class="node">
<title>first_draft</title>
<ellipse fill="none" stroke="black" cx="246.1" cy="-420.15" rx="38.54" ry="36"/>
<text text-anchor="middle" x="246.1" y="-416.45" font-family="Arial" font-size="14.00">first_draft</text>
</g>
<!-- new&#45;&gt;first_draft -->
<g id="edge19" class="edge">
<title>new&#45;&gt;first_draft</title>
<path fill="none" stroke="black" d="M255.09,-876.62C250.79,-852.5 246.1,-819.49 246.1,-790.15 246.1,-790.15 246.1,-790.15 246.1,-542.15 246.1,-517.1 246.1,-489.13 246.1,-466.4"/>
<polygon fill="black" stroke="black" points="249.6,-466.36 246.1,-456.36 242.6,-466.36 249.6,-466.36"/>
<text text-anchor="middle" x="299.1" y="-662.45" font-family="Arial" font-size="14.00">update_metadata</text>
</g>
<!-- purl_requested -->
<g id="node7" class="node">
<title>purl_requested</title>
<ellipse fill="none" stroke="black" cx="459.1" cy="-789.15" rx="56.42" ry="36"/>
<text text-anchor="middle" x="459.1" y="-785.45" font-family="Arial" font-size="14.00">purl_requested</text>
</g>
<!-- new&#45;&gt;purl_requested -->
<g id="edge15" class="edge">
<title>new&#45;&gt;purl_requested</title>
<path fill="none" stroke="black" d="M292.45,-892.51C323.93,-873.17 373.61,-842.66 410.55,-819.97"/>
<polygon fill="black" stroke="black" points="412.48,-822.89 419.17,-814.67 408.82,-816.92 412.48,-822.89"/>
<text text-anchor="middle" x="410.1" y="-846.95" font-family="Arial" font-size="14.00">reserve_purl</text>
</g>
<!-- starting_state -->
<g id="node2" class="node">
<title>starting_state</title>
<ellipse fill="black" stroke="black" cx="262.1" cy="-986.95" rx="1.8" ry="1.8"/>
</g>
<!-- starting_state&#45;&gt;new -->
<g id="edge1" class="edge">
<title>starting_state&#45;&gt;new</title>
<path fill="none" stroke="black" d="M262.1,-985.13C262.1,-982.12 262.1,-971.2 262.1,-958.74"/>
<polygon fill="black" stroke="black" points="265.6,-958.53 262.1,-948.53 258.6,-958.53 265.6,-958.53"/>
</g>
<!-- first_draft&#45;&gt;first_draft -->
<g id="edge20" class="edge">
<title>first_draft&#45;&gt;first_draft</title>
<path fill="none" stroke="black" d="M282.8,-431.38C293.92,-431.1 302.62,-427.35 302.62,-420.15 302.62,-415.3 298.7,-412.03 292.74,-410.31"/>
<polygon fill="black" stroke="black" points="293.19,-406.84 282.8,-408.91 292.21,-413.77 293.19,-406.84"/>
<text text-anchor="middle" x="355.62" y="-416.45" font-family="Arial" font-size="14.00">update_metadata</text>
</g>
<!-- pending_approval -->
<g id="node5" class="node">
<title>pending_approval</title>
<ellipse fill="none" stroke="black" cx="69.1" cy="-297.15" rx="65.36" ry="36"/>
<text text-anchor="middle" x="69.1" y="-293.45" font-family="Arial" font-size="14.00">pending_approval</text>
</g>
<!-- first_draft&#45;&gt;pending_approval -->
<g id="edge10" class="edge">
<title>first_draft&#45;&gt;pending_approval</title>
<path fill="none" stroke="black" d="M215.27,-398.07C188.47,-379.75 149.18,-352.89 118.08,-331.63"/>
<polygon fill="black" stroke="black" points="119.77,-328.55 109.54,-325.79 115.82,-334.33 119.77,-328.55"/>
<text text-anchor="middle" x="224.6" y="-354.95" font-family="Arial" font-size="14.00">submit_for_review</text>
</g>
<!-- depositing -->
<g id="node6" class="node">
<title>depositing</title>
<ellipse fill="none" stroke="black" cx="423.1" cy="-174.15" rx="41.31" ry="36"/>
<text text-anchor="middle" x="423.1" y="-170.45" font-family="Arial" font-size="14.00">depositing</text>
</g>
<!-- first_draft&#45;&gt;depositing -->
<g id="edge2" class="edge">
<title>first_draft&#45;&gt;depositing</title>
<path fill="none" stroke="black" d="M282.62,-408.32C317.53,-395.97 368.77,-372.28 396.1,-333.15 419.07,-300.27 424.73,-254.35 425.3,-220.48"/>
<polygon fill="black" stroke="black" points="428.8,-220.39 425.33,-210.39 421.8,-220.38 428.8,-220.39"/>
<text text-anchor="middle" x="463.6" y="-293.45" font-family="Arial" font-size="14.00">begin_deposit</text>
</g>
<!-- version_draft -->
<g id="node4" class="node">
<title>version_draft</title>
<ellipse fill="none" stroke="black" cx="561.1" cy="-420.15" rx="50.25" ry="36"/>
<text text-anchor="middle" x="561.1" y="-416.45" font-family="Arial" font-size="14.00">version_draft</text>
</g>
<!-- version_draft&#45;&gt;version_draft -->
<g id="edge21" class="edge">
<title>version_draft&#45;&gt;version_draft</title>
<path fill="none" stroke="black" d="M608.86,-431.22C620.54,-430.4 629.23,-426.71 629.23,-420.15 629.23,-415.64 625.12,-412.48 618.76,-410.68"/>
<polygon fill="black" stroke="black" points="619.29,-407.22 608.86,-409.07 618.16,-414.13 619.29,-407.22"/>
<text text-anchor="middle" x="682.23" y="-416.45" font-family="Arial" font-size="14.00">update_metadata</text>
</g>
<!-- version_draft&#45;&gt;pending_approval -->
<g id="edge11" class="edge">
<title>version_draft&#45;&gt;pending_approval</title>
<path fill="none" stroke="black" d="M513.93,-407.54C426.64,-386.08 239.61,-340.08 138.08,-315.11"/>
<polygon fill="black" stroke="black" points="138.78,-311.68 128.23,-312.69 137.11,-318.48 138.78,-311.68"/>
<text text-anchor="middle" x="399.6" y="-354.95" font-family="Arial" font-size="14.00">submit_for_review</text>
</g>
<!-- version_draft&#45;&gt;depositing -->
<g id="edge3" class="edge">
<title>version_draft&#45;&gt;depositing</title>
<path fill="none" stroke="black" d="M555.45,-384.08C548.89,-350.6 535.81,-299.67 512.1,-261.15 499.02,-239.88 479.47,-220.2 462.03,-205.05"/>
<polygon fill="black" stroke="black" points="464.09,-202.21 454.2,-198.42 459.57,-207.55 464.09,-202.21"/>
<text text-anchor="middle" x="584.6" y="-293.45" font-family="Arial" font-size="14.00">begin_deposit</text>
</g>
<!-- pending_approval&#45;&gt;pending_approval -->
<g id="edge13" class="edge">
<title>pending_approval&#45;&gt;pending_approval</title>
<path fill="none" stroke="black" d="M134.17,-302.38C145.03,-301.64 152.53,-299.9 152.53,-297.15 152.53,-295.38 149.45,-294.03 144.38,-293.1"/>
<polygon fill="black" stroke="black" points="144.5,-289.59 134.17,-291.92 143.7,-296.54 144.5,-289.59"/>
<text text-anchor="middle" x="208.03" y="-293.45" font-family="Arial" font-size="14.00">submit_for_review</text>
</g>
<!-- pending_approval&#45;&gt;pending_approval -->
<g id="edge22" class="edge">
<title>pending_approval&#45;&gt;pending_approval</title>
<path fill="none" stroke="black" d="M132.18,-307.01C190.18,-310.57 263.53,-307.28 263.53,-297.15 263.53,-287.58 198.25,-284.12 142.17,-286.75"/>
<polygon fill="black" stroke="black" points="141.98,-283.25 132.18,-287.29 142.36,-290.24 141.98,-283.25"/>
<text text-anchor="middle" x="316.53" y="-293.45" font-family="Arial" font-size="14.00">update_metadata</text>
</g>
<!-- pending_approval&#45;&gt;depositing -->
<g id="edge4" class="edge">
<title>pending_approval&#45;&gt;depositing</title>
<path fill="none" stroke="black" d="M124.03,-277.37C192.93,-253.82 309.95,-213.82 375.31,-191.48"/>
<polygon fill="black" stroke="black" points="376.63,-194.73 384.96,-188.18 374.37,-188.11 376.63,-194.73"/>
<text text-anchor="middle" x="310.6" y="-231.95" font-family="Arial" font-size="14.00">begin_deposit</text>
</g>
<!-- rejected -->
<g id="node13" class="node">
<title>rejected</title>
<ellipse fill="none" stroke="black" cx="69.1" cy="-174.15" rx="36" ry="36"/>
<text text-anchor="middle" x="69.1" y="-170.45" font-family="Arial" font-size="14.00">rejected</text>
</g>
<!-- pending_approval&#45;&gt;rejected -->
<g id="edge14" class="edge">
<title>pending_approval&#45;&gt;rejected</title>
<path fill="none" stroke="black" d="M101.24,-265.43C106.51,-258.64 111.19,-251.08 114.1,-243.15 119.06,-229.65 113,-216.16 103.89,-204.8"/>
<polygon fill="black" stroke="black" points="106.46,-202.42 97.19,-197.29 101.24,-207.08 106.46,-202.42"/>
<text text-anchor="middle" x="133.1" y="-231.95" font-family="Arial" font-size="14.00">reject</text>
</g>
<!-- deposited -->
<g id="node11" class="node">
<title>deposited</title>
<ellipse fill="none" stroke="black" cx="423.1" cy="-43.57" rx="39.64" ry="39.64"/>
<ellipse fill="none" stroke="black" cx="423.1" cy="-43.57" rx="43.65" ry="43.65"/>
<text text-anchor="middle" x="423.1" y="-39.87" font-family="Arial" font-size="14.00">deposited</text>
</g>
<!-- depositing&#45;&gt;deposited -->
<g id="edge7" class="edge">
<title>depositing&#45;&gt;deposited</title>
<path fill="none" stroke="black" d="M423.1,-138.01C423.1,-125.57 423.1,-111.28 423.1,-97.68"/>
<polygon fill="black" stroke="black" points="426.6,-97.45 423.1,-87.45 419.6,-97.45 426.6,-97.45"/>
<text text-anchor="middle" x="476.6" y="-108.95" font-family="Arial" font-size="14.00">deposit_complete</text>
</g>
<!-- purl_requested&#45;&gt;purl_requested -->
<g id="edge24" class="edge">
<title>purl_requested&#45;&gt;purl_requested</title>
<path fill="none" stroke="black" d="M512.98,-800.09C524.89,-799.07 533.56,-795.42 533.56,-789.15 533.56,-784.84 529.46,-781.76 523.03,-779.93"/>
<polygon fill="black" stroke="black" points="523.43,-776.45 512.98,-778.2 522.24,-783.35 523.43,-776.45"/>
<text text-anchor="middle" x="586.56" y="-785.45" font-family="Arial" font-size="14.00">update_metadata</text>
</g>
<!-- reserving_purl -->
<g id="node8" class="node">
<title>reserving_purl</title>
<ellipse fill="none" stroke="black" cx="744.1" cy="-666.15" rx="53.64" ry="36"/>
<text text-anchor="middle" x="744.1" y="-662.45" font-family="Arial" font-size="14.00">reserving_purl</text>
</g>
<!-- purl_requested&#45;&gt;reserving_purl -->
<g id="edge5" class="edge">
<title>purl_requested&#45;&gt;reserving_purl</title>
<path fill="none" stroke="black" d="M508.42,-771.25C553.95,-755.13 623.09,-729.34 681.1,-702.15 685.73,-699.98 690.48,-697.61 695.2,-695.16"/>
<polygon fill="black" stroke="black" points="697.01,-698.17 704.2,-690.39 693.73,-691.99 697.01,-698.17"/>
<text text-anchor="middle" x="681.6" y="-723.95" font-family="Arial" font-size="14.00">begin_deposit</text>
</g>
<!-- purl_requested_has_type -->
<g id="node9" class="node">
<title>purl_requested_has_type</title>
<ellipse fill="none" stroke="black" cx="459.1" cy="-666.15" rx="89.34" ry="36"/>
<text text-anchor="middle" x="459.1" y="-662.45" font-family="Arial" font-size="14.00">purl_requested_has_type</text>
</g>
<!-- purl_requested&#45;&gt;purl_requested_has_type -->
<g id="edge16" class="edge">
<title>purl_requested&#45;&gt;purl_requested_has_type</title>
<path fill="none" stroke="black" d="M459.1,-752.82C459.1,-740.27 459.1,-725.97 459.1,-712.68"/>
<polygon fill="black" stroke="black" points="462.6,-712.31 459.1,-702.31 455.6,-712.31 462.6,-712.31"/>
<text text-anchor="middle" x="501.1" y="-723.95" font-family="Arial" font-size="14.00">type_selected</text>
</g>
<!-- reserving_purl&#45;&gt;reserving_purl -->
<g id="edge25" class="edge">
<title>reserving_purl&#45;&gt;reserving_purl</title>
<path fill="none" stroke="black" d="M795.43,-677.15C807.24,-676.2 815.92,-672.53 815.92,-666.15 815.92,-661.76 811.82,-658.65 805.42,-656.83"/>
<polygon fill="black" stroke="black" points="805.87,-653.36 795.43,-655.14 804.7,-660.26 805.87,-653.36"/>
<text text-anchor="middle" x="868.92" y="-662.45" font-family="Arial" font-size="14.00">update_metadata</text>
</g>
<!-- reserving_purl_has_type -->
<g id="node10" class="node">
<title>reserving_purl_has_type</title>
<ellipse fill="none" stroke="black" cx="463.1" cy="-543.15" rx="86.57" ry="36"/>
<text text-anchor="middle" x="463.1" y="-539.45" font-family="Arial" font-size="14.00">reserving_purl_has_type</text>
</g>
<!-- reserving_purl&#45;&gt;reserving_purl_has_type -->
<g id="edge17" class="edge">
<title>reserving_purl&#45;&gt;reserving_purl_has_type</title>
<path fill="none" stroke="black" d="M704.18,-641.94C696.61,-637.83 688.68,-633.73 681.1,-630.15 634.25,-608.01 580.06,-586.61 537.42,-570.7"/>
<polygon fill="black" stroke="black" points="538.55,-567.38 527.96,-567.18 536.11,-573.94 538.55,-567.38"/>
<text text-anchor="middle" x="682.1" y="-600.95" font-family="Arial" font-size="14.00">type_selected</text>
</g>
<!-- purl_reserved -->
<g id="node12" class="node">
<title>purl_reserved</title>
<ellipse fill="none" stroke="black" cx="744.1" cy="-543.15" rx="52.47" ry="36"/>
<text text-anchor="middle" x="744.1" y="-539.45" font-family="Arial" font-size="14.00">purl_reserved</text>
</g>
<!-- reserving_purl&#45;&gt;purl_reserved -->
<g id="edge8" class="edge">
<title>reserving_purl&#45;&gt;purl_reserved</title>
<path fill="none" stroke="black" d="M744.1,-629.82C744.1,-617.27 744.1,-602.97 744.1,-589.68"/>
<polygon fill="black" stroke="black" points="747.6,-589.31 744.1,-579.31 740.6,-589.31 747.6,-589.31"/>
<text text-anchor="middle" x="797.6" y="-600.95" font-family="Arial" font-size="14.00">deposit_complete</text>
</g>
<!-- purl_requested_has_type&#45;&gt;purl_requested_has_type -->
<g id="edge27" class="edge">
<title>purl_requested_has_type&#45;&gt;purl_requested_has_type</title>
<path fill="none" stroke="black" d="M544.87,-676.35C557.64,-674.76 566.28,-671.36 566.28,-666.15 566.28,-662.48 562.01,-659.71 555.03,-657.84"/>
<polygon fill="black" stroke="black" points="555.34,-654.33 544.87,-655.94 554.06,-661.21 555.34,-654.33"/>
<text text-anchor="middle" x="619.28" y="-662.45" font-family="Arial" font-size="14.00">update_metadata</text>
</g>
<!-- purl_requested_has_type&#45;&gt;reserving_purl_has_type -->
<g id="edge6" class="edge">
<title>purl_requested_has_type&#45;&gt;reserving_purl_has_type</title>
<path fill="none" stroke="black" d="M460.26,-630.15C460.68,-617.47 461.16,-602.96 461.6,-589.51"/>
<polygon fill="black" stroke="black" points="465.1,-589.6 461.94,-579.49 458.11,-589.36 465.1,-589.6"/>
<text text-anchor="middle" x="503.6" y="-600.95" font-family="Arial" font-size="14.00">begin_deposit</text>
</g>
<!-- reserving_purl_has_type&#45;&gt;version_draft -->
<g id="edge9" class="edge">
<title>reserving_purl_has_type&#45;&gt;version_draft</title>
<path fill="none" stroke="black" d="M488.09,-508.62C496.52,-497.53 506.09,-485.21 515.1,-474.15 519.19,-469.13 523.57,-463.91 527.94,-458.78"/>
<polygon fill="black" stroke="black" points="530.88,-460.73 534.75,-450.86 525.57,-456.16 530.88,-460.73"/>
<text text-anchor="middle" x="568.6" y="-477.95" font-family="Arial" font-size="14.00">deposit_complete</text>
</g>
<!-- reserving_purl_has_type&#45;&gt;reserving_purl_has_type -->
<g id="edge28" class="edge">
<title>reserving_purl_has_type&#45;&gt;reserving_purl_has_type</title>
<path fill="none" stroke="black" d="M546.34,-553.41C559.02,-551.84 567.64,-548.42 567.64,-543.15 567.64,-539.44 563.38,-536.65 556.44,-534.77"/>
<polygon fill="black" stroke="black" points="556.81,-531.28 546.34,-532.89 555.53,-538.16 556.81,-531.28"/>
<text text-anchor="middle" x="620.64" y="-539.45" font-family="Arial" font-size="14.00">update_metadata</text>
</g>
<!-- purl_reserved&#45;&gt;version_draft -->
<g id="edge18" class="edge">
<title>purl_reserved&#45;&gt;version_draft</title>
<path fill="none" stroke="black" d="M707.07,-517.66C677.86,-498.35 637,-471.33 605.94,-450.79"/>
<polygon fill="black" stroke="black" points="607.73,-447.78 597.46,-445.18 603.87,-453.62 607.73,-447.78"/>
<text text-anchor="middle" x="705.1" y="-477.95" font-family="Arial" font-size="14.00">type_selected</text>
</g>
<!-- purl_reserved&#45;&gt;purl_reserved -->
<g id="edge26" class="edge">
<title>purl_reserved&#45;&gt;purl_reserved</title>
<path fill="none" stroke="black" d="M793.98,-554.17C805.7,-553.27 814.34,-549.59 814.34,-543.15 814.34,-538.72 810.25,-535.59 803.89,-533.78"/>
<polygon fill="black" stroke="black" points="804.42,-530.32 793.98,-532.12 803.26,-537.22 804.42,-530.32"/>
<text text-anchor="middle" x="867.34" y="-539.45" font-family="Arial" font-size="14.00">update_metadata</text>
</g>
<!-- rejected&#45;&gt;pending_approval -->
<g id="edge12" class="edge">
<title>rejected&#45;&gt;pending_approval</title>
<path fill="none" stroke="black" d="M36.82,-190.28C15.33,-202.68 -7.21,-221.64 3.1,-243.15 6.63,-250.51 11.74,-257.17 17.57,-263.09"/>
<polygon fill="black" stroke="black" points="15.55,-265.99 25.28,-270.19 20.29,-260.84 15.55,-265.99"/>
<text text-anchor="middle" x="58.6" y="-231.95" font-family="Arial" font-size="14.00">submit_for_review</text>
</g>
<!-- rejected&#45;&gt;rejected -->
<g id="edge23" class="edge">
<title>rejected&#45;&gt;rejected</title>
<path fill="none" stroke="black" d="M103.38,-185.39C114.38,-185.28 123.1,-181.53 123.1,-174.15 123.1,-169.3 119.35,-166.02 113.66,-164.31"/>
<polygon fill="black" stroke="black" points="113.76,-160.79 103.38,-162.9 112.81,-167.72 113.76,-160.79"/>
<text text-anchor="middle" x="176.1" y="-170.45" font-family="Arial" font-size="14.00">update_metadata</text>
</g>
</g>
</svg>
