<?xml version="1.0" encoding="UTF-8" standalone="no"?>
<!DOCTYPE svg PUBLIC "-//W3C//DTD SVG 1.1//EN"
 "http://www.w3.org/Graphics/SVG/1.1/DTD/svg11.dtd">
<!-- Generated by graphviz version 8.0.5 (20230430.1635)
 -->
<!-- Title: G Pages: 1 -->
<svg width="2889pt" height="1420pt"
 viewBox="0.00 0.00 2888.75 1419.89" xmlns="http://www.w3.org/2000/svg" xmlns:xlink="http://www.w3.org/1999/xlink">
<g id="graph0" class="graph" transform="scale(1 1) rotate(0) translate(4 1415.89)">
<title>G</title>
<polygon fill="white" stroke="none" points="-4,4 -4,-1415.89 2884.75,-1415.89 2884.75,4 -4,4"/>
<!-- new -->
<g id="node1" class="node">
<title>new</title>
<ellipse fill="none" stroke="black" cx="2642" cy="-1335.29" rx="36" ry="36"/>
<text text-anchor="middle" x="2642" y="-1329.87" font-family="Arial" font-size="14.00">new</text>
</g>
<!-- first_draft -->
<g id="node3" class="node">
<title>first_draft</title>
<ellipse fill="none" stroke="black" cx="2128" cy="-964.04" rx="38.27" ry="36"/>
<text text-anchor="middle" x="2128" y="-958.62" font-family="Arial" font-size="14.00">first_draft</text>
</g>
<!-- new&#45;&gt;first_draft -->
<g id="edge14" class="edge">
<title>new&#45;&gt;first_draft</title>
<path fill="none" stroke="black" d="M2612.89,-1313.38C2525.57,-1250.65 2265.79,-1064.03 2166.85,-992.95"/>
<polygon fill="black" stroke="black" points="2169.23,-989.63 2159.07,-986.64 2165.15,-995.32 2169.23,-989.63"/>
<text text-anchor="middle" x="2443.88" y="-1144.24" font-family="Arial" font-size="14.00">update_metadata</text>
</g>
<!-- reserving_purl -->
<g id="node8" class="node">
<title>reserving_purl</title>
<ellipse fill="none" stroke="black" cx="2642" cy="-1211.54" rx="53.76" ry="36"/>
<text text-anchor="middle" x="2642" y="-1206.12" font-family="Arial" font-size="14.00">reserving_purl</text>
</g>
<!-- new&#45;&gt;reserving_purl -->
<g id="edge13" class="edge">
<title>new&#45;&gt;reserving_purl</title>
<path fill="none" stroke="black" d="M2642,-1299.08C2642,-1286.46 2642,-1272.04 2642,-1258.63"/>
<polygon fill="black" stroke="black" points="2645.5,-1258.68 2642,-1248.68 2638.5,-1258.68 2645.5,-1258.68"/>
<text text-anchor="middle" x="2679.5" y="-1267.99" font-family="Arial" font-size="14.00">reserve_purl</text>
</g>
<!-- decommissioned -->
<g id="node19" class="node">
<title>decommissioned</title>
<ellipse fill="none" stroke="black" cx="1717" cy="-66.9" rx="62.9" ry="62.9"/>
<ellipse fill="none" stroke="black" cx="1717" cy="-66.9" rx="66.9" ry="66.9"/>
<text text-anchor="middle" x="1717" y="-61.47" font-family="Arial" font-size="14.00">decommissioned</text>
</g>
<!-- new&#45;&gt;decommissioned -->
<g id="edge48" class="edge">
<title>new&#45;&gt;decommissioned</title>
<path fill="none" stroke="black" d="M2676.26,-1323.69C2720.82,-1307.53 2793,-1272.15 2793,-1212.54 2793,-1212.54 2793,-1212.54 2793,-220.54 2793,-119.63 2041.49,-80.77 1794.58,-70.73"/>
<polygon fill="black" stroke="black" points="1795.03,-67.21 1784.9,-70.3 1794.75,-74.2 1795.03,-67.21"/>
<text text-anchor="middle" x="2836.88" y="-711.12" font-family="Arial" font-size="14.00">decommission</text>
</g>
<!-- starting_state -->
<g id="node2" class="node">
<title>starting_state</title>
<ellipse fill="black" stroke="black" cx="2642" cy="-1410.09" rx="1.8" ry="1.8"/>
</g>
<!-- starting_state&#45;&gt;new -->
<g id="edge1" class="edge">
<title>starting_state&#45;&gt;new</title>
<path fill="none" stroke="black" d="M2642,-1407.83C2642,-1404.36 2642,-1394.16 2642,-1382.52"/>
<polygon fill="black" stroke="black" points="2645.5,-1382.57 2642,-1372.57 2638.5,-1382.57 2645.5,-1382.57"/>
</g>
<!-- first_draft&#45;&gt;first_draft -->
<g id="edge15" class="edge">
<title>first_draft&#45;&gt;first_draft</title>
<path fill="none" stroke="black" d="M2164.53,-975.62C2175.61,-975.33 2184.27,-971.47 2184.27,-964.04 2184.27,-959.28 2180.71,-955.98 2175.25,-954.15"/>
<polygon fill="black" stroke="black" points="2175.95,-950.56 2165.53,-952.46 2174.86,-957.48 2175.95,-950.56"/>
<text text-anchor="middle" x="2237.14" y="-958.62" font-family="Arial" font-size="14.00">update_metadata</text>
</g>
<!-- pending_approval -->
<g id="node5" class="node">
<title>pending_approval</title>
<ellipse fill="none" stroke="black" cx="1006" cy="-840.29" rx="65.28" ry="36"/>
<text text-anchor="middle" x="1006" y="-834.87" font-family="Arial" font-size="14.00">pending_approval</text>
</g>
<!-- first_draft&#45;&gt;pending_approval -->
<g id="edge8" class="edge">
<title>first_draft&#45;&gt;pending_approval</title>
<path fill="none" stroke="black" d="M2089.7,-958.88C1927.86,-941.32 1298.36,-873.01 1080.61,-849.39"/>
<polygon fill="black" stroke="black" points="1081.26,-845.83 1070.94,-848.23 1080.5,-852.79 1081.26,-845.83"/>
<text text-anchor="middle" x="1690.12" y="-896.74" font-family="Arial" font-size="14.00">submit_for_review</text>
</g>
<!-- depositing -->
<g id="node6" class="node">
<title>depositing</title>
<ellipse fill="none" stroke="black" cx="1994" cy="-345.29" rx="41.05" ry="36"/>
<text text-anchor="middle" x="1994" y="-339.87" font-family="Arial" font-size="14.00">depositing</text>
</g>
<!-- first_draft&#45;&gt;depositing -->
<g id="edge2" class="edge">
<title>first_draft&#45;&gt;depositing</title>
<path fill="none" stroke="black" d="M2125.71,-927.82C2125.36,-892.48 2130.38,-838.52 2160,-804.29 2204.78,-752.55 2265.58,-808.47 2305,-752.54 2323.44,-726.39 2321.82,-707.76 2305,-680.54 2295.6,-665.32 2280.23,-676.47 2269,-662.54 2238.55,-624.78 2259.54,-602.02 2242,-556.79 2213.08,-482.23 2217.87,-448.71 2155,-399.29 2123.27,-374.35 2079.32,-360.92 2045.36,-353.83"/>
<polygon fill="black" stroke="black" points="2046.2,-350.23 2035.71,-351.74 2044.85,-357.1 2046.2,-350.23"/>
<text text-anchor="middle" x="2311" y="-649.24" font-family="Arial" font-size="14.00">begin_deposit</text>
</g>
<!-- unzip_first_draft -->
<g id="node11" class="node">
<title>unzip_first_draft</title>
<ellipse fill="none" stroke="black" cx="2228" cy="-840.29" rx="59.32" ry="36"/>
<text text-anchor="middle" x="2228" y="-834.87" font-family="Arial" font-size="14.00">unzip_first_draft</text>
</g>
<!-- first_draft&#45;&gt;unzip_first_draft -->
<g id="edge20" class="edge">
<title>first_draft&#45;&gt;unzip_first_draft</title>
<path fill="none" stroke="black" d="M2140.73,-929.82C2146.18,-917.93 2153.26,-904.87 2161.75,-894.29 2167.32,-887.35 2173.94,-880.74 2180.82,-874.69"/>
<polygon fill="black" stroke="black" points="2182.55,-876.96 2187.95,-867.85 2178.05,-871.6 2182.55,-876.96"/>
<text text-anchor="middle" x="2178.12" y="-896.74" font-family="Arial" font-size="14.00">unzip</text>
</g>
<!-- unzip_pending_approval -->
<g id="node13" class="node">
<title>unzip_pending_approval</title>
<ellipse fill="none" stroke="black" cx="798" cy="-469.04" rx="86.33" ry="36"/>
<text text-anchor="middle" x="798" y="-463.62" font-family="Arial" font-size="14.00">unzip_pending_approval</text>
</g>
<!-- first_draft&#45;&gt;unzip_pending_approval -->
<g id="edge22" class="edge">
<title>first_draft&#45;&gt;unzip_pending_approval</title>
<path fill="none" stroke="black" d="M2089.49,-962.76C1939.85,-961.16 1382.94,-950.27 932,-876.29 715.02,-840.69 587.64,-926.38 453,-752.54 433.41,-727.24 432.41,-705.04 453,-680.54 482.9,-644.96 517.76,-688.95 556,-662.54 611.68,-624.09 567.16,-568.81 617,-523.04 640.83,-501.15 673.24,-488.26 704.05,-480.69"/>
<polygon fill="black" stroke="black" points="704.45,-483.96 713.42,-478.32 702.89,-477.14 704.45,-483.96"/>
<text text-anchor="middle" x="543" y="-711.12" font-family="Arial" font-size="14.00">unzip_and_submit_for_review</text>
</g>
<!-- unzip_depositing -->
<g id="node14" class="node">
<title>unzip_depositing</title>
<ellipse fill="none" stroke="black" cx="1828" cy="-469.04" rx="62.1" ry="36"/>
<text text-anchor="middle" x="1828" y="-463.62" font-family="Arial" font-size="14.00">unzip_depositing</text>
</g>
<!-- first_draft&#45;&gt;unzip_depositing -->
<g id="edge26" class="edge">
<title>first_draft&#45;&gt;unzip_depositing</title>
<path fill="none" stroke="black" d="M2097.62,-942C2051.54,-908.13 1965.31,-836.75 1927.25,-752.54 1907.82,-709.55 1931,-692.14 1918,-646.79 1910.3,-619.94 1876.22,-556.14 1852.28,-513"/>
<polygon fill="black" stroke="black" points="1854.96,-511.63 1847.04,-504.59 1848.85,-515.03 1854.96,-511.63"/>
<text text-anchor="middle" x="2004.88" y="-711.12" font-family="Arial" font-size="14.00">unzip_and_begin_deposit</text>
</g>
<!-- fetch_globus_first_draft -->
<g id="node15" class="node">
<title>fetch_globus_first_draft</title>
<ellipse fill="none" stroke="black" cx="2434" cy="-840.29" rx="82.76" ry="36"/>
<text text-anchor="middle" x="2434" y="-834.87" font-family="Arial" font-size="14.00">fetch_globus_first_draft</text>
</g>
<!-- first_draft&#45;&gt;fetch_globus_first_draft -->
<g id="edge33" class="edge">
<title>first_draft&#45;&gt;fetch_globus_first_draft</title>
<path fill="none" stroke="black" d="M2165.12,-954.1C2201.25,-944.89 2257.36,-929.19 2304,-910.04 2311.46,-906.98 2343.26,-890.17 2373.54,-873.95"/>
<polygon fill="black" stroke="black" points="2374.7,-876.76 2381.85,-868.94 2371.39,-870.59 2374.7,-876.76"/>
<text text-anchor="middle" x="2371.25" y="-896.74" font-family="Arial" font-size="14.00">fetch_globus</text>
</g>
<!-- fetch_globus_pending_approval -->
<g id="node17" class="node">
<title>fetch_globus_pending_approval</title>
<ellipse fill="none" stroke="black" cx="328" cy="-469.04" rx="109.77" ry="36"/>
<text text-anchor="middle" x="328" y="-463.62" font-family="Arial" font-size="14.00">fetch_globus_pending_approval</text>
</g>
<!-- first_draft&#45;&gt;fetch_globus_pending_approval -->
<g id="edge35" class="edge">
<title>first_draft&#45;&gt;fetch_globus_pending_approval</title>
<path fill="none" stroke="black" d="M2089.41,-962.85C1873.67,-961.52 815.23,-951.22 499,-876.29 325.68,-835.22 204.5,-835.01 160,-662.54 152.41,-633.11 130.98,-611.09 166,-556.79 182.94,-530.53 210.63,-511.66 238.37,-498.38"/>
<polygon fill="black" stroke="black" points="239.52,-501.25 247.17,-493.91 236.61,-494.88 239.52,-501.25"/>
<text text-anchor="middle" x="311.12" y="-711.12" font-family="Arial" font-size="14.00">fetch_globus_and_submit_for_review</text>
</g>
<!-- fetch_globus_depositing -->
<g id="node18" class="node">
<title>fetch_globus_depositing</title>
<ellipse fill="none" stroke="black" cx="1994" cy="-469.04" rx="85.54" ry="36"/>
<text text-anchor="middle" x="1994" y="-463.62" font-family="Arial" font-size="14.00">fetch_globus_depositing</text>
</g>
<!-- first_draft&#45;&gt;fetch_globus_depositing -->
<g id="edge39" class="edge">
<title>first_draft&#45;&gt;fetch_globus_depositing</title>
<path fill="none" stroke="black" d="M2117.18,-929.05C2110.42,-904.84 2103,-871.39 2103,-841.29 2103,-841.29 2103,-841.29 2103,-653.67 2103,-595.23 2120.31,-571.73 2088,-523.04 2082.02,-514.03 2073.95,-506.38 2065.04,-499.95"/>
<polygon fill="black" stroke="black" points="2067.18,-496.5 2056.9,-493.91 2063.32,-502.34 2067.18,-496.5"/>
<text text-anchor="middle" x="2202" y="-711.12" font-family="Arial" font-size="14.00">fetch_globus_and_begin_deposit</text>
</g>
<!-- first_draft&#45;&gt;decommissioned -->
<g id="edge49" class="edge">
<title>first_draft&#45;&gt;decommissioned</title>
<path fill="none" stroke="black" d="M2089.71,-962.92C1802.75,-961.78 0,-950.28 0,-841.29 0,-841.29 0,-841.29 0,-220.54 0,-169.33 161.39,-166.88 299,-151.79 808.31,-95.94 1424.9,-75.49 1639.18,-69.76"/>
<polygon fill="black" stroke="black" points="1639.09,-73.24 1648.99,-69.47 1638.91,-66.24 1639.09,-73.24"/>
<text text-anchor="middle" x="43.88" y="-525.49" font-family="Arial" font-size="14.00">decommission</text>
</g>
<!-- version_draft -->
<g id="node4" class="node">
<title>version_draft</title>
<ellipse fill="none" stroke="black" cx="1404" cy="-592.79" rx="49.79" ry="36"/>
<text text-anchor="middle" x="1404" y="-587.37" font-family="Arial" font-size="14.00">version_draft</text>
</g>
<!-- version_draft&#45;&gt;version_draft -->
<g id="edge16" class="edge">
<title>version_draft&#45;&gt;version_draft</title>
<path fill="none" stroke="black" d="M1451.51,-604.21C1463.14,-603.36 1471.79,-599.56 1471.79,-592.79 1471.79,-588.35 1468.06,-585.18 1462.22,-583.29"/>
<polygon fill="black" stroke="black" points="1462.97,-579.69 1452.51,-581.37 1461.74,-586.58 1462.97,-579.69"/>
<text text-anchor="middle" x="1524.66" y="-587.37" font-family="Arial" font-size="14.00">update_metadata</text>
</g>
<!-- version_draft&#45;&gt;pending_approval -->
<g id="edge9" class="edge">
<title>version_draft&#45;&gt;pending_approval</title>
<path fill="none" stroke="black" d="M1406.37,-629C1406.77,-664.58 1401.66,-718.98 1371,-752.54 1332.56,-794.62 1176.1,-819.71 1080.95,-831.37"/>
<polygon fill="black" stroke="black" points="1080.74,-827.99 1071.23,-832.66 1081.57,-834.94 1080.74,-827.99"/>
<text text-anchor="middle" x="1458.12" y="-711.12" font-family="Arial" font-size="14.00">submit_for_review</text>
</g>
<!-- version_draft&#45;&gt;depositing -->
<g id="edge3" class="edge">
<title>version_draft&#45;&gt;depositing</title>
<path fill="none" stroke="black" d="M1454.09,-589.84C1499.43,-585.75 1565.97,-573.68 1612,-538.79 1655.24,-506.02 1630,-466.13 1673,-433.04 1752.97,-371.52 1873.36,-353.57 1941.71,-348.37"/>
<polygon fill="black" stroke="black" points="1941.89,-351.8 1951.62,-347.61 1941.4,-344.81 1941.89,-351.8"/>
<text text-anchor="middle" x="1715" y="-463.62" font-family="Arial" font-size="14.00">begin_deposit</text>
</g>
<!-- unzip_version_draft -->
<g id="node12" class="node">
<title>unzip_version_draft</title>
<ellipse fill="none" stroke="black" cx="1491" cy="-469.04" rx="70.84" ry="36"/>
<text text-anchor="middle" x="1491" y="-463.62" font-family="Arial" font-size="14.00">unzip_version_draft</text>
</g>
<!-- version_draft&#45;&gt;unzip_version_draft -->
<g id="edge21" class="edge">
<title>version_draft&#45;&gt;unzip_version_draft</title>
<path fill="none" stroke="black" d="M1417.25,-557.95C1422.51,-546.38 1429.14,-533.69 1436.75,-523.04 1440.33,-518.03 1444.42,-513.08 1448.7,-508.34"/>
<polygon fill="black" stroke="black" points="1450.71,-511.25 1455.04,-501.58 1445.62,-506.44 1450.71,-511.25"/>
<text text-anchor="middle" x="1453.12" y="-525.49" font-family="Arial" font-size="14.00">unzip</text>
</g>
<!-- version_draft&#45;&gt;unzip_pending_approval -->
<g id="edge23" class="edge">
<title>version_draft&#45;&gt;unzip_pending_approval</title>
<path fill="none" stroke="black" d="M1353.95,-589.75C1274.68,-585.57 1115.91,-573.28 986,-538.79 968.33,-534.1 965.07,-529.59 948,-523.04 924.19,-513.91 898.04,-504.47 874.34,-496.13"/>
<polygon fill="black" stroke="black" points="875.59,-492.51 864.99,-492.51 873.27,-499.11 875.59,-492.51"/>
<text text-anchor="middle" x="1076" y="-525.49" font-family="Arial" font-size="14.00">unzip_and_submit_for_review</text>
</g>
<!-- version_draft&#45;&gt;unzip_depositing -->
<g id="edge27" class="edge">
<title>version_draft&#45;&gt;unzip_depositing</title>
<path fill="none" stroke="black" d="M1453.4,-585.98C1501.74,-579.05 1576.68,-564.97 1637,-538.79 1648.45,-533.82 1648.77,-527.94 1660.25,-523.04 1695.26,-508.09 1707.66,-516.41 1744,-505.04 1752.36,-502.42 1761.04,-499.3 1769.51,-496.01"/>
<polygon fill="black" stroke="black" points="1770.71,-498.9 1778.7,-491.94 1768.11,-492.4 1770.71,-498.9"/>
<text text-anchor="middle" x="1737.88" y="-525.49" font-family="Arial" font-size="14.00">unzip_and_begin_deposit</text>
</g>
<!-- fetch_globus_version_draft -->
<g id="node16" class="node">
<title>fetch_globus_version_draft</title>
<ellipse fill="none" stroke="black" cx="1273" cy="-469.04" rx="94.28" ry="36"/>
<text text-anchor="middle" x="1273" y="-463.62" font-family="Arial" font-size="14.00">fetch_globus_version_draft</text>
</g>
<!-- version_draft&#45;&gt;fetch_globus_version_draft -->
<g id="edge34" class="edge">
<title>version_draft&#45;&gt;fetch_globus_version_draft</title>
<path fill="none" stroke="black" d="M1354.48,-587.45C1293.87,-580.99 1196.55,-566.51 1174.5,-538.79 1161.78,-522.8 1173.23,-508.98 1192.2,-498.01"/>
<polygon fill="black" stroke="black" points="1193.49,-500.76 1200.72,-493.01 1190.24,-494.56 1193.49,-500.76"/>
<text text-anchor="middle" x="1213.25" y="-525.49" font-family="Arial" font-size="14.00">fetch_globus</text>
</g>
<!-- version_draft&#45;&gt;fetch_globus_pending_approval -->
<g id="edge36" class="edge">
<title>version_draft&#45;&gt;fetch_globus_pending_approval</title>
<path fill="none" stroke="black" d="M1354.16,-588.06C1201.89,-576.66 751.15,-542.75 719.75,-538.79 621.08,-526.34 509.43,-506.14 430.64,-490.85"/>
<polygon fill="black" stroke="black" points="431.71,-487.29 421.23,-488.82 430.37,-494.17 431.71,-487.29"/>
<text text-anchor="middle" x="832.12" y="-525.49" font-family="Arial" font-size="14.00">fetch_globus_and_submit_for_review</text>
</g>
<!-- version_draft&#45;&gt;fetch_globus_depositing -->
<g id="edge40" class="edge">
<title>version_draft&#45;&gt;fetch_globus_depositing</title>
<path fill="none" stroke="black" d="M1453.93,-589.4C1532.64,-584.75 1689.88,-571.85 1819,-538.79 1855.82,-529.36 1895.36,-514.28 1927.52,-500.65"/>
<polygon fill="black" stroke="black" points="1928.44,-503.63 1936.25,-496.47 1925.68,-497.2 1928.44,-503.63"/>
<text text-anchor="middle" x="1968" y="-525.49" font-family="Arial" font-size="14.00">fetch_globus_and_begin_deposit</text>
</g>
<!-- version_draft&#45;&gt;decommissioned -->
<g id="edge50" class="edge">
<title>version_draft&#45;&gt;decommissioned</title>
<path fill="none" stroke="black" d="M1453.68,-588.51C1491.98,-583.44 1543.84,-570.7 1577,-538.79 1600.32,-516.35 1601,-502.4 1601,-470.04 1601,-470.04 1601,-470.04 1601,-220.54 1601,-179.47 1627.95,-142.52 1655.87,-115.27"/>
<polygon fill="black" stroke="black" points="1657.88,-118.25 1662.75,-108.85 1653.07,-113.16 1657.88,-118.25"/>
<text text-anchor="middle" x="1644.88" y="-339.87" font-family="Arial" font-size="14.00">decommission</text>
</g>
<!-- pending_approval&#45;&gt;version_draft -->
<g id="edge46" class="edge">
<title>pending_approval&#45;&gt;version_draft</title>
<path fill="none" stroke="black" d="M1045.59,-811.55C1092.55,-779.01 1173.54,-723.98 1245.5,-680.54 1281.28,-658.95 1322.74,-636.33 1354.28,-619.61"/>
<polygon fill="black" stroke="black" points="1355.53,-622.38 1362.74,-614.62 1352.26,-616.19 1355.53,-622.38"/>
<text text-anchor="middle" x="1306.75" y="-711.12" font-family="Arial" font-size="14.00">no_review_workflow</text>
</g>
<!-- pending_approval&#45;&gt;pending_approval -->
<g id="edge11" class="edge">
<title>pending_approval&#45;&gt;pending_approval</title>
<path fill="none" stroke="black" d="M1070.95,-845.68C1081.79,-844.93 1089.28,-843.13 1089.28,-840.29 1089.28,-838.52 1086.35,-837.15 1081.51,-836.19"/>
<polygon fill="black" stroke="black" points="1082.3,-832.64 1071.95,-834.9 1081.45,-839.58 1082.3,-832.64"/>
<text text-anchor="middle" x="1144.4" y="-834.87" font-family="Arial" font-size="14.00">submit_for_review</text>
</g>
<!-- pending_approval&#45;&gt;pending_approval -->
<g id="edge17" class="edge">
<title>pending_approval&#45;&gt;pending_approval</title>
<path fill="none" stroke="black" d="M1069.08,-850.47C1126.78,-854.12 1199.53,-850.73 1199.53,-840.29 1199.53,-830.5 1135.59,-826.91 1080.06,-829.51"/>
<polygon fill="black" stroke="black" points="1079.88,-826.06 1070.08,-830.11 1080.26,-833.05 1079.88,-826.06"/>
<text text-anchor="middle" x="1252.4" y="-834.87" font-family="Arial" font-size="14.00">update_metadata</text>
</g>
<!-- pending_approval&#45;&gt;depositing -->
<g id="edge4" class="edge">
<title>pending_approval&#45;&gt;depositing</title>
<path fill="none" stroke="black" d="M1071.08,-836.81C1195.12,-830.85 1473.16,-811.52 1699,-752.54 1797.32,-726.87 1816.85,-702.79 1916,-680.54 1948.33,-673.29 2038.21,-683.34 2064,-662.54 2158.33,-586.47 2203.99,-498.92 2135,-399.29 2115.02,-370.44 2077.25,-357.27 2045.83,-351.27"/>
<polygon fill="black" stroke="black" points="2046.46,-347.66 2036.02,-349.44 2045.29,-354.56 2046.46,-347.66"/>
<text text-anchor="middle" x="2196" y="-587.37" font-family="Arial" font-size="14.00">begin_deposit</text>
</g>
<!-- rejected -->
<g id="node10" class="node">
<title>rejected</title>
<ellipse fill="none" stroke="black" cx="818" cy="-716.54" rx="36" ry="36"/>
<text text-anchor="middle" x="818" y="-711.12" font-family="Arial" font-size="14.00">rejected</text>
</g>
<!-- pending_approval&#45;&gt;rejected -->
<g id="edge12" class="edge">
<title>pending_approval&#45;&gt;rejected</title>
<path fill="none" stroke="black" d="M940.68,-836.99C901.85,-832 854.88,-818.95 827,-786.29 821.57,-779.92 818.42,-771.94 816.72,-763.7"/>
<polygon fill="black" stroke="black" points="820.06,-763.26 815.25,-753.82 813.12,-764.19 820.06,-763.26"/>
<text text-anchor="middle" x="843.5" y="-772.99" font-family="Arial" font-size="14.00">reject</text>
</g>
<!-- pending_approval&#45;&gt;unzip_pending_approval -->
<g id="edge25" class="edge">
<title>pending_approval&#45;&gt;unzip_pending_approval</title>
<path fill="none" stroke="black" d="M942.12,-832.37C850.95,-818.55 687.64,-778.09 625,-662.54 620.64,-654.51 596.15,-566.29 629,-523.04 646.72,-499.71 674.67,-486.4 702.77,-478.89"/>
<polygon fill="black" stroke="black" points="703.23,-482.14 712.12,-476.38 701.57,-475.34 703.23,-482.14"/>
<text text-anchor="middle" x="715" y="-649.24" font-family="Arial" font-size="14.00">unzip_and_submit_for_review</text>
</g>
<!-- pending_approval&#45;&gt;unzip_depositing -->
<g id="edge28" class="edge">
<title>pending_approval&#45;&gt;unzip_depositing</title>
<path fill="none" stroke="black" d="M1071.21,-837.02C1194.21,-831.36 1453.84,-812.46 1517,-752.54 1552.13,-719.21 1511.42,-683.28 1543.25,-646.79 1545.91,-643.74 1811.4,-541.9 1814,-538.79 1819.44,-532.28 1822.95,-524.23 1825.19,-515.96"/>
<polygon fill="black" stroke="black" points="1828.76,-516.96 1827.39,-506.46 1821.91,-515.53 1828.76,-516.96"/>
<text text-anchor="middle" x="1620.88" y="-649.24" font-family="Arial" font-size="14.00">unzip_and_begin_deposit</text>
</g>
<!-- pending_approval&#45;&gt;fetch_globus_pending_approval -->
<g id="edge38" class="edge">
<title>pending_approval&#45;&gt;fetch_globus_pending_approval</title>
<path fill="none" stroke="black" d="M940.63,-838.88C834.91,-836.97 632.52,-827.82 576,-786.29 534.41,-755.73 570.68,-709.57 528,-680.54 494.96,-658.06 196.29,-691.5 168.75,-662.54 143.04,-635.51 223.8,-557.87 279.55,-509.85"/>
<polygon fill="black" stroke="black" points="281.25,-512.15 286.58,-502.99 276.7,-506.83 281.25,-512.15"/>
<text text-anchor="middle" x="281.12" y="-649.24" font-family="Arial" font-size="14.00">fetch_globus_and_submit_for_review</text>
</g>
<!-- pending_approval&#45;&gt;fetch_globus_depositing -->
<g id="edge41" class="edge">
<title>pending_approval&#45;&gt;fetch_globus_depositing</title>
<path fill="none" stroke="black" d="M1071.38,-838.01C1164.62,-834.86 1340.48,-823.95 1485,-786.29 1553.4,-768.47 2031.94,-597.69 2071,-538.79 2079.94,-525.31 2073,-512.79 2060.27,-502.22"/>
<polygon fill="black" stroke="black" points="2062.82,-499.02 2052.69,-495.91 2058.67,-504.65 2062.82,-499.02"/>
<text text-anchor="middle" x="1961" y="-649.24" font-family="Arial" font-size="14.00">fetch_globus_and_begin_deposit</text>
</g>
<!-- pending_approval&#45;&gt;decommissioned -->
<g id="edge51" class="edge">
<title>pending_approval&#45;&gt;decommissioned</title>
<path fill="none" stroke="black" d="M942.66,-830.76C887.16,-823.39 804.29,-812.65 732,-804.29 693.38,-799.83 592.59,-804.02 558,-786.29 540.14,-777.14 538.47,-769.66 528,-752.54 510.09,-723.25 527.82,-700.67 500,-680.54 438.7,-636.19 222.18,-705.64 160,-662.54 107.94,-626.46 103,-595.26 103,-531.92 103,-531.92 103,-531.92 103,-220.54 103,-142.42 1317.19,-84.98 1639.33,-71.12"/>
<polygon fill="black" stroke="black" points="1639.12,-74.59 1648.96,-70.66 1638.82,-67.59 1639.12,-74.59"/>
<text text-anchor="middle" x="146.88" y="-463.62" font-family="Arial" font-size="14.00">decommission</text>
</g>
<!-- depositing&#45;&gt;depositing -->
<g id="edge7" class="edge">
<title>depositing&#45;&gt;depositing</title>
<path fill="none" stroke="black" d="M2033.18,-356.85C2044.4,-356.39 2053.05,-352.54 2053.05,-345.29 2053.05,-340.65 2049.5,-337.4 2044,-335.54"/>
<polygon fill="black" stroke="black" points="2044.62,-331.93 2034.18,-333.73 2043.47,-338.83 2044.62,-331.93"/>
<text text-anchor="middle" x="2092.8" y="-339.87" font-family="Arial" font-size="14.00">pid_assigned</text>
</g>
<!-- deposited -->
<g id="node7" class="node">
<title>deposited</title>
<ellipse fill="none" stroke="black" cx="1920" cy="-221.54" rx="39.46" ry="36"/>
<text text-anchor="middle" x="1920" y="-216.12" font-family="Arial" font-size="14.00">deposited</text>
</g>
<!-- depositing&#45;&gt;deposited -->
<g id="edge5" class="edge">
<title>depositing&#45;&gt;deposited</title>
<path fill="none" stroke="black" d="M1964.43,-320.14C1955.71,-311.78 1946.82,-301.83 1940.5,-291.29 1936.13,-284 1932.64,-275.72 1929.86,-267.49"/>
<polygon fill="black" stroke="black" points="1932.98,-266.71 1926.71,-258.17 1926.28,-268.75 1932.98,-266.71"/>
<text text-anchor="middle" x="1994.25" y="-277.99" font-family="Arial" font-size="14.00">deposit_complete</text>
</g>
<!-- depositing&#45;&gt;decommissioned -->
<g id="edge52" class="edge">
<title>depositing&#45;&gt;decommissioned</title>
<path fill="none" stroke="black" d="M2026.19,-322.72C2040.56,-310.19 2053.06,-293.38 2047,-275.54 2024.7,-209.89 2008.05,-192.61 1952,-151.79 1904.78,-117.4 1842.1,-95.96 1793.35,-83.37"/>
<polygon fill="black" stroke="black" points="1794.4,-79.78 1783.85,-80.74 1792.7,-86.57 1794.4,-79.78"/>
<text text-anchor="middle" x="2084.88" y="-216.12" font-family="Arial" font-size="14.00">decommission</text>
</g>
<!-- deposited&#45;&gt;decommissioned -->
<g id="edge53" class="edge">
<title>deposited&#45;&gt;decommissioned</title>
<path fill="none" stroke="black" d="M1892.95,-195.13C1878.28,-181.75 1859.58,-165.35 1842,-151.79 1823.24,-137.33 1802.09,-122.59 1782.6,-109.58"/>
<polygon fill="black" stroke="black" points="1784.75,-106.14 1774.48,-103.54 1780.88,-111.98 1784.75,-106.14"/>
<text text-anchor="middle" x="1903.88" y="-154.24" font-family="Arial" font-size="14.00">decommission</text>
</g>
<!-- purl_reserved -->
<g id="node9" class="node">
<title>purl_reserved</title>
<ellipse fill="none" stroke="black" cx="2589" cy="-1087.79" rx="52.17" ry="36"/>
<text text-anchor="middle" x="2589" y="-1082.37" font-family="Arial" font-size="14.00">purl_reserved</text>
</g>
<!-- reserving_purl&#45;&gt;purl_reserved -->
<g id="edge6" class="edge">
<title>reserving_purl&#45;&gt;purl_reserved</title>
<path fill="none" stroke="black" d="M2611.59,-1181.32C2605.66,-1174.1 2600.17,-1166 2596.5,-1157.54 2593.45,-1150.5 2591.45,-1142.69 2590.18,-1134.94"/>
<polygon fill="black" stroke="black" points="2593.53,-1134.59 2588.82,-1125.1 2586.59,-1135.46 2593.53,-1134.59"/>
<text text-anchor="middle" x="2636.75" y="-1144.24" font-family="Arial" font-size="14.00">pid_assigned</text>
</g>
<!-- reserving_purl&#45;&gt;decommissioned -->
<g id="edge54" class="edge">
<title>reserving_purl&#45;&gt;decommissioned</title>
<path fill="none" stroke="black" d="M2665.03,-1178.78C2669.17,-1172.01 2673.08,-1164.73 2676,-1157.54 2687.73,-1128.65 2690,-1119.97 2690,-1088.79 2690,-1088.79 2690,-1088.79 2690,-220.54 2690,-130.07 2024.99,-84.86 1794.52,-71.91"/>
<polygon fill="black" stroke="black" points="1795.06,-68.38 1784.88,-71.31 1794.67,-75.37 1795.06,-68.38"/>
<text text-anchor="middle" x="2733.88" y="-649.24" font-family="Arial" font-size="14.00">decommission</text>
</g>
<!-- purl_reserved&#45;&gt;first_draft -->
<g id="edge19" class="edge">
<title>purl_reserved&#45;&gt;first_draft</title>
<path fill="none" stroke="black" d="M2540.54,-1073.99C2451.66,-1050.52 2263.65,-1000.86 2175.49,-977.58"/>
<polygon fill="black" stroke="black" points="2176.56,-973.98 2166,-974.81 2174.77,-980.75 2176.56,-973.98"/>
<text text-anchor="middle" x="2439.88" y="-1020.49" font-family="Arial" font-size="14.00">update_metadata</text>
</g>
<!-- purl_reserved&#45;&gt;decommissioned -->
<g id="edge55" class="edge">
<title>purl_reserved&#45;&gt;decommissioned</title>
<path fill="none" stroke="black" d="M2587.19,-1051.53C2583.2,-970.64 2574,-765.48 2574,-593.79 2574,-593.79 2574,-593.79 2574,-220.54 2574,-148.42 2496.37,-171.55 2427,-151.79 2203.49,-88.11 1927.13,-72.7 1794.78,-69.02"/>
<polygon fill="black" stroke="black" points="1795.05,-65.5 1784.97,-68.74 1794.87,-72.5 1795.05,-65.5"/>
<text text-anchor="middle" x="2618.88" y="-587.37" font-family="Arial" font-size="14.00">decommission</text>
</g>
<!-- rejected&#45;&gt;version_draft -->
<g id="edge47" class="edge">
<title>rejected&#45;&gt;version_draft</title>
<path fill="none" stroke="black" d="M854.34,-713.12C908.09,-708.54 1011.14,-695.85 1092,-662.54 1103.63,-657.75 1103.85,-651.53 1115.5,-646.79 1190.45,-616.33 1283.47,-603.26 1343.28,-597.73"/>
<polygon fill="black" stroke="black" points="1343.4,-601.15 1353.05,-596.79 1342.78,-594.18 1343.4,-601.15"/>
<text text-anchor="middle" x="1176.75" y="-649.24" font-family="Arial" font-size="14.00">no_review_workflow</text>
</g>
<!-- rejected&#45;&gt;pending_approval -->
<g id="edge10" class="edge">
<title>rejected&#45;&gt;pending_approval</title>
<path fill="none" stroke="black" d="M839.33,-745.62C850.77,-759.24 865.78,-775.05 881.75,-786.29 899.39,-798.7 920.39,-809.04 940.06,-817.18"/>
<polygon fill="black" stroke="black" points="938.62,-820.78 949.2,-821.24 941.22,-814.28 938.62,-820.78"/>
<text text-anchor="middle" x="937.12" y="-772.99" font-family="Arial" font-size="14.00">submit_for_review</text>
</g>
<!-- rejected&#45;&gt;rejected -->
<g id="edge18" class="edge">
<title>rejected&#45;&gt;rejected</title>
<path fill="none" stroke="black" d="M852.54,-728.14C863.42,-727.96 872,-724.09 872,-716.54 872,-711.7 868.48,-708.38 863.09,-706.57"/>
<polygon fill="black" stroke="black" points="863.95,-703 853.54,-704.95 862.89,-709.92 863.95,-703"/>
<text text-anchor="middle" x="924.88" y="-711.12" font-family="Arial" font-size="14.00">update_metadata</text>
</g>
<!-- rejected&#45;&gt;unzip_pending_approval -->
<g id="edge24" class="edge">
<title>rejected&#45;&gt;unzip_pending_approval</title>
<path fill="none" stroke="black" d="M820.24,-680.3C819.31,-668.62 816.31,-656.2 809,-646.79 795.79,-629.78 776.08,-646.63 764,-628.79 746.06,-602.29 743.3,-581.19 764,-556.79 795.77,-519.35 841.23,-576.23 873,-538.79 883.7,-526.18 876.54,-513.6 863.16,-502.71"/>
<polygon fill="black" stroke="black" points="865.79,-499.57 855.64,-496.51 861.66,-505.23 865.79,-499.57"/>
<text text-anchor="middle" x="854" y="-587.37" font-family="Arial" font-size="14.00">unzip_and_submit_for_review</text>
</g>
<!-- rejected&#45;&gt;fetch_globus_pending_approval -->
<g id="edge37" class="edge">
<title>rejected&#45;&gt;fetch_globus_pending_approval</title>
<path fill="none" stroke="black" d="M782.87,-708C741.05,-698.7 669.27,-681.76 609,-662.54 569.39,-649.91 557.67,-649.73 521.75,-628.79 464.58,-595.46 406.91,-545.66 369.54,-510.75"/>
<polygon fill="black" stroke="black" points="372.57,-508.85 362.89,-504.54 367.77,-513.94 372.57,-508.85"/>
<text text-anchor="middle" x="634.12" y="-587.37" font-family="Arial" font-size="14.00">fetch_globus_and_submit_for_review</text>
</g>
<!-- rejected&#45;&gt;decommissioned -->
<g id="edge56" class="edge">
<title>rejected&#45;&gt;decommissioned</title>
<path fill="none" stroke="black" d="M851.83,-702.96C882.15,-689.66 924.72,-665.46 944,-628.79 958.89,-600.46 949.62,-588.29 944,-556.79 936.78,-516.34 912,-511.14 912,-470.04 912,-470.04 912,-470.04 912,-220.54 912,-146.99 1437.41,-92.65 1639.29,-74.49"/>
<polygon fill="black" stroke="black" points="1639.45,-77.9 1649.1,-73.52 1638.82,-70.93 1639.45,-77.9"/>
<text text-anchor="middle" x="955.88" y="-401.74" font-family="Arial" font-size="14.00">decommission</text>
</g>
<!-- unzip_first_draft&#45;&gt;first_draft -->
<g id="edge29" class="edge">
<title>unzip_first_draft&#45;&gt;first_draft</title>
<path fill="none" stroke="black" d="M2214.64,-875.55C2209.21,-887.15 2202.26,-899.76 2194,-910.04 2186.46,-919.43 2176.99,-928.23 2167.59,-935.87"/>
<polygon fill="black" stroke="black" points="2165.77,-933.63 2160.04,-942.54 2170.08,-939.15 2165.77,-933.63"/>
<text text-anchor="middle" x="2252.62" y="-896.74" font-family="Arial" font-size="14.00">unzip_complete</text>
</g>
<!-- unzip_first_draft&#45;&gt;decommissioned -->
<g id="edge57" class="edge">
<title>unzip_first_draft&#45;&gt;decommissioned</title>
<path fill="none" stroke="black" d="M2267.19,-812.82C2287.36,-797.37 2310.82,-776.28 2326,-752.54 2408.47,-623.55 2334,-561.26 2334,-408.17 2334,-408.17 2334,-408.17 2334,-220.54 2334,-110.67 1960.69,-79.37 1794.82,-70.88"/>
<polygon fill="black" stroke="black" points="1795.37,-67.35 1785.2,-70.36 1795.02,-74.35 1795.37,-67.35"/>
<text text-anchor="middle" x="2387.88" y="-463.62" font-family="Arial" font-size="14.00">decommission</text>
</g>
<!-- unzip_version_draft&#45;&gt;version_draft -->
<g id="edge30" class="edge">
<title>unzip_version_draft&#45;&gt;version_draft</title>
<path fill="none" stroke="black" d="M1484,-505.03C1480.66,-516.44 1475.85,-528.75 1469,-538.79 1463.46,-546.92 1456.32,-554.45 1448.8,-561.13"/>
<polygon fill="black" stroke="black" points="1446.98,-558.93 1441.56,-568.03 1451.47,-564.3 1446.98,-558.93"/>
<text text-anchor="middle" x="1525.62" y="-525.49" font-family="Arial" font-size="14.00">unzip_complete</text>
</g>
<!-- unzip_version_draft&#45;&gt;decommissioned -->
<g id="edge58" class="edge">
<title>unzip_version_draft&#45;&gt;decommissioned</title>
<path fill="none" stroke="black" d="M1486.67,-432.87C1483.14,-393.42 1481.27,-328.08 1499.25,-275.54 1521.09,-211.75 1538.29,-198.41 1587,-151.79 1605.34,-134.24 1627.86,-118.21 1648.97,-104.97"/>
<polygon fill="black" stroke="black" points="1650.54,-107.5 1657.23,-99.28 1646.88,-101.53 1650.54,-107.5"/>
<text text-anchor="middle" x="1543.88" y="-277.99" font-family="Arial" font-size="14.00">decommission</text>
</g>
<!-- unzip_pending_approval&#45;&gt;pending_approval -->
<g id="edge31" class="edge">
<title>unzip_pending_approval&#45;&gt;pending_approval</title>
<path fill="none" stroke="black" d="M861.31,-493.78C891.37,-507.95 925.55,-528.71 948,-556.79 984.02,-601.83 974.85,-624.17 987,-680.54 995.08,-718.04 999.97,-761.32 1002.77,-793.21"/>
<polygon fill="black" stroke="black" points="999.35,-793.31 1003.67,-802.98 1006.32,-792.73 999.35,-793.31"/>
<text text-anchor="middle" x="1031.62" y="-649.24" font-family="Arial" font-size="14.00">unzip_complete</text>
</g>
<!-- unzip_pending_approval&#45;&gt;decommissioned -->
<g id="edge59" class="edge">
<title>unzip_pending_approval&#45;&gt;decommissioned</title>
<path fill="none" stroke="black" d="M794.6,-432.82C792.06,-393.33 791.7,-327.94 810.25,-275.54 832.75,-211.98 839.76,-185.76 898,-151.79 1022.48,-79.18 1459.03,-68.91 1638.77,-67.82"/>
<polygon fill="black" stroke="black" points="1638.74,-71.31 1648.72,-67.76 1638.7,-64.31 1638.74,-71.31"/>
<text text-anchor="middle" x="854.88" y="-277.99" font-family="Arial" font-size="14.00">decommission</text>
</g>
<!-- unzip_depositing&#45;&gt;depositing -->
<g id="edge32" class="edge">
<title>unzip_depositing&#45;&gt;depositing</title>
<path fill="none" stroke="black" d="M1855.06,-436.16C1866.53,-423.76 1880.53,-410 1894.75,-399.29 1911.08,-387 1930.64,-375.9 1948.06,-367.08"/>
<polygon fill="black" stroke="black" points="1949.07,-369.98 1956.48,-362.41 1945.97,-363.71 1949.07,-369.98"/>
<text text-anchor="middle" x="1942.62" y="-401.74" font-family="Arial" font-size="14.00">unzip_complete</text>
</g>
<!-- unzip_depositing&#45;&gt;decommissioned -->
<g id="edge60" class="edge">
<title>unzip_depositing&#45;&gt;decommissioned</title>
<path fill="none" stroke="black" d="M1800.78,-436.48C1773.86,-403.02 1734.41,-347.34 1718.25,-291.29 1704.53,-243.71 1704.19,-188.02 1707.29,-144.15"/>
<polygon fill="black" stroke="black" points="1710.85,-144.5 1708.15,-134.26 1703.87,-143.95 1710.85,-144.5"/>
<text text-anchor="middle" x="1762.88" y="-277.99" font-family="Arial" font-size="14.00">decommission</text>
</g>
<!-- fetch_globus_first_draft&#45;&gt;first_draft -->
<g id="edge42" class="edge">
<title>fetch_globus_first_draft&#45;&gt;first_draft</title>
<path fill="none" stroke="black" d="M2430.19,-876.46C2427.13,-888.71 2421.68,-901.5 2412,-910.04 2377.79,-940.22 2248.79,-954.27 2177,-959.88"/>
<polygon fill="black" stroke="black" points="2177.12,-956.43 2167.41,-960.67 2177.65,-963.41 2177.12,-956.43"/>
<text text-anchor="middle" x="2493.75" y="-896.74" font-family="Arial" font-size="14.00">fetch_globus_complete</text>
</g>
<!-- fetch_globus_first_draft&#45;&gt;decommissioned -->
<g id="edge61" class="edge">
<title>fetch_globus_first_draft&#45;&gt;decommissioned</title>
<path fill="none" stroke="black" d="M2444.67,-804.22C2451.08,-780.09 2458,-747.16 2458,-717.54 2458,-717.54 2458,-717.54 2458,-220.54 2458,-86.22 1985.01,-69.09 1794.82,-67.64"/>
<polygon fill="black" stroke="black" points="1795.09,-64.13 1785.07,-67.57 1795.04,-71.13 1795.09,-64.13"/>
<text text-anchor="middle" x="2501.88" y="-463.62" font-family="Arial" font-size="14.00">decommission</text>
</g>
<!-- fetch_globus_version_draft&#45;&gt;version_draft -->
<g id="edge43" class="edge">
<title>fetch_globus_version_draft&#45;&gt;version_draft</title>
<path fill="none" stroke="black" d="M1272.39,-505.21C1273.78,-516.9 1277.16,-529.32 1284.5,-538.79 1299.64,-558.31 1323.5,-570.81 1345.93,-578.74"/>
<polygon fill="black" stroke="black" points="1344.51,-582.28 1355.11,-582.06 1346.69,-575.63 1344.51,-582.28"/>
<text text-anchor="middle" x="1354.75" y="-525.49" font-family="Arial" font-size="14.00">fetch_globus_complete</text>
</g>
<!-- fetch_globus_version_draft&#45;&gt;decommissioned -->
<g id="edge62" class="edge">
<title>fetch_globus_version_draft&#45;&gt;decommissioned</title>
<path fill="none" stroke="black" d="M1292.82,-433.57C1316.57,-393.61 1358.76,-326.69 1403.25,-275.54 1442.43,-230.48 1454.35,-220.15 1503,-185.54 1548.51,-153.16 1603.85,-122.95 1646.85,-101.26"/>
<polygon fill="black" stroke="black" points="1648.29,-103.95 1655.67,-96.34 1645.16,-97.69 1648.29,-103.95"/>
<text text-anchor="middle" x="1447.88" y="-277.99" font-family="Arial" font-size="14.00">decommission</text>
</g>
<!-- fetch_globus_pending_approval&#45;&gt;pending_approval -->
<g id="edge44" class="edge">
<title>fetch_globus_pending_approval&#45;&gt;pending_approval</title>
<path fill="none" stroke="black" d="M333.63,-505.35C342.71,-549.75 365.09,-624.73 416.5,-662.54 466.86,-699.58 499.44,-653.91 556,-680.54 598.39,-700.5 592.58,-728.85 633,-752.54 675.66,-777.54 691.12,-773.96 739,-786.29 804,-803.03 879.06,-817.51 933.01,-827.09"/>
<polygon fill="black" stroke="black" points="932.06,-830.65 942.51,-828.93 933.27,-823.75 932.06,-830.65"/>
<text text-anchor="middle" x="486.75" y="-649.24" font-family="Arial" font-size="14.00">fetch_globus_complete</text>
</g>
<!-- fetch_globus_pending_approval&#45;&gt;decommissioned -->
<g id="edge63" class="edge">
<title>fetch_globus_pending_approval&#45;&gt;decommissioned</title>
<path fill="none" stroke="black" d="M369.31,-435.43C456.27,-368.81 667.05,-217.82 871,-151.79 1012.91,-105.85 1458.1,-80.15 1639.21,-71.37"/>
<polygon fill="black" stroke="black" points="1639.15,-74.83 1648.97,-70.86 1638.82,-67.84 1639.15,-74.83"/>
<text text-anchor="middle" x="646.88" y="-277.99" font-family="Arial" font-size="14.00">decommission</text>
</g>
<!-- fetch_globus_depositing&#45;&gt;depositing -->
<g id="edge45" class="edge">
<title>fetch_globus_depositing&#45;&gt;depositing</title>
<path fill="none" stroke="black" d="M1994,-432.83C1994,-420.21 1994,-405.79 1994,-392.38"/>
<polygon fill="black" stroke="black" points="1997.5,-392.43 1994,-382.43 1990.5,-392.43 1997.5,-392.43"/>
<text text-anchor="middle" x="2063.75" y="-401.74" font-family="Arial" font-size="14.00">fetch_globus_complete</text>
</g>
<!-- fetch_globus_depositing&#45;&gt;decommissioned -->
<g id="edge64" class="edge">
<title>fetch_globus_depositing&#45;&gt;decommissioned</title>
<path fill="none" stroke="black" d="M1929.89,-444.78C1905.78,-435.05 1882,-423.96 1873,-415.04 1862.43,-404.57 1789.55,-237.08 1747.24,-138.64"/>
<polygon fill="black" stroke="black" points="1750.16,-137.56 1743,-129.75 1743.73,-140.32 1750.16,-137.56"/>
<text text-anchor="middle" x="1857.88" y="-277.99" font-family="Arial" font-size="14.00">decommission</text>
</g>
<!-- decommissioned&#45;&gt;decommissioned -->
<g id="edge65" class="edge">
<title>decommissioned&#45;&gt;decommissioned</title>
<path fill="none" stroke="black" d="M1782.14,-83.27C1793.77,-81.14 1801.9,-75.68 1801.9,-66.9 1801.9,-60.99 1798.23,-56.59 1792.29,-53.69"/>
<polygon fill="black" stroke="black" points="1793.73,-50.16 1783.14,-50.52 1791.64,-56.84 1793.73,-50.16"/>
<text text-anchor="middle" x="1845.77" y="-61.47" font-family="Arial" font-size="14.00">decommission</text>
</g>
</g>
</svg>
