<?xml version="1.0" encoding="UTF-8" standalone="no"?>
<!DOCTYPE svg PUBLIC "-//W3C//DTD SVG 1.1//EN"
 "http://www.w3.org/Graphics/SVG/1.1/DTD/svg11.dtd">
<!-- Generated by graphviz version 5.0.1 (20220820.1526)
 -->
<!-- Title: G Pages: 1 -->
<svg width="1056pt" height="1289pt"
 viewBox="0.00 0.00 1056.00 1289.18" xmlns="http://www.w3.org/2000/svg" xmlns:xlink="http://www.w3.org/1999/xlink">
<g id="graph0" class="graph" transform="scale(1 1) rotate(0) translate(4 1285.18)">
<title>G</title>
<polygon fill="white" stroke="none" points="-4,4 -4,-1285.18 1052,-1285.18 1052,4 -4,4"/>
<!-- new -->
<g id="node1" class="node">
<title>new</title>
<ellipse fill="none" stroke="black" cx="288" cy="-1204.58" rx="36" ry="36"/>
<text text-anchor="middle" x="288" y="-1200.88" font-family="Arial" font-size="14.00">new</text>
</g>
<!-- first_draft -->
<g id="node3" class="node">
<title>first_draft</title>
<ellipse fill="none" stroke="black" cx="288" cy="-835.58" rx="38.54" ry="36"/>
<text text-anchor="middle" x="288" y="-831.88" font-family="Arial" font-size="14.00">first_draft</text>
</g>
<!-- new&#45;&gt;first_draft -->
<g id="edge14" class="edge">
<title>new&#45;&gt;first_draft</title>
<path fill="none" stroke="black" d="M288,-1168.39C288,-1101.53 288,-956.21 288,-882.07"/>
<polygon fill="black" stroke="black" points="291.5,-881.66 288,-871.66 284.5,-881.66 291.5,-881.66"/>
<text text-anchor="middle" x="341" y="-1016.38" font-family="Arial" font-size="14.00">update_metadata</text>
</g>
<!-- reserving_purl -->
<g id="node8" class="node">
<title>reserving_purl</title>
<ellipse fill="none" stroke="black" cx="600" cy="-1081.58" rx="53.64" ry="36"/>
<text text-anchor="middle" x="600" y="-1077.88" font-family="Arial" font-size="14.00">reserving_purl</text>
</g>
<!-- new&#45;&gt;reserving_purl -->
<g id="edge13" class="edge">
<title>new&#45;&gt;reserving_purl</title>
<path fill="none" stroke="black" d="M321.39,-1190.63C374.7,-1169.96 479.6,-1129.27 544.38,-1104.15"/>
<polygon fill="black" stroke="black" points="545.96,-1107.29 554.02,-1100.41 543.43,-1100.76 545.96,-1107.29"/>
<text text-anchor="middle" x="501" y="-1139.38" font-family="Arial" font-size="14.00">reserve_purl</text>
</g>
<!-- decommissioned -->
<g id="node11" class="node">
<title>decommissioned</title>
<ellipse fill="none" stroke="black" cx="480" cy="-66.79" rx="62.59" ry="62.59"/>
<ellipse fill="none" stroke="black" cx="480" cy="-66.79" rx="66.58" ry="66.58"/>
<text text-anchor="middle" x="480" y="-63.09" font-family="Arial" font-size="14.00">decommissioned</text>
</g>
<!-- new&#45;&gt;decommissioned -->
<g id="edge22" class="edge">
<title>new&#45;&gt;decommissioned</title>
<path fill="none" stroke="black" d="M251.82,-1204.31C174.47,-1203.79 0,-1190.64 0,-1082.58 0,-1082.58 0,-1082.58 0,-219.58 0,-136.05 267.6,-92.63 403.19,-76"/>
<polygon fill="black" stroke="black" points="404,-79.42 413.51,-74.75 403.16,-72.47 404,-79.42"/>
<text text-anchor="middle" x="44" y="-647.38" font-family="Arial" font-size="14.00">decommission</text>
</g>
<!-- starting_state -->
<g id="node2" class="node">
<title>starting_state</title>
<ellipse fill="black" stroke="black" cx="288" cy="-1279.38" rx="1.8" ry="1.8"/>
</g>
<!-- starting_state&#45;&gt;new -->
<g id="edge1" class="edge">
<title>starting_state&#45;&gt;new</title>
<path fill="none" stroke="black" d="M288,-1277.56C288,-1274.55 288,-1263.63 288,-1251.17"/>
<polygon fill="black" stroke="black" points="291.5,-1250.97 288,-1240.97 284.5,-1250.97 291.5,-1250.97"/>
</g>
<!-- first_draft&#45;&gt;first_draft -->
<g id="edge15" class="edge">
<title>first_draft&#45;&gt;first_draft</title>
<path fill="none" stroke="black" d="M324.69,-846.81C335.82,-846.53 344.52,-842.79 344.52,-835.58 344.52,-830.74 340.59,-827.46 334.64,-825.74"/>
<polygon fill="black" stroke="black" points="335.08,-822.27 324.69,-824.35 334.11,-829.2 335.08,-822.27"/>
<text text-anchor="middle" x="397.52" y="-831.88" font-family="Arial" font-size="14.00">update_metadata</text>
</g>
<!-- pending_approval -->
<g id="node5" class="node">
<title>pending_approval</title>
<ellipse fill="none" stroke="black" cx="427" cy="-712.58" rx="65.36" ry="36"/>
<text text-anchor="middle" x="427" y="-708.88" font-family="Arial" font-size="14.00">pending_approval</text>
</g>
<!-- first_draft&#45;&gt;pending_approval -->
<g id="edge8" class="edge">
<title>first_draft&#45;&gt;pending_approval</title>
<path fill="none" stroke="black" d="M315.79,-810.38C335.64,-793.11 362.68,-769.57 385.13,-750.03"/>
<polygon fill="black" stroke="black" points="387.61,-752.51 392.86,-743.3 383.02,-747.23 387.61,-752.51"/>
<text text-anchor="middle" x="421.5" y="-770.38" font-family="Arial" font-size="14.00">submit_for_review</text>
</g>
<!-- depositing -->
<g id="node6" class="node">
<title>depositing</title>
<ellipse fill="none" stroke="black" cx="262" cy="-343.58" rx="41.31" ry="36"/>
<text text-anchor="middle" x="262" y="-339.88" font-family="Arial" font-size="14.00">depositing</text>
</g>
<!-- first_draft&#45;&gt;depositing -->
<g id="edge2" class="edge">
<title>first_draft&#45;&gt;depositing</title>
<path fill="none" stroke="black" d="M266.3,-805.74C238.75,-767.12 192.66,-695.36 175,-625.58 167.15,-594.56 168.73,-584.96 175,-553.58 176.73,-544.93 218.81,-445.65 243.8,-387.09"/>
<polygon fill="black" stroke="black" points="247.1,-388.28 247.81,-377.71 240.66,-385.54 247.1,-388.28"/>
<text text-anchor="middle" x="217.5" y="-585.88" font-family="Arial" font-size="14.00">begin_deposit</text>
</g>
<!-- first_draft&#45;&gt;decommissioned -->
<g id="edge23" class="edge">
<title>first_draft&#45;&gt;decommissioned</title>
<path fill="none" stroke="black" d="M250.12,-827.5C195.99,-814.94 103,-783.24 103,-713.58 103,-713.58 103,-713.58 103,-219.58 103,-155.26 294.19,-105.57 404.27,-82.29"/>
<polygon fill="black" stroke="black" points="405.26,-85.66 414.33,-80.19 403.83,-78.81 405.26,-85.66"/>
<text text-anchor="middle" x="147" y="-462.88" font-family="Arial" font-size="14.00">decommission</text>
</g>
<!-- version_draft -->
<g id="node4" class="node">
<title>version_draft</title>
<ellipse fill="none" stroke="black" cx="381" cy="-466.58" rx="50.25" ry="36"/>
<text text-anchor="middle" x="381" y="-462.88" font-family="Arial" font-size="14.00">version_draft</text>
</g>
<!-- version_draft&#45;&gt;version_draft -->
<g id="edge16" class="edge">
<title>version_draft&#45;&gt;version_draft</title>
<path fill="none" stroke="black" d="M428.75,-477.65C440.43,-476.83 449.13,-473.14 449.13,-466.58 449.13,-462.07 445.02,-458.91 438.65,-457.12"/>
<polygon fill="black" stroke="black" points="439.18,-453.66 428.75,-455.51 438.06,-460.57 439.18,-453.66"/>
<text text-anchor="middle" x="502.13" y="-462.88" font-family="Arial" font-size="14.00">update_metadata</text>
</g>
<!-- version_draft&#45;&gt;pending_approval -->
<g id="edge9" class="edge">
<title>version_draft&#45;&gt;pending_approval</title>
<path fill="none" stroke="black" d="M429.61,-475.7C500.68,-488.7 627.33,-516.54 653,-553.58 671.23,-579.88 670.06,-598.51 653,-625.58 621.04,-676.3 554.41,-697.19 501.74,-705.75"/>
<polygon fill="black" stroke="black" points="501.11,-702.31 491.75,-707.26 502.16,-709.23 501.11,-702.31"/>
<text text-anchor="middle" x="722.5" y="-585.88" font-family="Arial" font-size="14.00">submit_for_review</text>
</g>
<!-- version_draft&#45;&gt;depositing -->
<g id="edge3" class="edge">
<title>version_draft&#45;&gt;depositing</title>
<path fill="none" stroke="black" d="M352.5,-436.6C335.53,-419.35 313.9,-397.35 296.04,-379.19"/>
<polygon fill="black" stroke="black" points="298.15,-376.34 288.64,-371.67 293.16,-381.25 298.15,-376.34"/>
<text text-anchor="middle" x="371.5" y="-401.38" font-family="Arial" font-size="14.00">begin_deposit</text>
</g>
<!-- version_draft&#45;&gt;decommissioned -->
<g id="edge24" class="edge">
<title>version_draft&#45;&gt;decommissioned</title>
<path fill="none" stroke="black" d="M404.99,-434.62C409.73,-427.62 414.36,-420.04 418,-412.58 449.81,-347.39 452.57,-327.87 466,-256.58 472.92,-219.83 476.46,-178.46 478.25,-143.83"/>
<polygon fill="black" stroke="black" points="481.75,-143.94 478.73,-133.79 474.76,-143.61 481.75,-143.94"/>
<text text-anchor="middle" x="507" y="-278.38" font-family="Arial" font-size="14.00">decommission</text>
</g>
<!-- pending_approval&#45;&gt;version_draft -->
<g id="edge20" class="edge">
<title>pending_approval&#45;&gt;version_draft</title>
<path fill="none" stroke="black" d="M379.36,-687.76C355.97,-673.28 330.07,-652.38 317,-625.58 302.98,-596.82 301.03,-581.31 317,-553.58 324.95,-539.77 337.16,-547.26 348,-535.58 354.63,-528.44 360.18,-519.73 364.74,-510.95"/>
<polygon fill="black" stroke="black" points="367.94,-512.37 369.12,-501.84 361.63,-509.34 367.94,-512.37"/>
<text text-anchor="middle" x="378" y="-585.88" font-family="Arial" font-size="14.00">no_review_workflow</text>
</g>
<!-- pending_approval&#45;&gt;pending_approval -->
<g id="edge11" class="edge">
<title>pending_approval&#45;&gt;pending_approval</title>
<path fill="none" stroke="black" d="M492.06,-717.81C502.93,-717.08 510.43,-715.33 510.43,-712.58 510.43,-710.82 507.35,-709.47 502.28,-708.53"/>
<polygon fill="black" stroke="black" points="502.4,-705.02 492.06,-707.35 501.59,-711.98 502.4,-705.02"/>
<text text-anchor="middle" x="565.93" y="-708.88" font-family="Arial" font-size="14.00">submit_for_review</text>
</g>
<!-- pending_approval&#45;&gt;pending_approval -->
<g id="edge17" class="edge">
<title>pending_approval&#45;&gt;pending_approval</title>
<path fill="none" stroke="black" d="M490.08,-722.44C548.08,-726 621.43,-722.72 621.43,-712.58 621.43,-703.02 556.15,-699.55 500.07,-702.18"/>
<polygon fill="black" stroke="black" points="499.88,-698.69 490.08,-702.72 500.25,-705.68 499.88,-698.69"/>
<text text-anchor="middle" x="674.43" y="-708.88" font-family="Arial" font-size="14.00">update_metadata</text>
</g>
<!-- pending_approval&#45;&gt;depositing -->
<g id="edge4" class="edge">
<title>pending_approval&#45;&gt;depositing</title>
<path fill="none" stroke="black" d="M375.59,-690.3C358.74,-681.9 340.61,-671.2 326,-658.58 278.9,-617.88 272.76,-596.29 259,-535.58 247.9,-486.59 250.98,-428.71 255.35,-389.61"/>
<polygon fill="black" stroke="black" points="258.84,-389.94 256.55,-379.59 251.89,-389.11 258.84,-389.94"/>
<text text-anchor="middle" x="301.5" y="-524.38" font-family="Arial" font-size="14.00">begin_deposit</text>
</g>
<!-- rejected -->
<g id="node10" class="node">
<title>rejected</title>
<ellipse fill="none" stroke="black" cx="484" cy="-589.58" rx="36" ry="36"/>
<text text-anchor="middle" x="484" y="-585.88" font-family="Arial" font-size="14.00">rejected</text>
</g>
<!-- pending_approval&#45;&gt;rejected -->
<g id="edge12" class="edge">
<title>pending_approval&#45;&gt;rejected</title>
<path fill="none" stroke="black" d="M419.43,-676.52C418.63,-665.56 419.43,-653.71 424,-643.58 428.82,-632.9 436.97,-623.5 445.73,-615.71"/>
<polygon fill="black" stroke="black" points="448.04,-618.34 453.53,-609.28 443.59,-612.94 448.04,-618.34"/>
<text text-anchor="middle" x="441" y="-647.38" font-family="Arial" font-size="14.00">reject</text>
</g>
<!-- pending_approval&#45;&gt;decommissioned -->
<g id="edge25" class="edge">
<title>pending_approval&#45;&gt;decommissioned</title>
<path fill="none" stroke="black" d="M491.42,-705.38C583.75,-695 746.52,-670.69 782,-625.58 852.78,-535.58 654.65,-238.4 580,-151.58 568.58,-138.3 554.94,-125.4 541.45,-113.86"/>
<polygon fill="black" stroke="black" points="543.46,-110.97 533.55,-107.23 538.96,-116.34 543.46,-110.97"/>
<text text-anchor="middle" x="791" y="-401.38" font-family="Arial" font-size="14.00">decommission</text>
</g>
<!-- depositing&#45;&gt;depositing -->
<g id="edge7" class="edge">
<title>depositing&#45;&gt;depositing</title>
<path fill="none" stroke="black" d="M301.25,-354.79C312.49,-354.35 321.16,-350.61 321.16,-343.58 321.16,-338.86 317.24,-335.62 311.27,-333.87"/>
<polygon fill="black" stroke="black" points="311.66,-330.39 301.25,-332.37 310.63,-337.31 311.66,-330.39"/>
<text text-anchor="middle" x="361.16" y="-339.88" font-family="Arial" font-size="14.00">pid_assigned</text>
</g>
<!-- deposited -->
<g id="node7" class="node">
<title>deposited</title>
<ellipse fill="none" stroke="black" cx="247" cy="-220.58" rx="39.65" ry="36"/>
<text text-anchor="middle" x="247" y="-216.88" font-family="Arial" font-size="14.00">deposited</text>
</g>
<!-- depositing&#45;&gt;deposited -->
<g id="edge5" class="edge">
<title>depositing&#45;&gt;deposited</title>
<path fill="none" stroke="black" d="M248.15,-309.41C246.01,-302.94 244.14,-296.13 243,-289.58 241.7,-282.13 241.31,-274.15 241.44,-266.38"/>
<polygon fill="black" stroke="black" points="244.94,-266.49 241.88,-256.35 237.94,-266.18 244.94,-266.49"/>
<text text-anchor="middle" x="296.5" y="-278.38" font-family="Arial" font-size="14.00">deposit_complete</text>
</g>
<!-- depositing&#45;&gt;decommissioned -->
<g id="edge26" class="edge">
<title>depositing&#45;&gt;decommissioned</title>
<path fill="none" stroke="black" d="M299.23,-328.08C317,-319.4 337.14,-306.69 350,-289.58 379.02,-250.98 355.3,-227.21 378,-184.58 390.12,-161.81 407.46,-139.73 424.41,-121"/>
<polygon fill="black" stroke="black" points="427.41,-122.91 431.63,-113.19 422.27,-118.16 427.41,-122.91"/>
<text text-anchor="middle" x="422" y="-216.88" font-family="Arial" font-size="14.00">decommission</text>
</g>
<!-- deposited&#45;&gt;decommissioned -->
<g id="edge27" class="edge">
<title>deposited&#45;&gt;decommissioned</title>
<path fill="none" stroke="black" d="M248.2,-184.46C250.18,-172.88 254.19,-160.65 262,-151.58 297.67,-110.12 356.29,-89.08 403.76,-78.46"/>
<polygon fill="black" stroke="black" points="404.65,-81.85 413.71,-76.35 403.2,-75.01 404.65,-81.85"/>
<text text-anchor="middle" x="306" y="-155.38" font-family="Arial" font-size="14.00">decommission</text>
</g>
<!-- purl_reserved -->
<g id="node9" class="node">
<title>purl_reserved</title>
<ellipse fill="none" stroke="black" cx="600" cy="-958.58" rx="52.47" ry="36"/>
<text text-anchor="middle" x="600" y="-954.88" font-family="Arial" font-size="14.00">purl_reserved</text>
</g>
<!-- reserving_purl&#45;&gt;purl_reserved -->
<g id="edge6" class="edge">
<title>reserving_purl&#45;&gt;purl_reserved</title>
<path fill="none" stroke="black" d="M600,-1045.26C600,-1032.71 600,-1018.4 600,-1005.12"/>
<polygon fill="black" stroke="black" points="603.5,-1004.74 600,-994.74 596.5,-1004.74 603.5,-1004.74"/>
<text text-anchor="middle" x="640" y="-1016.38" font-family="Arial" font-size="14.00">pid_assigned</text>
</g>
<!-- reserving_purl&#45;&gt;decommissioned -->
<g id="edge28" class="edge">
<title>reserving_purl&#45;&gt;decommissioned</title>
<path fill="none" stroke="black" d="M652.73,-1074.03C752.73,-1060.14 960,-1023.62 960,-959.58 960,-959.58 960,-959.58 960,-219.58 960,-136.05 692.4,-92.63 556.81,-76"/>
<polygon fill="black" stroke="black" points="556.84,-72.47 546.49,-74.75 556,-79.42 556.84,-72.47"/>
<text text-anchor="middle" x="1004" y="-585.88" font-family="Arial" font-size="14.00">decommission</text>
</g>
<!-- purl_reserved&#45;&gt;first_draft -->
<g id="edge19" class="edge">
<title>purl_reserved&#45;&gt;first_draft</title>
<path fill="none" stroke="black" d="M554.97,-940.11C495.66,-917.11 391.99,-876.91 332.8,-853.95"/>
<polygon fill="black" stroke="black" points="333.93,-850.64 323.34,-850.29 331.4,-857.17 333.93,-850.64"/>
<text text-anchor="middle" x="516" y="-893.38" font-family="Arial" font-size="14.00">update_metadata</text>
</g>
<!-- purl_reserved&#45;&gt;decommissioned -->
<g id="edge29" class="edge">
<title>purl_reserved&#45;&gt;decommissioned</title>
<path fill="none" stroke="black" d="M652.32,-955.57C727.46,-949.56 857,-926.21 857,-836.58 857,-836.58 857,-836.58 857,-219.58 857,-155.26 665.81,-105.57 555.73,-82.29"/>
<polygon fill="black" stroke="black" points="556.17,-78.81 545.67,-80.19 554.74,-85.66 556.17,-78.81"/>
<text text-anchor="middle" x="901" y="-524.38" font-family="Arial" font-size="14.00">decommission</text>
</g>
<!-- rejected&#45;&gt;version_draft -->
<g id="edge21" class="edge">
<title>rejected&#45;&gt;version_draft</title>
<path fill="none" stroke="black" d="M461.14,-561.73C447.16,-545.3 429.05,-524.03 413.59,-505.86"/>
<polygon fill="black" stroke="black" points="415.84,-503.11 406.69,-497.76 410.51,-507.65 415.84,-503.11"/>
<text text-anchor="middle" x="500" y="-524.38" font-family="Arial" font-size="14.00">no_review_workflow</text>
</g>
<!-- rejected&#45;&gt;pending_approval -->
<g id="edge10" class="edge">
<title>rejected&#45;&gt;pending_approval</title>
<path fill="none" stroke="black" d="M475.01,-624.48C471.55,-635.6 467.16,-647.84 462,-658.58 460.17,-662.38 458.11,-666.23 455.92,-670.03"/>
<polygon fill="black" stroke="black" points="452.83,-668.38 450.65,-678.74 458.82,-672 452.83,-668.38"/>
<text text-anchor="middle" x="524.5" y="-647.38" font-family="Arial" font-size="14.00">submit_for_review</text>
</g>
<!-- rejected&#45;&gt;rejected -->
<g id="edge18" class="edge">
<title>rejected&#45;&gt;rejected</title>
<path fill="none" stroke="black" d="M518.28,-600.83C529.28,-600.71 538,-596.96 538,-589.58 538,-584.73 534.24,-581.45 528.55,-579.74"/>
<polygon fill="black" stroke="black" points="528.66,-576.22 518.28,-578.33 527.71,-583.16 528.66,-576.22"/>
<text text-anchor="middle" x="591" y="-585.88" font-family="Arial" font-size="14.00">update_metadata</text>
</g>
<!-- rejected&#45;&gt;decommissioned -->
<g id="edge30" class="edge">
<title>rejected&#45;&gt;decommissioned</title>
<path fill="none" stroke="black" d="M516.67,-574.32C533.42,-565.44 552.81,-552.48 565,-535.58 583.29,-510.23 583,-498.84 583,-467.58 583,-467.58 583,-467.58 583,-219.58 583,-181.59 560.64,-146.05 536.75,-118.92"/>
<polygon fill="black" stroke="black" points="539.31,-116.53 529.99,-111.5 534.14,-121.25 539.31,-116.53"/>
<text text-anchor="middle" x="627" y="-339.88" font-family="Arial" font-size="14.00">decommission</text>
</g>
<!-- decommissioned&#45;&gt;decommissioned -->
<g id="edge31" class="edge">
<title>decommissioned&#45;&gt;decommissioned</title>
<path fill="none" stroke="black" d="M545.06,-83.03C556.67,-80.92 564.79,-75.5 564.79,-66.79 564.79,-60.8 560.95,-56.37 554.78,-53.5"/>
<polygon fill="black" stroke="black" points="555.64,-50.1 545.06,-50.55 553.61,-56.8 555.64,-50.1"/>
<text text-anchor="middle" x="608.79" y="-63.09" font-family="Arial" font-size="14.00">decommission</text>
</g>
</g>
</svg>
