<?xml version="1.0" encoding="UTF-8" standalone="no"?>
<!DOCTYPE svg PUBLIC "-//W3C//DTD SVG 1.1//EN"
 "http://www.w3.org/Graphics/SVG/1.1/DTD/svg11.dtd">
<!-- Generated by graphviz version 2.46.0 (20210118.1747)
 -->
<!-- Title: G Pages: 1 -->
<svg width="726pt" height="874pt"
 viewBox="0.00 0.00 726.23 873.75" xmlns="http://www.w3.org/2000/svg" xmlns:xlink="http://www.w3.org/1999/xlink">
<g id="graph0" class="graph" transform="scale(1 1) rotate(0) translate(4 869.75)">
<title>G</title>
<polygon fill="white" stroke="transparent" points="-4,4 -4,-869.75 722.23,-869.75 722.23,4 -4,4"/>
<!-- new -->
<g id="node1" class="node">
<title>new</title>
<ellipse fill="none" stroke="black" cx="275.1" cy="-789.15" rx="36" ry="36"/>
<text text-anchor="middle" x="275.1" y="-785.45" font-family="Arial" font-size="14.00">new</text>
</g>
<!-- first_draft -->
<g id="node3" class="node">
<title>first_draft</title>
<ellipse fill="none" stroke="black" cx="275.1" cy="-420.15" rx="38.54" ry="36"/>
<text text-anchor="middle" x="275.1" y="-416.45" font-family="Arial" font-size="14.00">first_draft</text>
</g>
<!-- new&#45;&gt;first_draft -->
<g id="edge14" class="edge">
<title>new&#45;&gt;first_draft</title>
<path fill="none" stroke="black" d="M270.21,-753.17C265.51,-717.72 258.75,-661.25 256.1,-612.15 253.4,-561.9 260.5,-504.47 266.77,-465.82"/>
<polygon fill="black" stroke="black" points="270.23,-466.37 268.43,-455.93 263.33,-465.21 270.23,-466.37"/>
<text text-anchor="middle" x="309.1" y="-600.95" font-family="Arial" font-size="14.00">update_metadata</text>
</g>
<!-- reserving_purl -->
<g id="node8" class="node">
<title>reserving_purl</title>
<ellipse fill="none" stroke="black" cx="364.1" cy="-666.15" rx="53.64" ry="36"/>
<text text-anchor="middle" x="364.1" y="-662.45" font-family="Arial" font-size="14.00">reserving_purl</text>
</g>
<!-- new&#45;&gt;reserving_purl -->
<g id="edge13" class="edge">
<title>new&#45;&gt;reserving_purl</title>
<path fill="none" stroke="black" d="M295.97,-759.78C307.54,-744.05 322.11,-724.24 334.8,-706.98"/>
<polygon fill="black" stroke="black" points="337.76,-708.87 340.86,-698.74 332.12,-704.73 337.76,-708.87"/>
<text text-anchor="middle" x="362.1" y="-723.95" font-family="Arial" font-size="14.00">reserve_purl</text>
</g>
<!-- starting_state -->
<g id="node2" class="node">
<title>starting_state</title>
<ellipse fill="black" stroke="black" cx="275.1" cy="-863.95" rx="1.8" ry="1.8"/>
</g>
<!-- starting_state&#45;&gt;new -->
<g id="edge1" class="edge">
<title>starting_state&#45;&gt;new</title>
<path fill="none" stroke="black" d="M275.1,-862.13C275.1,-859.12 275.1,-848.2 275.1,-835.74"/>
<polygon fill="black" stroke="black" points="278.6,-835.53 275.1,-825.53 271.6,-835.53 278.6,-835.53"/>
</g>
<!-- first_draft&#45;&gt;first_draft -->
<g id="edge15" class="edge">
<title>first_draft&#45;&gt;first_draft</title>
<path fill="none" stroke="black" d="M311.8,-431.38C322.92,-431.1 331.62,-427.35 331.62,-420.15 331.62,-415.3 327.7,-412.03 321.74,-410.31"/>
<polygon fill="black" stroke="black" points="322.19,-406.84 311.8,-408.91 321.21,-413.77 322.19,-406.84"/>
<text text-anchor="middle" x="384.62" y="-416.45" font-family="Arial" font-size="14.00">update_metadata</text>
</g>
<!-- pending_approval -->
<g id="node5" class="node">
<title>pending_approval</title>
<ellipse fill="none" stroke="black" cx="69.1" cy="-297.15" rx="65.36" ry="36"/>
<text text-anchor="middle" x="69.1" y="-293.45" font-family="Arial" font-size="14.00">pending_approval</text>
</g>
<!-- first_draft&#45;&gt;pending_approval -->
<g id="edge8" class="edge">
<title>first_draft&#45;&gt;pending_approval</title>
<path fill="none" stroke="black" d="M242.92,-400.24C210.65,-381.29 160.41,-351.78 122.23,-329.35"/>
<polygon fill="black" stroke="black" points="123.69,-326.15 113.3,-324.1 120.15,-332.19 123.69,-326.15"/>
<text text-anchor="middle" x="240.6" y="-354.95" font-family="Arial" font-size="14.00">submit_for_review</text>
</g>
<!-- depositing -->
<g id="node6" class="node">
<title>depositing</title>
<ellipse fill="none" stroke="black" cx="423.1" cy="-174.15" rx="41.31" ry="36"/>
<text text-anchor="middle" x="423.1" y="-170.45" font-family="Arial" font-size="14.00">depositing</text>
</g>
<!-- first_draft&#45;&gt;depositing -->
<g id="edge2" class="edge">
<title>first_draft&#45;&gt;depositing</title>
<path fill="none" stroke="black" d="M309.58,-403.96C337.53,-389.78 375.53,-365.88 396.1,-333.15 417.28,-299.45 423.22,-254.09 424.34,-220.61"/>
<polygon fill="black" stroke="black" points="427.85,-220.26 424.55,-210.19 420.85,-220.12 427.85,-220.26"/>
<text text-anchor="middle" x="462.6" y="-293.45" font-family="Arial" font-size="14.00">begin_deposit</text>
</g>
<!-- version_draft -->
<g id="node4" class="node">
<title>version_draft</title>
<ellipse fill="none" stroke="black" cx="544.1" cy="-420.15" rx="50.25" ry="36"/>
<text text-anchor="middle" x="544.1" y="-416.45" font-family="Arial" font-size="14.00">version_draft</text>
</g>
<!-- version_draft&#45;&gt;version_draft -->
<g id="edge16" class="edge">
<title>version_draft&#45;&gt;version_draft</title>
<path fill="none" stroke="black" d="M591.86,-431.22C603.54,-430.4 612.23,-426.71 612.23,-420.15 612.23,-415.64 608.12,-412.48 601.76,-410.68"/>
<polygon fill="black" stroke="black" points="602.29,-407.22 591.86,-409.07 601.16,-414.13 602.29,-407.22"/>
<text text-anchor="middle" x="665.23" y="-416.45" font-family="Arial" font-size="14.00">update_metadata</text>
</g>
<!-- version_draft&#45;&gt;pending_approval -->
<g id="edge9" class="edge">
<title>version_draft&#45;&gt;pending_approval</title>
<path fill="none" stroke="black" d="M500.54,-402.14C483.96,-396.01 464.8,-389.33 447.1,-384.15 341.71,-353.27 217.1,-326.82 140.59,-311.69"/>
<polygon fill="black" stroke="black" points="141.07,-308.22 130.58,-309.72 139.72,-315.09 141.07,-308.22"/>
<text text-anchor="middle" x="430.6" y="-354.95" font-family="Arial" font-size="14.00">submit_for_review</text>
</g>
<!-- version_draft&#45;&gt;depositing -->
<g id="edge3" class="edge">
<title>version_draft&#45;&gt;depositing</title>
<path fill="none" stroke="black" d="M542.94,-384.14C540.51,-350.7 533.28,-299.81 512.1,-261.15 500.02,-239.09 480.37,-219.22 462.61,-204.15"/>
<polygon fill="black" stroke="black" points="464.56,-201.22 454.62,-197.57 460.12,-206.63 464.56,-201.22"/>
<text text-anchor="middle" x="578.6" y="-293.45" font-family="Arial" font-size="14.00">begin_deposit</text>
</g>
<!-- pending_approval&#45;&gt;pending_approval -->
<g id="edge11" class="edge">
<title>pending_approval&#45;&gt;pending_approval</title>
<path fill="none" stroke="black" d="M134.17,-302.38C145.03,-301.64 152.53,-299.9 152.53,-297.15 152.53,-295.38 149.45,-294.03 144.38,-293.1"/>
<polygon fill="black" stroke="black" points="144.5,-289.59 134.17,-291.92 143.7,-296.54 144.5,-289.59"/>
<text text-anchor="middle" x="208.03" y="-293.45" font-family="Arial" font-size="14.00">submit_for_review</text>
</g>
<!-- pending_approval&#45;&gt;pending_approval -->
<g id="edge17" class="edge">
<title>pending_approval&#45;&gt;pending_approval</title>
<path fill="none" stroke="black" d="M132.18,-307.01C190.18,-310.57 263.53,-307.28 263.53,-297.15 263.53,-287.58 198.25,-284.12 142.17,-286.75"/>
<polygon fill="black" stroke="black" points="141.98,-283.25 132.18,-287.29 142.36,-290.24 141.98,-283.25"/>
<text text-anchor="middle" x="316.53" y="-293.45" font-family="Arial" font-size="14.00">update_metadata</text>
</g>
<!-- pending_approval&#45;&gt;depositing -->
<g id="edge4" class="edge">
<title>pending_approval&#45;&gt;depositing</title>
<path fill="none" stroke="black" d="M124.03,-277.37C192.93,-253.82 309.95,-213.82 375.31,-191.48"/>
<polygon fill="black" stroke="black" points="376.63,-194.73 384.96,-188.18 374.37,-188.11 376.63,-194.73"/>
<text text-anchor="middle" x="310.6" y="-231.95" font-family="Arial" font-size="14.00">begin_deposit</text>
</g>
<!-- rejected -->
<g id="node10" class="node">
<title>rejected</title>
<ellipse fill="none" stroke="black" cx="69.1" cy="-174.15" rx="36" ry="36"/>
<text text-anchor="middle" x="69.1" y="-170.45" font-family="Arial" font-size="14.00">rejected</text>
</g>
<!-- pending_approval&#45;&gt;rejected -->
<g id="edge12" class="edge">
<title>pending_approval&#45;&gt;rejected</title>
<path fill="none" stroke="black" d="M101.24,-265.43C106.51,-258.64 111.19,-251.08 114.1,-243.15 119.06,-229.65 113,-216.16 103.89,-204.8"/>
<polygon fill="black" stroke="black" points="106.46,-202.42 97.19,-197.29 101.24,-207.08 106.46,-202.42"/>
<text text-anchor="middle" x="133.1" y="-231.95" font-family="Arial" font-size="14.00">reject</text>
</g>
<!-- depositing&#45;&gt;depositing -->
<g id="edge7" class="edge">
<title>depositing&#45;&gt;depositing</title>
<path fill="none" stroke="black" d="M462.36,-185.35C473.59,-184.91 482.26,-181.18 482.26,-174.15 482.26,-169.42 478.35,-166.19 472.37,-164.44"/>
<polygon fill="black" stroke="black" points="472.76,-160.96 462.36,-162.94 471.73,-167.88 472.76,-160.96"/>
<text text-anchor="middle" x="522.26" y="-170.45" font-family="Arial" font-size="14.00">pid_assigned</text>
</g>
<!-- deposited -->
<g id="node7" class="node">
<title>deposited</title>
<ellipse fill="none" stroke="black" cx="423.1" cy="-43.57" rx="39.64" ry="39.64"/>
<ellipse fill="none" stroke="black" cx="423.1" cy="-43.57" rx="43.65" ry="43.65"/>
<text text-anchor="middle" x="423.1" y="-39.87" font-family="Arial" font-size="14.00">deposited</text>
</g>
<!-- depositing&#45;&gt;deposited -->
<g id="edge5" class="edge">
<title>depositing&#45;&gt;deposited</title>
<path fill="none" stroke="black" d="M423.1,-138.01C423.1,-125.57 423.1,-111.28 423.1,-97.68"/>
<polygon fill="black" stroke="black" points="426.6,-97.45 423.1,-87.45 419.6,-97.45 426.6,-97.45"/>
<text text-anchor="middle" x="476.6" y="-108.95" font-family="Arial" font-size="14.00">deposit_complete</text>
</g>
<!-- purl_reserved -->
<g id="node9" class="node">
<title>purl_reserved</title>
<ellipse fill="none" stroke="black" cx="363.1" cy="-543.15" rx="52.47" ry="36"/>
<text text-anchor="middle" x="363.1" y="-539.45" font-family="Arial" font-size="14.00">purl_reserved</text>
</g>
<!-- reserving_purl&#45;&gt;purl_reserved -->
<g id="edge6" class="edge">
<title>reserving_purl&#45;&gt;purl_reserved</title>
<path fill="none" stroke="black" d="M365.91,-629.85C366.25,-619.33 366.4,-607.77 366.1,-597.15 366.03,-594.61 365.94,-592 365.84,-589.37"/>
<polygon fill="black" stroke="black" points="369.32,-589.03 365.37,-579.2 362.33,-589.35 369.32,-589.03"/>
<text text-anchor="middle" x="406.1" y="-600.95" font-family="Arial" font-size="14.00">pid_assigned</text>
</g>
<!-- purl_reserved&#45;&gt;first_draft -->
<g id="edge19" class="edge">
<title>purl_reserved&#45;&gt;first_draft</title>
<path fill="none" stroke="black" d="M340.21,-510.67C328.68,-494.81 314.6,-475.46 302.5,-458.81"/>
<polygon fill="black" stroke="black" points="305.08,-456.42 296.37,-450.39 299.42,-460.53 305.08,-456.42"/>
<text text-anchor="middle" x="377.1" y="-477.95" font-family="Arial" font-size="14.00">update_metadata</text>
</g>
<!-- rejected&#45;&gt;pending_approval -->
<g id="edge10" class="edge">
<title>rejected&#45;&gt;pending_approval</title>
<path fill="none" stroke="black" d="M36.82,-190.28C15.33,-202.68 -7.21,-221.64 3.1,-243.15 6.63,-250.51 11.74,-257.17 17.57,-263.09"/>
<polygon fill="black" stroke="black" points="15.55,-265.99 25.28,-270.19 20.29,-260.84 15.55,-265.99"/>
<text text-anchor="middle" x="58.6" y="-231.95" font-family="Arial" font-size="14.00">submit_for_review</text>
</g>
<!-- rejected&#45;&gt;rejected -->
<g id="edge18" class="edge">
<title>rejected&#45;&gt;rejected</title>
<path fill="none" stroke="black" d="M103.38,-185.39C114.38,-185.28 123.1,-181.53 123.1,-174.15 123.1,-169.3 119.35,-166.02 113.66,-164.31"/>
<polygon fill="black" stroke="black" points="113.76,-160.79 103.38,-162.9 112.81,-167.72 113.76,-160.79"/>
<text text-anchor="middle" x="176.1" y="-170.45" font-family="Arial" font-size="14.00">update_metadata</text>
</g>
</g>
</svg>
