<svg height="1289pt" viewBox="0 0 1360 1289.18" width="1360pt" xmlns="http://www.w3.org/2000/svg"><g transform="translate(4 1285.18)"><path d="m-4 4v-1289.18h1360v1289.18z" fill="#fff"/><ellipse cx="369" cy="-1204.58" fill="none" rx="36" ry="36" stroke="#000"/><text font-family="Arial" font-size="14" text-anchor="middle" x="369" y="-1200.88">new</text><ellipse cx="369" cy="-835.58" fill="none" rx="38.54" ry="36" stroke="#000"/><text font-family="Arial" font-size="14" text-anchor="middle" x="369" y="-831.88">first_draft</text><path d="m369-1168.39v285.12" fill="none" stroke="#000"/><path d="m372.5-883.45-3.5 10-3.5-10z" stroke="#000"/><text font-family="Arial" font-size="14" text-anchor="middle" x="422" y="-1016.38">update_metadata</text><ellipse cx="838" cy="-1081.58" fill="none" rx="53.64" ry="36" stroke="#000"/><text font-family="Arial" font-size="14" text-anchor="middle" x="838" y="-1077.88">reserving_purl</text><path d="m403.87-1194.58c79.21 20.43 273.53 70.57 373.12 96.26" fill="none" stroke="#000"/><path d="m777.79-1101.73 8.81 5.89-10.56.89z" stroke="#000"/><text font-family="Arial" font-size="14" text-anchor="middle" x="670" y="-1139.38">reserve_purl</text><ellipse cx="567" cy="-66.79" fill="none" rx="62.59" ry="62.59" stroke="#000"/><ellipse cx="567" cy="-66.79" fill="none" rx="66.58" ry="66.58" stroke="#000"/><text font-family="Arial" font-size="14" text-anchor="middle" x="567" y="-63.09">decommissioned</text><path d="m332.95-1199.57c-92.85 11.34-332.95 47.38-332.95 116.99v863c0 100.04 333.51 135.91 488.96 147.2" fill="none" stroke="#000"/><path d="m489.05-75.88 9.73 4.2-10.22 2.78z" stroke="#000"/><text font-family="Arial" font-size="14" text-anchor="middle" x="44" y="-647.38">decommission</text><g stroke="#000"><ellipse cx="369" cy="-1279.38" rx="1.8" ry="1.8"/><path d="m369-1277.12v24.95" fill="none"/><path d="m372.5-1252.37-3.5 10-3.5-10z"/><path d="m405.96-847.09c11 .35 19.56 4.18 19.56 11.51 0 4.58-3.34 7.8-8.54 9.65" fill="none"/><path d="m417.9-822.54-10.44-1.79 9.27-5.11z"/></g><text font-family="Arial" font-size="14" text-anchor="middle" x="478.52" y="-831.88">update_metadata</text><ellipse cx="699" cy="-712.58" fill="none" rx="65.36" ry="36" stroke="#000"/><text font-family="Arial" font-size="14" text-anchor="middle" x="699" y="-708.88">pending_approval</text><path d="m404.94-821.4c55.03 20.17 160.95 59.01 229.52 84.15" fill="none" stroke="#000"/><path d="m635.52-740.58 8.18 6.73-10.59-.16z" stroke="#000"/><text font-family="Arial" font-size="14" text-anchor="middle" x="609.5" y="-770.38">submit_for_review</text><ellipse cx="392" cy="-343.58" fill="none" rx="41.31" ry="36" stroke="#000"/><text font-family="Arial" font-size="14" text-anchor="middle" x="392" y="-339.88">depositing</text><path d="m370.65-799.34c4.08 86.77 14.59 310.76 19.17 408.27" fill="none" stroke="#000"/><path d="m393.3-391.49-3.03 10.15-3.96-9.83z" stroke="#000"/><text font-family="Arial" font-size="14" text-anchor="middle" x="425.5" y="-585.88">begin_deposit</text><ellipse cx="113" cy="-712.58" fill="none" rx="84.9" ry="36" stroke="#000"/><text font-family="Arial" font-size="14" text-anchor="middle" x="113" y="-708.88">globus_setup_first_draft</text><path d="m330.13-834.46c-79.93 1.15-258.41 8.72-296.13 52.88-11 12.88-3.4 25.42 10.67 36.17" fill="none" stroke="#000"/><path d="m46.6-748.34 6.3 8.52-10.24-2.73z" stroke="#000"/><text font-family="Arial" font-size="14" text-anchor="middle" x="102" y="-770.38">globus_setup_pending</text><path d="m360.84-800.14c-18.64 78.88-63.12 268.11-67.84 297.56-6.82 42.53-9 53.43-9 96.5v186.5c0 93.55 121.57 129.67 205.35 143.46" fill="none" stroke="#000"/><path d="m489.81-79.59 9.34 5-10.42 1.92z" stroke="#000"/><text font-family="Arial" font-size="14" text-anchor="middle" x="337" y="-462.88">decommission</text><ellipse cx="761" cy="-466.58" fill="none" rx="50.25" ry="36" stroke="#000"/><text font-family="Arial" font-size="14" text-anchor="middle" x="761" y="-462.88">version_draft</text><path d="m809.06-477.91c11.53.89 20.07 4.66 20.07 11.33 0 4.27-3.51 7.36-9.06 9.25" fill="none" stroke="#000"/><path d="m821.03-453.94-10.48-1.59 9.18-5.29z" stroke="#000"/><text font-family="Arial" font-size="14" text-anchor="middle" x="882.13" y="-462.88">update_metadata</text><path d="m804.81-484.5c29.07-13.81 64.93-36.41 82.19-69.08 14.95-28.3 17.29-45.07 0-72-25.28-39.37-73.56-60.94-114.86-72.63" fill="none" stroke="#000"/><path d="m771.48-694.77-8.76-5.96 10.56-.8z" stroke="#000"/><text font-family="Arial" font-size="14" text-anchor="middle" x="954.5" y="-585.88">submit_for_review</text><path d="m715.38-450.62c-69.78 22.88-202.5 66.4-274.3 89.95" fill="none" stroke="#000"/><path d="m442.55-357.47-10.59-.21 8.41-6.44z" stroke="#000"/><text font-family="Arial" font-size="14" text-anchor="middle" x="641.5" y="-401.38">begin_deposit</text><ellipse cx="769" cy="-343.58" fill="none" rx="96.06" ry="36" stroke="#000"/><text font-family="Arial" font-size="14" text-anchor="middle" x="769" y="-339.88">globus_setup_version_draft</text><path d="m724.67-441.3c-13.49 12.21-23.93 27.79-16.67 43.72 2.21 4.85 5.11 9.43 8.44 13.71" fill="none" stroke="#000"/><path d="m718.82-386.46 4 9.81-9.24-5.18z" stroke="#000"/><text font-family="Arial" font-size="14" text-anchor="middle" x="776" y="-401.38">globus_setup_pending</text><path d="m811.09-461.05c61.37 6.65 160.13 21.33 183.91 48.47 13.31 15.19 16.93 83.88 3 105-11.18 16.95-24.12 8.37-42 18-74.55 40.17-85.79 62.43-159 105-52.37 30.45-113.61 61.33-159.73 83.68" fill="none" stroke="#000"/><path d="m638.97-97.83-10.53 1.2 7.49-7.5z" stroke="#000"/><text font-family="Arial" font-size="14" text-anchor="middle" x="1000" y="-278.38">decommission</text><path d="m716.89-677.5c2.92 6.2 5.76 12.69 8.11 18.92 17.92 47.45 27.21 105.02 31.82 144.48" fill="none" stroke="#000"/><path d="m760.29-514.55-2.37 10.32-4.58-9.55z" stroke="#000"/><text font-family="Arial" font-size="14" text-anchor="middle" x="813" y="-585.88">no_review_workflow</text><path d="m764.06-717.94c10.87.75 18.37 2.54 18.37 5.36 0 1.68-2.65 2.99-7.07 3.93" fill="none" stroke="#000"/><path d="m775.92-705.19-10.36-2.22 9.49-4.73z" stroke="#000"/><text font-family="Arial" font-size="14" text-anchor="middle" x="837.93" y="-708.88">submit_for_review</text><path d="m762.08-722.69c58-3.65 131.35-.28 131.35 10.11 0 9.72-64.2 13.3-119.97 10.73" fill="none" stroke="#000"/><path d="m773.39-698.35-9.8-4.04 10.18-2.95z" stroke="#000"/><text font-family="Arial" font-size="14" text-anchor="middle" x="946.43" y="-708.88">update_metadata</text><path d="m640.99-695.73c-26.96 8.75-58.78 21.14-84.99 37.15-18.52 11.32-22.34 16.13-36 33-3.65 4.51-50.48 84.77-53 90-28.55 59.18-28.63 76.99-53 138-1.2 2.99-2.44 6.07-3.7 9.18" fill="none" stroke="#000"/><path d="m413.59-387.21-7.03 7.92.55-10.58z" stroke="#000"/><text font-family="Arial" font-size="14" text-anchor="middle" x="509.5" y="-524.38">begin_deposit</text><ellipse cx="565" cy="-589.58" fill="none" rx="36" ry="36" stroke="#000"/><text font-family="Arial" font-size="14" text-anchor="middle" x="565" y="-585.88">rejected</text><path d="m693.38-676.28c-3.25 11.46-8.35 23.57-16.38 32.7-17.27 19.65-43.4 32.59-66.08 40.76" fill="none" stroke="#000"/><path d="m612.14-599.54-10.59-.12 8.36-6.51z" stroke="#000"/><text font-family="Arial" font-size="14" text-anchor="middle" x="704" y="-647.38">reject</text><path d="m762.36-703.47c103.06 14.98 295.64 51.23 295.64 112.89v371c0 85.43-274.73 127.98-413.18 144.01" fill="none" stroke="#000"/><path d="m645.31-72.11-10.33-2.35 9.54-4.6z" stroke="#000"/><text font-family="Arial" font-size="14" text-anchor="middle" x="1102" y="-401.38">decommission</text><path d="m431.53-355.05c11.1.5 19.63 4.32 19.63 11.47 0 4.47-3.33 7.64-8.54 9.51" fill="none" stroke="#000"/><path d="m443.48-330.67-10.46-1.7 9.24-5.19z" stroke="#000"/><text font-family="Arial" font-size="14" text-anchor="middle" x="491.16" y="-339.88">pid_assigned</text><ellipse cx="484" cy="-220.58" fill="none" rx="39.65" ry="36" stroke="#000"/><text font-family="Arial" font-size="14" text-anchor="middle" x="484" y="-216.88">deposited</text><path d="m414.51-312.98c12.23 16.09 27.49 36.16 40.59 53.39" fill="none" stroke="#000"/><path d="m457.54-262.16 3.27 10.08-8.84-5.84z" stroke="#000"/><text font-family="Arial" font-size="14" text-anchor="middle" x="497.5" y="-278.38">deposit_complete</text><path d="m370.18-312.77c-21.41 33.23-47.58 87.62-23.18 128.19 31.09 51.7 93.63 81.74 144.11 98.37" fill="none" stroke="#000"/><path d="m492.09-89.57 8.48 6.35-10.59.32z" stroke="#000"/><text font-family="Arial" font-size="14" text-anchor="middle" x="391" y="-216.88">decommission</text><path d="m147.78-745.6c16.83-14.97 35.45-30.66 45.22-35.98 40.26-21.91 90.75-35.92 127.32-44" fill="none" stroke="#000"/><path d="m319.2-828.92 10.51 1.34-9.05 5.51z" stroke="#000"/><text font-family="Arial" font-size="14" text-anchor="middle" x="265" y="-770.38">globus_setup_complete</text><path d="m194.56-723.15c12.72 1.58 21.39 5.1 21.39 10.57 0 3.67-3.91 6.47-10.34 8.39" fill="none" stroke="#000"/><path d="m206.53-700.81-10.49-1.5 9.13-5.37z" stroke="#000"/><text font-family="Arial" font-size="14" text-anchor="middle" x="268.95" y="-708.88">update_metadata</text><path d="m130-677c10.12 23.72 21 56.25 21 86.42v371c0 71.31 218.46 118.98 338.76 139.82" fill="none" stroke="#000"/><path d="m490.32-83.21 9.27 5.13-10.44 1.77z" stroke="#000"/><text font-family="Arial" font-size="14" text-anchor="middle" x="195" y="-401.38">decommission</text><path d="m828.02-372.39c14.83-11.03 24.43-24.78 15.98-40.19-6.81-12.42-17.9-22.36-29.8-30.11" fill="none" stroke="#000"/><path d="m812.65-439.54-6.79-8.13 10.38 2.12z" stroke="#000"/><text font-family="Arial" font-size="14" text-anchor="middle" x="919" y="-401.38">globus_setup_complete</text><path d="m861.62-353.87c12.83 1.7 21.41 5.13 21.41 10.29 0 3.47-3.87 6.16-10.31 8.06" fill="none" stroke="#000"/><path d="m873.59-332.12-10.49-1.47 9.12-5.4z" stroke="#000"/><text font-family="Arial" font-size="14" text-anchor="middle" x="936.03" y="-339.88">update_metadata</text><path d="m744.03-308.61c-32.7 44.48-90.63 123.28-131.29 178.6" fill="none" stroke="#000"/><path d="m615.75-128.2-8.74 5.98 3.1-10.13z" stroke="#000"/><text font-family="Arial" font-size="14" text-anchor="middle" x="749" y="-216.88">decommission</text><path d="m465.97-187.98c-4.34 11.75-6.37 24.99-.97 36.4 7.95 16.82 21.11 31.39 35.38 43.45" fill="none" stroke="#000"/><path d="m502.56-110.86 5.62 8.97-9.99-3.5z" stroke="#000"/><text font-family="Arial" font-size="14" text-anchor="middle" x="509" y="-155.38">decommission</text><ellipse cx="838" cy="-958.58" fill="none" rx="52.47" ry="36" stroke="#000"/><text font-family="Arial" font-size="14" text-anchor="middle" x="838" y="-954.88">purl_reserved</text><path d="m838-1045.26v39.35" fill="none" stroke="#000"/><path d="m841.5-1006.25-3.5 10-3.5-10z" stroke="#000"/><text font-family="Arial" font-size="14" text-anchor="middle" x="878" y="-1016.38">pid_assigned</text><path d="m891.52-1076.67c114.42 9.83 372.48 40.49 372.48 117.09v740c0 125.49-436.78 147.42-618.82 151.11" fill="none" stroke="#000"/><path d="m645.41-64.97-10.07-3.31 9.94-3.69z" stroke="#000"/><text font-family="Arial" font-size="14" text-anchor="middle" x="1308" y="-585.88">decommission</text><path d="m789.14-944.97c-90.34 23.3-282.41 72.86-372.11 96" fill="none" stroke="#000"/><path d="m418.12-845.64-10.56-.89 8.81-5.89z" stroke="#000"/><text font-family="Arial" font-size="14" text-anchor="middle" x="685" y="-893.38">update_metadata</text><path d="m889.18-949.33c91.08 16.15 271.82 55.41 271.82 112.75v617c0 105.31-354.89 138.51-516.04 148.15" fill="none" stroke="#000"/><path d="m645.39-67.94-10.18-2.92 9.78-4.07z" stroke="#000"/><text font-family="Arial" font-size="14" text-anchor="middle" x="1205" y="-524.38">decommission</text><path d="m585.5-559.54c10.57 13.3 24.4 28.41 39.5 38.96 23.54 16.44 52.89 28.71 78.29 37.28" fill="none" stroke="#000"/><path d="m704.03-486.73 8.43 6.41-10.59.24z" stroke="#000"/><text font-family="Arial" font-size="14" text-anchor="middle" x="686" y="-524.38">no_review_workflow</text><path d="m558.17-625.42c-.42-11.43 1.27-23.63 7.83-33.16 13.81-20.06 36.54-32.52 59.33-40.27" fill="none" stroke="#000"/><path d="m624.09-702.14 10.59.39-8.52 6.3z" stroke="#000"/><text font-family="Arial" font-size="14" text-anchor="middle" x="621.5" y="-647.38">submit_for_review</text><path d="m599.54-601.1c10.88.17 19.46 4.01 19.46 11.52 0 4.58-3.19 7.79-8.14 9.64" fill="none" stroke="#000"/><path d="m611.47-576.49-10.44-1.81 9.29-5.1z" stroke="#000"/><text font-family="Arial" font-size="14" text-anchor="middle" x="672" y="-585.88">update_metadata</text><path d="m565.14-553.19c.32 83.33 1.12 293.51 1.56 408.06" fill="none" stroke="#000"/><path d="m570.2-145.2-3.46 10.01-3.54-9.99z" stroke="#000"/><text font-family="Arial" font-size="14" text-anchor="middle" x="611" y="-339.88">decommission</text><path d="m632.06-83.08c11.61 2.12 19.73 7.55 19.73 16.29 0 5.74-3.5 10.05-9.18 12.93" fill="none" stroke="#000"/><path d="m644.09-50.66-10.59-.3 8.47-6.37z" stroke="#000"/><text font-family="Arial" font-size="14" text-anchor="middle" x="695.79" y="-63.09">decommission</text></g></svg>