<?xml version="1.0" encoding="UTF-8" standalone="no"?>
<!DOCTYPE svg PUBLIC "-//W3C//DTD SVG 1.1//EN"
 "http://www.w3.org/Graphics/SVG/1.1/DTD/svg11.dtd">
<!-- Generated by graphviz version 7.0.4 (20221203.1631)
 -->
<!-- Title: G Pages: 1 -->
<svg width="2365pt" height="1412pt"
 viewBox="0.00 0.00 2365.00 1412.18" xmlns="http://www.w3.org/2000/svg" xmlns:xlink="http://www.w3.org/1999/xlink">
<g id="graph0" class="graph" transform="scale(1 1) rotate(0) translate(4 1408.18)">
<title>G</title>
<polygon fill="white" stroke="none" points="-4,4 -4,-1408.18 2361,-1408.18 2361,4 -4,4"/>
<!-- new -->
<g id="node1" class="node">
<title>new</title>
<ellipse fill="none" stroke="black" cx="1503" cy="-1327.58" rx="36" ry="36"/>
<text text-anchor="middle" x="1503" y="-1323.88" font-family="Arial" font-size="14.00">new</text>
</g>
<!-- first_draft -->
<g id="node3" class="node">
<title>first_draft</title>
<ellipse fill="none" stroke="black" cx="1503" cy="-958.58" rx="38.54" ry="36"/>
<text text-anchor="middle" x="1503" y="-954.88" font-family="Arial" font-size="14.00">first_draft</text>
</g>
<!-- new&#45;&gt;first_draft -->
<g id="edge22" class="edge">
<title>new&#45;&gt;first_draft</title>
<path fill="none" stroke="black" d="M1503,-1291.39C1503,-1224.89 1503,-1080.77 1503,-1006.27"/>
<polygon fill="black" stroke="black" points="1506.5,-1006.45 1503,-996.45 1499.5,-1006.45 1506.5,-1006.45"/>
<text text-anchor="middle" x="1556" y="-1139.38" font-family="Arial" font-size="14.00">update_metadata</text>
</g>
<!-- reserving_purl -->
<g id="node10" class="node">
<title>reserving_purl</title>
<ellipse fill="none" stroke="black" cx="1856" cy="-1204.58" rx="53.64" ry="36"/>
<text text-anchor="middle" x="1856" y="-1200.88" font-family="Arial" font-size="14.00">reserving_purl</text>
</g>
<!-- new&#45;&gt;reserving_purl -->
<g id="edge21" class="edge">
<title>new&#45;&gt;reserving_purl</title>
<path fill="none" stroke="black" d="M1537.17,-1314.87C1597.53,-1294.18 1723.64,-1250.95 1797.89,-1225.5"/>
<polygon fill="black" stroke="black" points="1798.7,-1228.92 1807.03,-1222.37 1796.43,-1222.3 1798.7,-1228.92"/>
<text text-anchor="middle" x="1739" y="-1262.38" font-family="Arial" font-size="14.00">reserve_purl</text>
</g>
<!-- decommissioned -->
<g id="node17" class="node">
<title>decommissioned</title>
<ellipse fill="none" stroke="black" cx="1264" cy="-66.79" rx="62.59" ry="62.59"/>
<ellipse fill="none" stroke="black" cx="1264" cy="-66.79" rx="66.58" ry="66.58"/>
<text text-anchor="middle" x="1264" y="-63.09" font-family="Arial" font-size="14.00">decommissioned</text>
</g>
<!-- new&#45;&gt;decommissioned -->
<g id="edge45" class="edge">
<title>new&#45;&gt;decommissioned</title>
<path fill="none" stroke="black" d="M1466.59,-1325.61C1237.06,-1319.27 0,-1281.58 0,-1205.58 0,-1205.58 0,-1205.58 0,-219.58 0,-99.54 910.34,-73.92 1185.9,-68.92"/>
<polygon fill="black" stroke="black" points="1185.93,-72.42 1195.87,-68.74 1185.8,-65.42 1185.93,-72.42"/>
<text text-anchor="middle" x="44" y="-708.88" font-family="Arial" font-size="14.00">decommission</text>
</g>
<!-- starting_state -->
<g id="node2" class="node">
<title>starting_state</title>
<ellipse fill="black" stroke="black" cx="1503" cy="-1402.38" rx="1.8" ry="1.8"/>
</g>
<!-- starting_state&#45;&gt;new -->
<g id="edge1" class="edge">
<title>starting_state&#45;&gt;new</title>
<path fill="none" stroke="black" d="M1503,-1400.12C1503,-1396.68 1503,-1386.66 1503,-1375.17"/>
<polygon fill="black" stroke="black" points="1506.5,-1375.37 1503,-1365.37 1499.5,-1375.37 1506.5,-1375.37"/>
</g>
<!-- first_draft&#45;&gt;first_draft -->
<g id="edge7" class="edge">
<title>first_draft&#45;&gt;first_draft</title>
<path fill="none" stroke="black" d="M1541.3,-964.3C1551.65,-964 1559.52,-962.09 1559.52,-958.58 1559.52,-956.55 1556.89,-955.05 1552.67,-954.1"/>
<polygon fill="black" stroke="black" points="1553.13,-950.63 1542.81,-953.02 1552.37,-957.58 1553.13,-950.63"/>
<text text-anchor="middle" x="1631.52" y="-954.88" font-family="Arial" font-size="14.00">globus_setup_complete</text>
</g>
<!-- first_draft&#45;&gt;first_draft -->
<g id="edge23" class="edge">
<title>first_draft&#45;&gt;first_draft</title>
<path fill="none" stroke="black" d="M1540.67,-966.81C1600.01,-973.12 1703.52,-970.38 1703.52,-958.58 1703.52,-947.49 1612.17,-944.4 1551.9,-949.3"/>
<polygon fill="black" stroke="black" points="1551.8,-945.8 1542.17,-950.21 1552.45,-952.77 1551.8,-945.8"/>
<text text-anchor="middle" x="1756.52" y="-954.88" font-family="Arial" font-size="14.00">update_metadata</text>
</g>
<!-- pending_approval -->
<g id="node5" class="node">
<title>pending_approval</title>
<ellipse fill="none" stroke="black" cx="737" cy="-835.58" rx="65.36" ry="36"/>
<text text-anchor="middle" x="737" y="-831.88" font-family="Arial" font-size="14.00">pending_approval</text>
</g>
<!-- first_draft&#45;&gt;pending_approval -->
<g id="edge16" class="edge">
<title>first_draft&#45;&gt;pending_approval</title>
<path fill="none" stroke="black" d="M1464.75,-951.54C1344.17,-932.49 970.54,-873.47 810.73,-848.23"/>
<polygon fill="black" stroke="black" points="811.52,-844.81 801.09,-846.7 810.43,-851.72 811.52,-844.81"/>
<text text-anchor="middle" x="1221.5" y="-893.38" font-family="Arial" font-size="14.00">submit_for_review</text>
</g>
<!-- depositing -->
<g id="node6" class="node">
<title>depositing</title>
<ellipse fill="none" stroke="black" cx="1429" cy="-343.58" rx="41.31" ry="36"/>
<text text-anchor="middle" x="1429" y="-339.88" font-family="Arial" font-size="14.00">depositing</text>
</g>
<!-- first_draft&#45;&gt;depositing -->
<g id="edge2" class="edge">
<title>first_draft&#45;&gt;depositing</title>
<path fill="none" stroke="black" d="M1491.74,-923.97C1482.48,-889.71 1474.47,-836.48 1499,-799.58 1529.06,-754.37 1577.49,-792.06 1610,-748.58 1635.95,-713.87 1624,-695.42 1624,-652.08 1624,-652.08 1624,-652.08 1624,-465.58 1624,-398.16 1538.8,-367 1481.03,-353.62"/>
<polygon fill="black" stroke="black" points="1481.87,-350.23 1471.36,-351.5 1480.38,-357.06 1481.87,-350.23"/>
<text text-anchor="middle" x="1667.5" y="-647.38" font-family="Arial" font-size="14.00">begin_deposit</text>
</g>
<!-- globus_setup_first_draft -->
<g id="node7" class="node">
<title>globus_setup_first_draft</title>
<ellipse fill="none" stroke="black" cx="1847" cy="-835.58" rx="84.9" ry="36"/>
<text text-anchor="middle" x="1847" y="-831.88" font-family="Arial" font-size="14.00">globus_setup_first_draft</text>
</g>
<!-- first_draft&#45;&gt;globus_setup_first_draft -->
<g id="edge5" class="edge">
<title>first_draft&#45;&gt;globus_setup_first_draft</title>
<path fill="none" stroke="black" d="M1541.62,-956.19C1649.97,-951.89 1950.9,-937.1 1980,-904.58 2001.09,-881.01 1971.9,-864.47 1935.55,-853.6"/>
<polygon fill="black" stroke="black" points="1936.65,-850.27 1926.08,-850.96 1934.77,-857.02 1936.65,-850.27"/>
<text text-anchor="middle" x="2055" y="-893.38" font-family="Arial" font-size="14.00">globus_setup_pending</text>
</g>
<!-- unzip_first_draft -->
<g id="node13" class="node">
<title>unzip_first_draft</title>
<ellipse fill="none" stroke="black" cx="1568" cy="-835.58" rx="59.75" ry="36"/>
<text text-anchor="middle" x="1568" y="-831.88" font-family="Arial" font-size="14.00">unzip_first_draft</text>
</g>
<!-- first_draft&#45;&gt;unzip_first_draft -->
<g id="edge30" class="edge">
<title>first_draft&#45;&gt;unzip_first_draft</title>
<path fill="none" stroke="black" d="M1497.94,-922.72C1497.76,-911.67 1499.15,-899.69 1504,-889.58 1507.51,-882.25 1512.59,-875.57 1518.36,-869.62"/>
<polygon fill="black" stroke="black" points="1520.54,-872.37 1525.47,-863 1515.77,-867.25 1520.54,-872.37"/>
<text text-anchor="middle" x="1520.5" y="-893.38" font-family="Arial" font-size="14.00">unzip</text>
</g>
<!-- unzip_pending_approval -->
<g id="node15" class="node">
<title>unzip_pending_approval</title>
<ellipse fill="none" stroke="black" cx="463" cy="-466.58" rx="86.57" ry="36"/>
<text text-anchor="middle" x="463" y="-462.88" font-family="Arial" font-size="14.00">unzip_pending_approval</text>
</g>
<!-- first_draft&#45;&gt;unzip_pending_approval -->
<g id="edge32" class="edge">
<title>first_draft&#45;&gt;unzip_pending_approval</title>
<path fill="none" stroke="black" d="M1464.05,-958.07C1264.4,-959.63 358.87,-955.17 200,-748.58 142.04,-673.21 216.48,-616.24 288,-553.58 316.61,-528.52 353.81,-508.89 386.55,-494.76"/>
<polygon fill="black" stroke="black" points="387.75,-498.05 395.61,-490.95 385.04,-491.59 387.75,-498.05"/>
<text text-anchor="middle" x="290.5" y="-708.88" font-family="Arial" font-size="14.00">unzip_and_submit_for_review</text>
</g>
<!-- unzip_depositing -->
<g id="node16" class="node">
<title>unzip_depositing</title>
<ellipse fill="none" stroke="black" cx="1534" cy="-466.58" rx="62.03" ry="36"/>
<text text-anchor="middle" x="1534" y="-462.88" font-family="Arial" font-size="14.00">unzip_depositing</text>
</g>
<!-- first_draft&#45;&gt;unzip_depositing -->
<g id="edge36" class="edge">
<title>first_draft&#45;&gt;unzip_depositing</title>
<path fill="none" stroke="black" d="M1475.04,-933.49C1467.37,-925.19 1460.06,-915.27 1456,-904.58 1420.04,-809.84 1391.36,-754.62 1456,-676.58 1483.41,-643.49 1523.59,-691.67 1551,-658.58 1555.25,-653.45 1551.3,-650.24 1551,-643.58 1549.04,-599.63 1543.95,-549.74 1539.84,-514.33"/>
<polygon fill="black" stroke="black" points="1543.32,-513.92 1538.67,-504.4 1536.37,-514.74 1543.32,-513.92"/>
<text text-anchor="middle" x="1533" y="-708.88" font-family="Arial" font-size="14.00">unzip_and_begin_deposit</text>
</g>
<!-- first_draft&#45;&gt;decommissioned -->
<g id="edge46" class="edge">
<title>first_draft&#45;&gt;decommissioned</title>
<path fill="none" stroke="black" d="M1464.09,-956.28C1239.23,-948.5 116,-906.19 116,-836.58 116,-836.58 116,-836.58 116,-219.58 116,-111.37 927.98,-77.81 1186.17,-69.87"/>
<polygon fill="black" stroke="black" points="1185.91,-73.38 1195.8,-69.58 1185.7,-66.39 1185.91,-73.38"/>
<text text-anchor="middle" x="160" y="-524.38" font-family="Arial" font-size="14.00">decommission</text>
</g>
<!-- version_draft -->
<g id="node4" class="node">
<title>version_draft</title>
<ellipse fill="none" stroke="black" cx="891" cy="-589.58" rx="50.25" ry="36"/>
<text text-anchor="middle" x="891" y="-585.88" font-family="Arial" font-size="14.00">version_draft</text>
</g>
<!-- version_draft&#45;&gt;version_draft -->
<g id="edge8" class="edge">
<title>version_draft&#45;&gt;version_draft</title>
<path fill="none" stroke="black" d="M940.91,-595.16C951.49,-594.59 959.13,-592.73 959.13,-589.58 959.13,-587.71 956.43,-586.29 952.03,-585.33"/>
<polygon fill="black" stroke="black" points="952.75,-581.89 942.41,-584.18 951.92,-588.84 952.75,-581.89"/>
<text text-anchor="middle" x="1031.13" y="-585.88" font-family="Arial" font-size="14.00">globus_setup_complete</text>
</g>
<!-- version_draft&#45;&gt;version_draft -->
<g id="edge24" class="edge">
<title>version_draft&#45;&gt;version_draft</title>
<path fill="none" stroke="black" d="M940.03,-598.56C1003.94,-603.88 1103.13,-600.89 1103.13,-589.58 1103.13,-578.91 1014.86,-575.65 951.21,-579.78"/>
<polygon fill="black" stroke="black" points="951.26,-576.27 941.54,-580.49 951.77,-583.25 951.26,-576.27"/>
<text text-anchor="middle" x="1156.13" y="-585.88" font-family="Arial" font-size="14.00">update_metadata</text>
</g>
<!-- version_draft&#45;&gt;pending_approval -->
<g id="edge17" class="edge">
<title>version_draft&#45;&gt;pending_approval</title>
<path fill="none" stroke="black" d="M915.3,-621.61C938.42,-655.19 966.09,-709.19 940,-748.58 911.59,-791.47 857.05,-813.03 811.65,-823.84"/>
<polygon fill="black" stroke="black" points="811.1,-820.37 802.1,-825.96 812.62,-827.2 811.1,-820.37"/>
<text text-anchor="middle" x="1006.5" y="-708.88" font-family="Arial" font-size="14.00">submit_for_review</text>
</g>
<!-- version_draft&#45;&gt;depositing -->
<g id="edge3" class="edge">
<title>version_draft&#45;&gt;depositing</title>
<path fill="none" stroke="black" d="M941.36,-587.9C1037.06,-585.68 1240.58,-576.17 1296,-535.58 1337.55,-505.15 1315.7,-472.93 1345,-430.58 1358.35,-411.29 1376.17,-392.35 1391.96,-377.19"/>
<polygon fill="black" stroke="black" points="1394.02,-380.06 1398.9,-370.65 1389.22,-374.96 1394.02,-380.06"/>
<text text-anchor="middle" x="1387.5" y="-462.88" font-family="Arial" font-size="14.00">begin_deposit</text>
</g>
<!-- globus_setup_version_draft -->
<g id="node8" class="node">
<title>globus_setup_version_draft</title>
<ellipse fill="none" stroke="black" cx="993" cy="-466.58" rx="96.06" ry="36"/>
<text text-anchor="middle" x="993" y="-462.88" font-family="Arial" font-size="14.00">globus_setup_version_draft</text>
</g>
<!-- version_draft&#45;&gt;globus_setup_version_draft -->
<g id="edge6" class="edge">
<title>version_draft&#45;&gt;globus_setup_version_draft</title>
<path fill="none" stroke="black" d="M846.89,-571.79C820.86,-559.28 795.74,-540.92 811,-520.58 822.06,-505.85 858.25,-493.86 895.47,-485.04"/>
<polygon fill="black" stroke="black" points="896.06,-488.5 905.03,-482.86 894.5,-481.67 896.06,-488.5"/>
<text text-anchor="middle" x="879" y="-524.38" font-family="Arial" font-size="14.00">globus_setup_pending</text>
</g>
<!-- unzip_version_draft -->
<g id="node14" class="node">
<title>unzip_version_draft</title>
<ellipse fill="none" stroke="black" cx="691" cy="-466.58" rx="70.91" ry="36"/>
<text text-anchor="middle" x="691" y="-462.88" font-family="Arial" font-size="14.00">unzip_version_draft</text>
</g>
<!-- version_draft&#45;&gt;unzip_version_draft -->
<g id="edge31" class="edge">
<title>version_draft&#45;&gt;unzip_version_draft</title>
<path fill="none" stroke="black" d="M840.63,-585.44C773.8,-580.11 661.29,-566.67 636,-535.58 627.53,-525.17 631.46,-513.84 640.25,-503.47"/>
<polygon fill="black" stroke="black" points="642.61,-506.06 647.12,-496.48 637.62,-501.16 642.61,-506.06"/>
<text text-anchor="middle" x="652.5" y="-524.38" font-family="Arial" font-size="14.00">unzip</text>
</g>
<!-- version_draft&#45;&gt;unzip_pending_approval -->
<g id="edge33" class="edge">
<title>version_draft&#45;&gt;unzip_pending_approval</title>
<path fill="none" stroke="black" d="M842,-581.48C789.59,-574.02 704.02,-562.18 630,-553.58 609.71,-551.22 460.72,-550.72 447,-535.58 441.22,-529.21 439.88,-521.15 440.95,-512.82"/>
<polygon fill="black" stroke="black" points="444.3,-513.86 443.22,-503.32 437.49,-512.23 444.3,-513.86"/>
<text text-anchor="middle" x="537.5" y="-524.38" font-family="Arial" font-size="14.00">unzip_and_submit_for_review</text>
</g>
<!-- version_draft&#45;&gt;unzip_depositing -->
<g id="edge37" class="edge">
<title>version_draft&#45;&gt;unzip_depositing</title>
<path fill="none" stroke="black" d="M941.17,-585.44C1021.93,-579.71 1185.44,-565.3 1321,-535.58 1324.82,-534.74 1408.16,-508.04 1469.44,-488.35"/>
<polygon fill="black" stroke="black" points="1470.33,-491.74 1478.78,-485.35 1468.18,-485.08 1470.33,-491.74"/>
<text text-anchor="middle" x="1442" y="-524.38" font-family="Arial" font-size="14.00">unzip_and_begin_deposit</text>
</g>
<!-- version_draft&#45;&gt;decommissioned -->
<g id="edge47" class="edge">
<title>version_draft&#45;&gt;decommissioned</title>
<path fill="none" stroke="black" d="M941.48,-588.49C1030.39,-587.2 1209.44,-579.1 1251,-535.58 1290.95,-493.74 1264,-463.92 1264,-406.08 1264,-406.08 1264,-406.08 1264,-219.58 1264,-195.35 1264,-168.94 1264,-145.05"/>
<polygon fill="black" stroke="black" points="1267.5,-145.05 1264,-135.05 1260.5,-145.05 1267.5,-145.05"/>
<text text-anchor="middle" x="1308" y="-339.88" font-family="Arial" font-size="14.00">decommission</text>
</g>
<!-- pending_approval&#45;&gt;version_draft -->
<g id="edge43" class="edge">
<title>pending_approval&#45;&gt;version_draft</title>
<path fill="none" stroke="black" d="M750.52,-800.12C764.22,-767.08 787.19,-716.47 814,-676.58 825.59,-659.34 840.42,-641.96 853.96,-627.38"/>
<polygon fill="black" stroke="black" points="856.38,-629.91 860.71,-620.24 851.3,-625.1 856.38,-629.91"/>
<text text-anchor="middle" x="875" y="-708.88" font-family="Arial" font-size="14.00">no_review_workflow</text>
</g>
<!-- pending_approval&#45;&gt;pending_approval -->
<g id="edge19" class="edge">
<title>pending_approval&#45;&gt;pending_approval</title>
<path fill="none" stroke="black" d="M802.06,-840.94C812.93,-840.19 820.43,-838.4 820.43,-835.58 820.43,-833.9 817.78,-832.59 813.36,-831.65"/>
<polygon fill="black" stroke="black" points="813.92,-828.19 803.56,-830.41 813.05,-835.14 813.92,-828.19"/>
<text text-anchor="middle" x="875.93" y="-831.88" font-family="Arial" font-size="14.00">submit_for_review</text>
</g>
<!-- pending_approval&#45;&gt;pending_approval -->
<g id="edge25" class="edge">
<title>pending_approval&#45;&gt;pending_approval</title>
<path fill="none" stroke="black" d="M800.08,-845.69C858.08,-849.34 931.43,-845.97 931.43,-835.58 931.43,-825.86 867.23,-822.28 811.46,-824.85"/>
<polygon fill="black" stroke="black" points="811.39,-821.35 801.59,-825.39 811.77,-828.34 811.39,-821.35"/>
<text text-anchor="middle" x="984.43" y="-831.88" font-family="Arial" font-size="14.00">update_metadata</text>
</g>
<!-- pending_approval&#45;&gt;depositing -->
<g id="edge4" class="edge">
<title>pending_approval&#45;&gt;depositing</title>
<path fill="none" stroke="black" d="M799.55,-824.25C867.2,-811.71 977.26,-787.31 1066,-748.58 1213.8,-684.07 1220.77,-609.58 1372,-553.58 1398.52,-543.76 1479.47,-556.95 1498,-535.58 1519.7,-510.56 1467.35,-508.25 1463,-502.58 1438.54,-470.67 1430.81,-424.97 1428.75,-390.93"/>
<polygon fill="black" stroke="black" points="1432.26,-391.21 1428.32,-381.38 1425.27,-391.52 1432.26,-391.21"/>
<text text-anchor="middle" x="1414.5" y="-585.88" font-family="Arial" font-size="14.00">begin_deposit</text>
</g>
<!-- rejected -->
<g id="node12" class="node">
<title>rejected</title>
<ellipse fill="none" stroke="black" cx="473" cy="-712.58" rx="36" ry="36"/>
<text text-anchor="middle" x="473" y="-708.88" font-family="Arial" font-size="14.00">rejected</text>
</g>
<!-- pending_approval&#45;&gt;rejected -->
<g id="edge20" class="edge">
<title>pending_approval&#45;&gt;rejected</title>
<path fill="none" stroke="black" d="M672.22,-829.82C604.68,-823.42 505.2,-809.46 480,-781.58 474.59,-775.6 471.56,-768 470.03,-760.06"/>
<polygon fill="black" stroke="black" points="473.52,-759.8 468.93,-750.25 466.56,-760.58 473.52,-759.8"/>
<text text-anchor="middle" x="497" y="-770.38" font-family="Arial" font-size="14.00">reject</text>
</g>
<!-- pending_approval&#45;&gt;unzip_pending_approval -->
<g id="edge35" class="edge">
<title>pending_approval&#45;&gt;unzip_pending_approval</title>
<path fill="none" stroke="black" d="M717.41,-800.79C697.49,-765.79 666.32,-709.24 643,-658.58 622.05,-613.07 641.77,-584.04 602,-553.58 572.72,-531.15 461.63,-563.04 437,-535.58 430.95,-528.83 430.33,-520.53 432.57,-512.07"/>
<polygon fill="black" stroke="black" points="435.82,-513.37 436.2,-502.79 429.3,-510.83 435.82,-513.37"/>
<text text-anchor="middle" x="733.5" y="-647.38" font-family="Arial" font-size="14.00">unzip_and_submit_for_review</text>
</g>
<!-- pending_approval&#45;&gt;unzip_depositing -->
<g id="edge38" class="edge">
<title>pending_approval&#45;&gt;unzip_depositing</title>
<path fill="none" stroke="black" d="M802.61,-833.55C956.43,-830.51 1330.49,-819.28 1372,-781.58 1418.14,-739.67 1355.07,-689.7 1397,-643.58 1416.88,-621.72 1436.97,-642.77 1461,-625.58 1500.51,-597.32 1504.9,-580.65 1523,-535.58 1525.69,-528.88 1527.72,-521.56 1529.26,-514.28"/>
<polygon fill="black" stroke="black" points="1532.7,-514.93 1531.02,-504.46 1525.81,-513.69 1532.7,-514.93"/>
<text text-anchor="middle" x="1474" y="-647.38" font-family="Arial" font-size="14.00">unzip_and_begin_deposit</text>
</g>
<!-- pending_approval&#45;&gt;decommissioned -->
<g id="edge48" class="edge">
<title>pending_approval&#45;&gt;decommissioned</title>
<path fill="none" stroke="black" d="M672.04,-829.62C610.88,-823.41 517.49,-809.92 441,-781.58 413.91,-771.54 403.71,-770.59 385,-748.58 362.76,-722.42 382.42,-699.66 357,-676.58 335.12,-656.72 315.79,-677.39 293,-658.58 243.33,-617.59 228,-593.48 228,-529.08 228,-529.08 228,-529.08 228,-219.58 228,-122.83 944.45,-82.02 1185.75,-71.02"/>
<polygon fill="black" stroke="black" points="1185.88,-74.52 1195.71,-70.57 1185.56,-67.53 1185.88,-74.52"/>
<text text-anchor="middle" x="272" y="-462.88" font-family="Arial" font-size="14.00">decommission</text>
</g>
<!-- depositing&#45;&gt;depositing -->
<g id="edge15" class="edge">
<title>depositing&#45;&gt;depositing</title>
<path fill="none" stroke="black" d="M1468.53,-355.05C1479.63,-354.55 1488.16,-350.73 1488.16,-343.58 1488.16,-339.11 1484.83,-335.94 1479.62,-334.07"/>
<polygon fill="black" stroke="black" points="1480.48,-330.67 1470.02,-332.37 1479.26,-337.56 1480.48,-330.67"/>
<text text-anchor="middle" x="1528.16" y="-339.88" font-family="Arial" font-size="14.00">pid_assigned</text>
</g>
<!-- deposited -->
<g id="node9" class="node">
<title>deposited</title>
<ellipse fill="none" stroke="black" cx="1456" cy="-220.58" rx="39.65" ry="36"/>
<text text-anchor="middle" x="1456" y="-216.88" font-family="Arial" font-size="14.00">deposited</text>
</g>
<!-- depositing&#45;&gt;deposited -->
<g id="edge13" class="edge">
<title>depositing&#45;&gt;deposited</title>
<path fill="none" stroke="black" d="M1436.74,-307.91C1439.56,-295.25 1442.8,-280.73 1445.81,-267.26"/>
<polygon fill="black" stroke="black" points="1449.17,-268.26 1447.93,-257.74 1442.34,-266.73 1449.17,-268.26"/>
<text text-anchor="middle" x="1498.5" y="-278.38" font-family="Arial" font-size="14.00">deposit_complete</text>
</g>
<!-- depositing&#45;&gt;decommissioned -->
<g id="edge49" class="edge">
<title>depositing&#45;&gt;decommissioned</title>
<path fill="none" stroke="black" d="M1394.21,-323.4C1369.81,-308.26 1338.24,-284.98 1319,-256.58 1306.2,-237.69 1291.78,-187.05 1280.91,-142.97"/>
<polygon fill="black" stroke="black" points="1284.34,-142.29 1278.58,-133.4 1277.54,-143.95 1284.34,-142.29"/>
<text text-anchor="middle" x="1363" y="-216.88" font-family="Arial" font-size="14.00">decommission</text>
</g>
<!-- globus_setup_first_draft&#45;&gt;first_draft -->
<g id="edge9" class="edge">
<title>globus_setup_first_draft&#45;&gt;first_draft</title>
<path fill="none" stroke="black" d="M1777.35,-856.68C1746.89,-865.94 1710.91,-877.55 1679,-889.58 1663.55,-895.41 1660.3,-898.36 1645,-904.58 1613.48,-917.4 1577.56,-930.8 1549.74,-940.91"/>
<polygon fill="black" stroke="black" points="1548.75,-937.55 1540.54,-944.24 1551.13,-944.13 1548.75,-937.55"/>
<text text-anchor="middle" x="1751" y="-893.38" font-family="Arial" font-size="14.00">globus_setup_complete</text>
</g>
<!-- globus_setup_first_draft&#45;&gt;first_draft -->
<g id="edge11" class="edge">
<title>globus_setup_first_draft&#45;&gt;first_draft</title>
<path fill="none" stroke="black" d="M1842.02,-871.89C1838.58,-883.91 1832.78,-896.37 1823,-904.58 1782.9,-938.2 1632.36,-950.94 1552.87,-955.4"/>
<polygon fill="black" stroke="black" points="1552.99,-951.89 1543.19,-955.91 1553.37,-958.88 1552.99,-951.89"/>
<text text-anchor="middle" x="1902" y="-893.38" font-family="Arial" font-size="14.00">globus_setup_aborted</text>
</g>
<!-- globus_setup_first_draft&#45;&gt;globus_setup_first_draft -->
<g id="edge27" class="edge">
<title>globus_setup_first_draft&#45;&gt;globus_setup_first_draft</title>
<path fill="none" stroke="black" d="M1928.56,-846.15C1941.28,-844.57 1949.95,-841.05 1949.95,-835.58 1949.95,-831.91 1946.04,-829.11 1939.61,-827.19"/>
<polygon fill="black" stroke="black" points="1940.53,-823.81 1930.04,-825.31 1939.17,-830.68 1940.53,-823.81"/>
<text text-anchor="middle" x="2002.95" y="-831.88" font-family="Arial" font-size="14.00">update_metadata</text>
</g>
<!-- globus_setup_first_draft&#45;&gt;decommissioned -->
<g id="edge50" class="edge">
<title>globus_setup_first_draft&#45;&gt;decommissioned</title>
<path fill="none" stroke="black" d="M1847.45,-799.11C1847.71,-774.99 1848,-742.36 1848,-713.58 1848,-713.58 1848,-713.58 1848,-219.58 1848,-116.19 1500.81,-82 1341.82,-71.76"/>
<polygon fill="black" stroke="black" points="1342.42,-68.29 1332.22,-71.16 1341.98,-75.27 1342.42,-68.29"/>
<text text-anchor="middle" x="1892" y="-462.88" font-family="Arial" font-size="14.00">decommission</text>
</g>
<!-- globus_setup_version_draft&#45;&gt;version_draft -->
<g id="edge10" class="edge">
<title>globus_setup_version_draft&#45;&gt;version_draft</title>
<path fill="none" stroke="black" d="M971.93,-501.84C964.54,-512.98 955.85,-525.15 947,-535.58 941.88,-541.61 936.14,-547.69 930.33,-553.46"/>
<polygon fill="black" stroke="black" points="928.26,-550.59 923.52,-560.06 933.14,-555.62 928.26,-550.59"/>
<text text-anchor="middle" x="1031" y="-524.38" font-family="Arial" font-size="14.00">globus_setup_complete</text>
</g>
<!-- globus_setup_version_draft&#45;&gt;version_draft -->
<g id="edge12" class="edge">
<title>globus_setup_version_draft&#45;&gt;version_draft</title>
<path fill="none" stroke="black" d="M1072.42,-487.33C1101.45,-498.47 1123.57,-514.45 1107,-535.58 1088.01,-559.79 1008.95,-574.4 951.97,-581.98"/>
<polygon fill="black" stroke="black" points="951.87,-578.46 942.4,-583.21 952.76,-585.4 951.87,-578.46"/>
<text text-anchor="middle" x="1180" y="-524.38" font-family="Arial" font-size="14.00">globus_setup_aborted</text>
</g>
<!-- globus_setup_version_draft&#45;&gt;globus_setup_version_draft -->
<g id="edge28" class="edge">
<title>globus_setup_version_draft&#45;&gt;globus_setup_version_draft</title>
<path fill="none" stroke="black" d="M1085.62,-476.87C1098.45,-475.17 1107.03,-471.74 1107.03,-466.58 1107.03,-463.11 1103.16,-460.42 1096.72,-458.52"/>
<polygon fill="black" stroke="black" points="1097.59,-455.12 1087.1,-456.59 1096.22,-461.99 1097.59,-455.12"/>
<text text-anchor="middle" x="1160.03" y="-462.88" font-family="Arial" font-size="14.00">update_metadata</text>
</g>
<!-- globus_setup_version_draft&#45;&gt;decommissioned -->
<g id="edge51" class="edge">
<title>globus_setup_version_draft&#45;&gt;decommissioned</title>
<path fill="none" stroke="black" d="M1016.34,-431.32C1061.69,-364.75 1162.36,-216.98 1220.42,-131.76"/>
<polygon fill="black" stroke="black" points="1223.18,-133.93 1225.91,-123.7 1217.39,-129.99 1223.18,-133.93"/>
<text text-anchor="middle" x="1167" y="-278.38" font-family="Arial" font-size="14.00">decommission</text>
</g>
<!-- deposited&#45;&gt;decommissioned -->
<g id="edge52" class="edge">
<title>deposited&#45;&gt;decommissioned</title>
<path fill="none" stroke="black" d="M1426.42,-196.2C1399.48,-174.9 1358.85,-142.78 1324.97,-115.99"/>
<polygon fill="black" stroke="black" points="1327.26,-113.34 1317.25,-109.89 1322.92,-118.83 1327.26,-113.34"/>
<text text-anchor="middle" x="1433" y="-155.38" font-family="Arial" font-size="14.00">decommission</text>
</g>
<!-- purl_reserved -->
<g id="node11" class="node">
<title>purl_reserved</title>
<ellipse fill="none" stroke="black" cx="1856" cy="-1081.58" rx="52.47" ry="36"/>
<text text-anchor="middle" x="1856" y="-1077.88" font-family="Arial" font-size="14.00">purl_reserved</text>
</g>
<!-- reserving_purl&#45;&gt;purl_reserved -->
<g id="edge14" class="edge">
<title>reserving_purl&#45;&gt;purl_reserved</title>
<path fill="none" stroke="black" d="M1856,-1168.26C1856,-1155.96 1856,-1141.96 1856,-1128.91"/>
<polygon fill="black" stroke="black" points="1859.5,-1129.25 1856,-1119.25 1852.5,-1129.25 1859.5,-1129.25"/>
<text text-anchor="middle" x="1896" y="-1139.38" font-family="Arial" font-size="14.00">pid_assigned</text>
</g>
<!-- reserving_purl&#45;&gt;decommissioned -->
<g id="edge53" class="edge">
<title>reserving_purl&#45;&gt;decommissioned</title>
<path fill="none" stroke="black" d="M1909.15,-1199.23C2020.69,-1188.64 2269,-1156.73 2269,-1082.58 2269,-1082.58 2269,-1082.58 2269,-219.58 2269,-125.94 1578,-83.23 1341.95,-71.37"/>
<polygon fill="black" stroke="black" points="1342.39,-67.88 1332.23,-70.88 1342.04,-74.88 1342.39,-67.88"/>
<text text-anchor="middle" x="2313" y="-647.38" font-family="Arial" font-size="14.00">decommission</text>
</g>
<!-- purl_reserved&#45;&gt;first_draft -->
<g id="edge29" class="edge">
<title>purl_reserved&#45;&gt;first_draft</title>
<path fill="none" stroke="black" d="M1809.49,-1064.64C1742.01,-1041.51 1617.65,-998.88 1549.93,-975.67"/>
<polygon fill="black" stroke="black" points="1551.2,-972.4 1540.6,-972.47 1548.93,-979.02 1551.2,-972.4"/>
<text text-anchor="middle" x="1754" y="-1016.38" font-family="Arial" font-size="14.00">update_metadata</text>
</g>
<!-- purl_reserved&#45;&gt;decommissioned -->
<g id="edge54" class="edge">
<title>purl_reserved&#45;&gt;decommissioned</title>
<path fill="none" stroke="black" d="M1906.38,-1070.87C1991.12,-1053.07 2153,-1012.19 2153,-959.58 2153,-959.58 2153,-959.58 2153,-219.58 2153,-137.67 1559.01,-88.25 1342.1,-72.93"/>
<polygon fill="black" stroke="black" points="1342.55,-69.45 1332.33,-72.25 1342.06,-76.44 1342.55,-69.45"/>
<text text-anchor="middle" x="2197" y="-585.88" font-family="Arial" font-size="14.00">decommission</text>
</g>
<!-- rejected&#45;&gt;version_draft -->
<g id="edge44" class="edge">
<title>rejected&#45;&gt;version_draft</title>
<path fill="none" stroke="black" d="M464.94,-677.11C464.18,-665.18 465.97,-652.56 474,-643.58 476.95,-640.28 715.11,-611.52 830.14,-597.8"/>
<polygon fill="black" stroke="black" points="830.52,-601.28 840.04,-596.62 829.69,-594.33 830.52,-601.28"/>
<text text-anchor="middle" x="535" y="-647.38" font-family="Arial" font-size="14.00">no_review_workflow</text>
</g>
<!-- rejected&#45;&gt;pending_approval -->
<g id="edge18" class="edge">
<title>rejected&#45;&gt;pending_approval</title>
<path fill="none" stroke="black" d="M493.43,-742.35C504.56,-756.08 519.44,-771.64 536,-781.58 574.24,-804.54 622.41,-817.68 662,-825.14"/>
<polygon fill="black" stroke="black" points="661.24,-828.56 671.7,-826.87 662.47,-821.66 661.24,-828.56"/>
<text text-anchor="middle" x="591.5" y="-770.38" font-family="Arial" font-size="14.00">submit_for_review</text>
</g>
<!-- rejected&#45;&gt;rejected -->
<g id="edge26" class="edge">
<title>rejected&#45;&gt;rejected</title>
<path fill="none" stroke="black" d="M507.54,-724.1C518.42,-723.93 527,-720.09 527,-712.58 527,-708 523.81,-704.79 518.86,-702.94"/>
<polygon fill="black" stroke="black" points="519.47,-699.49 509.03,-701.3 518.32,-706.4 519.47,-699.49"/>
<text text-anchor="middle" x="580" y="-708.88" font-family="Arial" font-size="14.00">update_metadata</text>
</g>
<!-- rejected&#45;&gt;unzip_pending_approval -->
<g id="edge34" class="edge">
<title>rejected&#45;&gt;unzip_pending_approval</title>
<path fill="none" stroke="black" d="M452.54,-682.51C430.49,-648.98 397.17,-591.28 387,-535.58 385.8,-529.02 383.92,-526.49 387,-520.58 390.5,-513.87 395.28,-507.84 400.75,-502.46"/>
<polygon fill="black" stroke="black" points="402.85,-505.28 408.05,-496.05 398.23,-500.02 402.85,-505.28"/>
<text text-anchor="middle" x="509.5" y="-585.88" font-family="Arial" font-size="14.00">unzip_and_submit_for_review</text>
</g>
<!-- rejected&#45;&gt;decommissioned -->
<g id="edge55" class="edge">
<title>rejected&#45;&gt;decommissioned</title>
<path fill="none" stroke="black" d="M446.63,-687.81C424.71,-667.55 395.89,-639.57 388,-625.58 352.4,-562.49 348,-540.02 348,-467.58 348,-467.58 348,-467.58 348,-219.58 348,-134.91 964.96,-86.98 1186.21,-72.51"/>
<polygon fill="black" stroke="black" points="1186.12,-76.03 1195.88,-71.89 1185.67,-69.04 1186.12,-76.03"/>
<text text-anchor="middle" x="392" y="-401.38" font-family="Arial" font-size="14.00">decommission</text>
</g>
<!-- unzip_first_draft&#45;&gt;first_draft -->
<g id="edge39" class="edge">
<title>unzip_first_draft&#45;&gt;first_draft</title>
<path fill="none" stroke="black" d="M1553.48,-870.94C1548.57,-881.86 1542.84,-893.87 1537,-904.58 1534.61,-908.96 1531.99,-913.47 1529.3,-917.92"/>
<polygon fill="black" stroke="black" points="1526.46,-915.85 1524.16,-926.2 1532.41,-919.55 1526.46,-915.85"/>
<text text-anchor="middle" x="1593" y="-893.38" font-family="Arial" font-size="14.00">unzip_complete</text>
</g>
<!-- unzip_first_draft&#45;&gt;decommissioned -->
<g id="edge56" class="edge">
<title>unzip_first_draft&#45;&gt;decommissioned</title>
<path fill="none" stroke="black" d="M1620.81,-818.09C1666.07,-800.28 1724,-767.05 1724,-713.58 1724,-713.58 1724,-713.58 1724,-219.58 1724,-140.01 1472.65,-95.14 1341.54,-77.14"/>
<polygon fill="black" stroke="black" points="1342.28,-73.71 1331.9,-75.84 1341.34,-80.65 1342.28,-73.71"/>
<text text-anchor="middle" x="1768" y="-462.88" font-family="Arial" font-size="14.00">decommission</text>
</g>
<!-- unzip_version_draft&#45;&gt;version_draft -->
<g id="edge40" class="edge">
<title>unzip_version_draft&#45;&gt;version_draft</title>
<path fill="none" stroke="black" d="M692.27,-502.77C694.37,-514.5 698.64,-526.79 707,-535.58 738.46,-568.63 789.09,-581.48 829.28,-586.28"/>
<polygon fill="black" stroke="black" points="828.77,-589.75 839.08,-587.3 829.49,-582.79 828.77,-589.75"/>
<text text-anchor="middle" x="755" y="-524.38" font-family="Arial" font-size="14.00">unzip_complete</text>
</g>
<!-- unzip_version_draft&#45;&gt;decommissioned -->
<g id="edge57" class="edge">
<title>unzip_version_draft&#45;&gt;decommissioned</title>
<path fill="none" stroke="black" d="M732.21,-436.97C831.02,-368.37 1082.01,-194.13 1200.37,-111.96"/>
<polygon fill="black" stroke="black" points="1202.23,-114.93 1208.45,-106.35 1198.24,-109.18 1202.23,-114.93"/>
<text text-anchor="middle" x="1009" y="-278.38" font-family="Arial" font-size="14.00">decommission</text>
</g>
<!-- unzip_pending_approval&#45;&gt;pending_approval -->
<g id="edge41" class="edge">
<title>unzip_pending_approval&#45;&gt;pending_approval</title>
<path fill="none" stroke="black" d="M410.62,-495.66C348.28,-532.69 258.16,-600.02 305,-658.58 327.77,-687.04 355.48,-655.2 385,-676.58 415.19,-698.44 403.54,-720.45 428,-748.58 443.35,-766.23 447.8,-771.69 469,-781.58 529.92,-810 605.53,-823.2 660.9,-829.31"/>
<polygon fill="black" stroke="black" points="660.22,-832.76 670.53,-830.32 660.95,-825.8 660.22,-832.76"/>
<text text-anchor="middle" x="353" y="-647.38" font-family="Arial" font-size="14.00">unzip_complete</text>
</g>
<!-- unzip_pending_approval&#45;&gt;decommissioned -->
<g id="edge58" class="edge">
<title>unzip_pending_approval&#45;&gt;decommissioned</title>
<path fill="none" stroke="black" d="M513.58,-437.1C607.21,-384.77 814.4,-270.78 994,-184.58 1060.18,-152.82 1137.16,-119.9 1191.95,-97.14"/>
<polygon fill="black" stroke="black" points="1192.96,-100.51 1200.86,-93.45 1190.28,-94.05 1192.96,-100.51"/>
<text text-anchor="middle" x="857" y="-278.38" font-family="Arial" font-size="14.00">decommission</text>
</g>
<!-- unzip_depositing&#45;&gt;depositing -->
<g id="edge42" class="edge">
<title>unzip_depositing&#45;&gt;depositing</title>
<path fill="none" stroke="black" d="M1505.37,-434.37C1498.95,-427.25 1492.2,-419.69 1486,-412.58 1477.39,-402.7 1468.21,-391.88 1459.78,-381.83"/>
<polygon fill="black" stroke="black" points="1462.68,-379.83 1453.58,-374.4 1457.3,-384.32 1462.68,-379.83"/>
<text text-anchor="middle" x="1534" y="-401.38" font-family="Arial" font-size="14.00">unzip_complete</text>
</g>
<!-- unzip_depositing&#45;&gt;decommissioned -->
<g id="edge59" class="edge">
<title>unzip_depositing&#45;&gt;decommissioned</title>
<path fill="none" stroke="black" d="M1567.52,-436.01C1573.44,-428.98 1578.74,-421.04 1582,-412.58 1589.25,-393.78 1613.53,-428.85 1577,-307.58 1553.52,-229.63 1545.55,-201.19 1481,-151.58 1439.53,-119.71 1384.47,-98.64 1340.19,-85.6"/>
<polygon fill="black" stroke="black" points="1341.22,-82.25 1330.64,-82.87 1339.29,-88.98 1341.22,-82.25"/>
<text text-anchor="middle" x="1616" y="-278.38" font-family="Arial" font-size="14.00">decommission</text>
</g>
<!-- decommissioned&#45;&gt;decommissioned -->
<g id="edge60" class="edge">
<title>decommissioned&#45;&gt;decommissioned</title>
<path fill="none" stroke="black" d="M1329.06,-83.08C1340.67,-80.96 1348.79,-75.53 1348.79,-66.79 1348.79,-61.05 1345.29,-56.74 1339.61,-53.86"/>
<polygon fill="black" stroke="black" points="1341.09,-50.66 1330.5,-50.96 1338.97,-57.33 1341.09,-50.66"/>
<text text-anchor="middle" x="1392.79" y="-63.09" font-family="Arial" font-size="14.00">decommission</text>
</g>
</g>
</svg>
