<?xml version="1.0" encoding="UTF-8"?>
<svg xmlns="http://www.w3.org/2000/svg" version="1.1" viewBox="0 0 1026 97.92">
  <!-- Generator: Adobe Illustrator 28.6.0, SVG Export Plug-In . SVG Version: 1.2.0 Build 709)  -->
  <g>
    <g id="Stanford_University_Libraries">
      <g>
        <path d="M424.266,76.076c-2.652,0-5.084-.378-7.293-1.131-2.211-.753-4.147-1.976-5.812-3.666-1.665-1.689-2.964-3.939-3.899-6.747-.937-2.808-1.404-6.213-1.404-10.218v-30.342h6.474v30.498c0,4.005.533,7.164,1.6,9.477,1.064,2.314,2.496,3.952,4.29,4.914,1.794.962,3.809,1.443,6.045,1.443s4.276-.48,6.123-1.443c1.845-.962,3.314-2.6,4.406-4.914,1.093-2.313,1.639-5.472,1.639-9.477v-30.498h6.162v30.342c0,4.005-.456,7.41-1.365,10.218-.91,2.808-2.197,5.058-3.861,6.747-1.665,1.69-3.614,2.913-5.85,3.666-2.236.753-4.654,1.131-7.254,1.131Z" fill="#fff"/>
        <path d="M455.778,75.14v-37.908h5.304l.546,5.46h.234c1.819-1.819,3.743-3.34,5.771-4.563,2.028-1.221,4.341-1.833,6.942-1.833,4.003,0,6.929,1.262,8.774,3.783,1.846,2.523,2.77,6.201,2.77,11.037v24.024h-6.396v-23.166c0-3.588-.56-6.174-1.677-7.761-1.119-1.586-2.952-2.379-5.499-2.379-1.925,0-3.654.495-5.188,1.482-1.534.989-3.264,2.445-5.187,4.368v27.456h-6.396Z" fill="#fff"/>
        <path d="M501.64,29.432c-1.248,0-2.275-.39-3.081-1.17-.807-.78-1.209-1.794-1.209-3.042s.402-2.262,1.209-3.042c.806-.78,1.833-1.17,3.081-1.17s2.274.39,3.081,1.17c.806.78,1.209,1.794,1.209,3.042s-.403,2.262-1.209,3.042c-.807.78-1.833,1.17-3.081,1.17ZM498.443,75.14v-37.908h6.396v37.908h-6.396Z" fill="#fff"/>
        <path d="M525.82,75.14l-13.65-37.908h6.631l7.176,21.528c.571,1.821,1.156,3.679,1.755,5.577.597,1.899,1.182,3.758,1.755,5.577h.312c.519-1.819,1.092-3.678,1.716-5.577.624-1.897,1.195-3.756,1.716-5.577l7.176-21.528h6.318l-13.416,37.908h-7.488Z" fill="#fff"/>
        <path d="M569.109,76.076c-3.381,0-6.462-.793-9.243-2.379-2.782-1.586-4.979-3.848-6.591-6.786-1.612-2.937-2.418-6.513-2.418-10.725,0-4.107.831-7.644,2.496-10.608,1.664-2.964,3.795-5.251,6.396-6.864,2.6-1.611,5.354-2.418,8.268-2.418,3.224,0,5.967.741,8.229,2.223,2.262,1.482,3.964,3.549,5.108,6.201,1.144,2.652,1.716,5.772,1.716,9.36,0,.676-.013,1.326-.039,1.95s-.116,1.248-.272,1.872h-27.3v-5.07h21.84c0-3.639-.794-6.435-2.379-8.385-1.587-1.95-3.861-2.925-6.825-2.925-1.716,0-3.406.481-5.07,1.443-1.664.962-3.029,2.509-4.095,4.641-1.066,2.133-1.599,4.967-1.599,8.502,0,3.225.558,5.928,1.677,8.112,1.117,2.184,2.639,3.835,4.562,4.953,1.924,1.119,4.029,1.677,6.318,1.677,1.819,0,3.522-.26,5.109-.78,1.585-.52,3.028-1.221,4.329-2.106l2.34,4.212c-1.665,1.144-3.523,2.08-5.577,2.808-2.055.728-4.382,1.092-6.981,1.092Z" fill="#fff"/>
        <path d="M592.431,75.14v-37.908h5.304l.546,6.864h.234c1.247-2.391,2.808-4.29,4.68-5.694,1.872-1.404,3.899-2.106,6.084-2.106.831,0,1.56.053,2.184.156.624.105,1.248.312,1.872.624l-1.403,5.46c-.573-.156-1.105-.273-1.6-.351-.495-.078-1.131-.117-1.911-.117-1.612,0-3.289.65-5.03,1.95-1.743,1.3-3.265,3.562-4.563,6.786v24.336h-6.396Z" fill="#fff"/>
        <path d="M629.089,76.076c-2.757,0-5.369-.481-7.839-1.443-2.471-.962-4.562-2.301-6.279-4.017l2.965-3.744c1.663,1.353,3.393,2.393,5.187,3.12,1.794.729,3.861,1.092,6.201,1.092,2.496,0,4.368-.585,5.616-1.755s1.872-2.561,1.872-4.173c0-1.299-.43-2.379-1.287-3.237-.858-.858-1.925-1.585-3.198-2.184-1.274-.597-2.64-1.157-4.095-1.677-1.872-.675-3.666-1.469-5.383-2.379-1.716-.909-3.107-2.054-4.173-3.432-1.066-1.377-1.599-3.106-1.599-5.187,0-3.067,1.156-5.628,3.471-7.683,2.313-2.053,5.524-3.081,9.633-3.081,2.341,0,4.524.404,6.553,1.209,2.027.807,3.77,1.833,5.226,3.081l-2.964,3.666c-1.353-.936-2.73-1.664-4.134-2.184-1.404-.52-2.964-.78-4.681-.78-2.392,0-4.146.546-5.265,1.638-1.119,1.092-1.677,2.367-1.677,3.822,0,1.145.338,2.094,1.014,2.847.676.754,1.625,1.417,2.848,1.989,1.221.573,2.612,1.119,4.173,1.638,1.976.729,3.86,1.548,5.654,2.457,1.794.91,3.25,2.081,4.368,3.51,1.118,1.431,1.677,3.29,1.677,5.577,0,2.081-.533,3.966-1.599,5.655-1.066,1.69-2.626,3.056-4.68,4.095-2.055,1.04-4.59,1.56-7.605,1.56Z" fill="#fff"/>
        <path d="M655.063,29.432c-1.248,0-2.275-.39-3.081-1.17-.807-.78-1.209-1.794-1.209-3.042s.402-2.262,1.209-3.042c.806-.78,1.833-1.17,3.081-1.17s2.274.39,3.081,1.17c.806.78,1.209,1.794,1.209,3.042s-.403,2.262-1.209,3.042c-.807.78-1.833,1.17-3.081,1.17ZM651.866,75.14v-37.908h6.396v37.908h-6.396Z" fill="#fff"/>
        <path d="M682.986,75.843c-4.005,0-6.812-1.17-8.424-3.51-1.612-2.34-2.418-5.382-2.418-9.126v-20.748h-5.616v-4.836l5.928-.39.78-12.168h5.382v12.168h10.296v5.226h-10.296v20.826c0,2.289.429,4.083,1.287,5.382.858,1.3,2.379,1.95,4.562,1.95.676,0,1.378-.064,2.106-.195.728-.129,1.455-.376,2.184-.741l1.404,4.524c-.988.468-2.105.858-3.354,1.17s-2.523.468-3.822.468Z" fill="#fff"/>
        <path d="M698.04,91.442c-.832,0-1.625-.078-2.379-.234-.754-.156-1.442-.339-2.066-.546l1.403-4.992c.469.156.937.273,1.404.351.468.078.909.117,1.326.117,2.184,0,3.965-.768,5.343-2.301,1.377-1.534,2.457-3.471,3.237-5.811l.858-2.808-15.211-37.986h6.631l7.722,20.982c.624,1.612,1.248,3.354,1.872,5.226.624,1.872,1.221,3.693,1.794,5.46h.312c.572-1.767,1.132-3.574,1.678-5.421.546-1.845,1.053-3.6,1.521-5.265l6.786-20.982h6.24l-14.274,41.028c-.885,2.496-1.95,4.745-3.198,6.747-1.248,2.001-2.757,3.574-4.523,4.719-1.769,1.143-3.927,1.716-6.475,1.716Z" fill="#fff"/>
        <path d="M750.065,75.14V23.972h6.475v45.63h22.386v5.538h-28.86Z" fill="#fff"/>
        <path d="M790.546,29.432c-1.248,0-2.275-.39-3.081-1.17-.807-.78-1.209-1.794-1.209-3.042s.402-2.262,1.209-3.042c.806-.78,1.833-1.17,3.081-1.17s2.274.39,3.081,1.17c.806.78,1.209,1.794,1.209,3.042s-.403,2.262-1.209,3.042c-.807.78-1.833,1.17-3.081,1.17ZM787.349,75.14v-37.908h6.396v37.908h-6.396Z" fill="#fff"/>
        <path d="M823.305,76.076c-1.769,0-3.588-.429-5.46-1.287s-3.666-2.04-5.382-3.549h-.234l-.546,3.9h-5.147V19.604h6.396v15.132l-.156,6.864c1.716-1.507,3.601-2.769,5.655-3.783,2.054-1.014,4.12-1.521,6.201-1.521,3.275,0,6.031.793,8.268,2.379,2.235,1.586,3.926,3.822,5.07,6.708,1.144,2.886,1.716,6.279,1.716,10.179,0,4.317-.768,8.008-2.301,11.076-1.534,3.069-3.549,5.409-6.045,7.02s-5.175,2.418-8.034,2.418ZM822.213,70.695c2.079,0,3.938-.597,5.577-1.794,1.638-1.195,2.925-2.925,3.86-5.187.937-2.262,1.404-4.953,1.404-8.073,0-2.755-.339-5.187-1.014-7.293-.677-2.106-1.743-3.744-3.198-4.914-1.456-1.17-3.381-1.755-5.772-1.755-1.56,0-3.186.429-4.875,1.287-1.69.858-3.445,2.145-5.265,3.861v19.89c1.664,1.456,3.315,2.483,4.953,3.081,1.638.598,3.081.897,4.329.897Z" fill="#fff"/>
        <path d="M849.67,75.14v-37.908h5.304l.546,6.864h.234c1.247-2.391,2.808-4.29,4.68-5.694,1.872-1.404,3.899-2.106,6.084-2.106.831,0,1.56.053,2.184.156.624.105,1.248.312,1.872.624l-1.403,5.46c-.573-.156-1.105-.273-1.6-.351-.495-.078-1.131-.117-1.911-.117-1.612,0-3.289.65-5.03,1.95-1.743,1.3-3.265,3.562-4.563,6.786v24.336h-6.396Z" fill="#fff"/>
        <path d="M883.598,76.076c-2.08,0-3.966-.429-5.655-1.287-1.69-.858-3.029-2.079-4.017-3.666-.988-1.585-1.482-3.522-1.482-5.811,0-4.263,1.872-7.488,5.616-9.672s9.672-3.717,17.784-4.602c-.053-1.56-.3-3.067-.741-4.524-.442-1.455-1.235-2.625-2.379-3.51-1.145-.883-2.729-1.326-4.758-1.326-2.184,0-4.239.403-6.162,1.209-1.924.807-3.641,1.704-5.147,2.691l-2.496-4.368c1.143-.78,2.496-1.546,4.056-2.301,1.56-.753,3.249-1.377,5.07-1.872,1.819-.494,3.744-.741,5.771-.741,3.067,0,5.577.638,7.527,1.911,1.95,1.275,3.38,3.081,4.29,5.421.909,2.34,1.365,5.097,1.365,8.268v23.244h-5.305l-.546-4.524h-.233c-1.821,1.509-3.771,2.796-5.851,3.861-2.08,1.065-4.316,1.599-6.708,1.599ZM885.392,70.772c1.872,0,3.627-.416,5.266-1.248,1.638-.831,3.366-2.053,5.187-3.666v-10.218c-4.265.521-7.632,1.184-10.101,1.989-2.471.807-4.251,1.808-5.344,3.003-1.092,1.197-1.638,2.626-1.638,4.29,0,2.08.649,3.576,1.95,4.485,1.299.91,2.859,1.365,4.68,1.365Z" fill="#fff"/>
        <path d="M914.175,75.14v-37.908h5.304l.546,6.864h.234c1.247-2.391,2.808-4.29,4.68-5.694,1.872-1.404,3.899-2.106,6.084-2.106.831,0,1.56.053,2.184.156.624.105,1.248.312,1.872.624l-1.403,5.46c-.573-.156-1.105-.273-1.6-.351-.495-.078-1.131-.117-1.911-.117-1.612,0-3.289.65-5.03,1.95-1.743,1.3-3.265,3.562-4.563,6.786v24.336h-6.396Z" fill="#fff"/>
        <path d="M944.437,29.432c-1.248,0-2.275-.39-3.081-1.17-.807-.78-1.209-1.794-1.209-3.042s.402-2.262,1.209-3.042c.806-.78,1.833-1.17,3.081-1.17s2.274.39,3.081,1.17c.806.78,1.209,1.794,1.209,3.042s-.403,2.262-1.209,3.042c-.807.78-1.833,1.17-3.081,1.17ZM941.24,75.14v-37.908h6.396v37.908h-6.396Z" fill="#fff"/>
        <path d="M975.792,76.076c-3.381,0-6.462-.793-9.243-2.379-2.782-1.586-4.979-3.848-6.591-6.786-1.612-2.937-2.418-6.513-2.418-10.725,0-4.107.831-7.644,2.496-10.608,1.664-2.964,3.795-5.251,6.396-6.864,2.6-1.611,5.354-2.418,8.268-2.418,3.224,0,5.967.741,8.229,2.223,2.262,1.482,3.964,3.549,5.108,6.201,1.144,2.652,1.716,5.772,1.716,9.36,0,.676-.013,1.326-.039,1.95s-.116,1.248-.272,1.872h-27.3v-5.07h21.84c0-3.639-.794-6.435-2.379-8.385-1.587-1.95-3.861-2.925-6.825-2.925-1.716,0-3.406.481-5.07,1.443-1.664.962-3.029,2.509-4.095,4.641-1.066,2.133-1.599,4.967-1.599,8.502,0,3.225.558,5.928,1.677,8.112,1.117,2.184,2.639,3.835,4.562,4.953,1.924,1.119,4.029,1.677,6.318,1.677,1.819,0,3.522-.26,5.109-.78,1.585-.52,3.028-1.221,4.329-2.106l2.34,4.212c-1.665,1.144-3.523,2.08-5.577,2.808-2.055.728-4.382,1.092-6.981,1.092Z" fill="#fff"/>
        <path d="M1009.019,76.076c-2.757,0-5.369-.481-7.839-1.443-2.471-.962-4.562-2.301-6.279-4.017l2.965-3.744c1.663,1.353,3.393,2.393,5.187,3.12,1.794.729,3.861,1.092,6.201,1.092,2.496,0,4.368-.585,5.616-1.755s1.872-2.561,1.872-4.173c0-1.299-.43-2.379-1.287-3.237-.858-.858-1.925-1.585-3.198-2.184-1.274-.597-2.64-1.157-4.095-1.677-1.872-.675-3.666-1.469-5.383-2.379-1.716-.909-3.107-2.054-4.173-3.432-1.066-1.377-1.599-3.106-1.599-5.187,0-3.067,1.156-5.628,3.471-7.683,2.313-2.053,5.524-3.081,9.633-3.081,2.341,0,4.524.404,6.553,1.209,2.027.807,3.77,1.833,5.226,3.081l-2.964,3.666c-1.353-.936-2.73-1.664-4.134-2.184-1.404-.52-2.964-.78-4.681-.78-2.392,0-4.146.546-5.265,1.638-1.119,1.092-1.677,2.367-1.677,3.822,0,1.145.338,2.094,1.014,2.847.676.754,1.625,1.417,2.848,1.989,1.221.573,2.612,1.119,4.173,1.638,1.976.729,3.86,1.548,5.654,2.457,1.794.91,3.25,2.081,4.368,3.51,1.118,1.431,1.677,3.29,1.677,5.577,0,2.081-.533,3.966-1.599,5.655-1.066,1.69-2.626,3.056-4.68,4.095-2.055,1.04-4.59,1.56-7.605,1.56Z" fill="#fff"/>
      </g>
      <line x1="381.667" y1=".316" x2="381.667" y2="75.916" fill="none" stroke="#fff" stroke-miterlimit="10" stroke-width="3"/>
      <g id="logo">
        <path d="M95.637,75.435c-12.83,0-13.821-9.74-13.821-12.732,0-3.514.942-9.725,9.119-12.732,8.437-3.101,10.243-3.462,16.05-5.283v-1.502c0-2.815,0-3.502-.559-5.247-1.119-3.345-4.329-5.446-8.683-5.446-6.405,0-9.031,4.886-9.051,4.937l-.51.957-2.376-1.414.236-.731c1.158-3.683,5.806-9.946,15.966-9.946,6.601,0,10.901,1.88,13.566,5.924,1.983,3.205,2.14,7.642,2.14,12.283,0,4.073-.098,8.613-.186,12.275-.059,2.513-.108,4.692-.108,6.02,0,3.345.53,5.939,3.318,5.939.692,0,1.163-.147,1.546-.471l.766-.65,1.561,1.777-.52.67c-2.562,3.087-5.001,5.269-9.35,5.269-3.765,0-6.371-1.784-7.254-4.79-2.091,2.182-5.894,4.893-11.848,4.893ZM106.984,50.538c-6.307,1.895-8.447,2.948-10.4,3.934-2.714,1.372-4.128,4.165-4.128,7.436,0,2.562.913,6.859,7.062,6.859,2.032,0,4.933-.375,7.465-2.189v-16.04Z" fill="#fff"/>
        <g>
          <path d="M17.244,75.309c-6.14,0-10.817-.67-15.617-2.233l-.692-.228v-3.441c0-4.582-.098-6.38-.197-7.84l-.137-2.378,2.793.008.059.994c.118,2.138.834,4.236,2.14,5.711,2.012,2.277,6.65,3.647,10.955,3.647,9.026,0,13.222-3.411,13.222-10.749,0-6.277-3.882-8.893-9.242-12.511l-.858-.591-5.664-3.772c-7.873-5.215-11.878-9.394-11.878-17.733,0-4.084,1.541-17.404,21.385-17.404,8.142,0,14.42,1.068,14.685,1.104l.854.154-.03.842c0,.022-.068,2.609-.068,5.414,0,2.211-.039,4.135.039,6.123l.078,1.483h-2.405l-.059-.928c-.177-2.52-.913-4.334-2.297-5.726-1.909-1.909-6.13-2.807-10.601-2.807-10.513,0-11.741,5.409-11.741,9.461,0,5.578,2.862,7.47,9.109,11.598l7.171,4.751c6.11,4.073,11.868,7.922,11.868,18.052,0,17.151-15.995,19.001-22.872,19.001Z" fill="#fff"/>
          <path d="M64.254,75.611c-7.323,0-11.377-2.616-13.178-8.459-.746-2.326-.746-6.903-.746-9.644,0-7.566.069-13.637.147-20.666l.039-3.301h-6.248v-1.858l.609-.25c2.911-1.203,4.02-2.02,5.305-3.014,4.55-3.529,7.711-9.49,7.76-9.578l1.065-1.806h2.062v10.641h16.123v5.865h-16.123v24.857c0,7.421,1.384,11.664,8.417,11.664,3.264,0,5.777-1.267,5.796-1.288l.972-.501.83,1.922-.408.464c-.167.184-3.818,4.952-12.423,4.952Z" fill="#fff"/>
          <path d="M128.648,75.015v-2.248l.913-.066c.795-.066,2.797-.383,4.196-1.961,1.463-1.634,1.551-5.672,1.551-13.733v-13.527c0-5.821-.088-8.319-.932-9.585-.967-1.394-3.107-1.541-4.245-1.622-.147-.008-.275-.022-.393-.03l-.903-.095v-2.704l1.07.081c.187.022.422.022.727.022,1.463,0,4.913-.191,8.555-.898,2.783-.442,4.403-1.406,4.992-1.681l.54-.25.933.554v3.757c2.39-1.77,7.195-4.547,13.718-4.547,8.535,0,14.106,3.988,15.696,11.222.451,1.796.618,6.152.618,8.474v13.814c0,7.809.305,10.005,1.772,11.377.736.677,2.297,1.237,3.661,1.325l.932.066v2.211l-2.346-.125c-3.401-.169-6.326-.332-9.394-.332-3.495,0-6.523,0-10.744.398l-1.095.104v-2.189l.849-.118c1.835-.28,3.112-.803,3.926-1.612,1.536-1.534,1.615-5.173,1.733-8.319.02-.523.039-1.068.068-1.637.088-1.767.088-5.487.088-8.206,0-3.544,0-7.208-.387-10.825-.707-6.123-3.897-8.967-10.047-8.967-4.226,0-6.866.967-8.864,1.99v24.86c0,7.809.319,10.005,1.782,11.377.746.677,2.287,1.237,3.661,1.325l.927.066v2.211l-2.517-.133c-3.279-.169-6.121-.324-9.105-.324-3.421,0-6.631,0-10.867.398l-1.07.104Z" fill="#fff"/>
          <path d="M187.679,75.015v-2.292l.923-.074c.805-.059,2.812-.368,4.206-1.946,1.472-1.634,1.541-5.635,1.541-13.696v-23.465h-6.169v-2.653l.618-.258c2.685-1.107,4.334-1.983,5.551-2.933.01-4.194.138-9.608.707-12.548,1.87-9.769,8.256-14.729,18.99-14.729,4.608,0,9.001,1.538,11.554,3.61l.363.295.147,1.004-4.697,6.528-1.129.015-.255-.592c-1.796-4.015-4.408-5.583-7.976-5.583-1.483,0-3.51.442-4.766,1.7-2.052,2.042-2.395,5.092-2.395,11.127v9.151h10.542v5.865h-10.542v26.251c0,6.248.206,9.291,1.021,10.513,1.325,1.99,5.345,2.145,6.533,2.145h1.001v2.52l-1.05-.059c-5.207-.272-9.085-.398-11.887-.398-3.514,0-7.505,0-11.74.398l-1.09.104Z" fill="#fff"/>
          <path d="M242.114,75.811c-14.439,0-23.068-8.997-23.068-24.065,0-11.706,6.297-25.368,24.069-25.368,14.449,0,23.078,9.004,23.078,24.065,0,11.708-6.307,25.368-24.079,25.368ZM242.713,31.846c-2.793,0-5.051.722-6.7,2.152-3.804,3.183-5.727,8.989-5.727,17.24,0,3.19.589,19.105,12.241,19.105,2.778,0,5.041-.729,6.71-2.15,3.794-3.183,5.718-8.989,5.718-17.242,0-3.19-.589-19.105-12.241-19.105Z" fill="#fff"/>
          <path d="M270.758,75.015v-2.395l.923-.074c.8-.051,2.823-.368,4.206-1.953,1.473-1.634,1.531-5.524,1.531-13.586v-13.527c0-5.821-.078-8.319-.913-9.585-.972-1.394-3.102-1.541-4.25-1.622-.138-.008-.275-.022-.373-.03l-.918-.095v-2.867l1.016.022c.177.015.481.022.775.022,1.473,0,4.918-.184,8.555-.898,2.297-.383,4.275-.972,5.07-1.347l.55-.246.834.437v4.111c2.268-2.138,5.865-4.407,10.945-4.407,3.308,0,5.983.886,7.926,2.638l.324.302v1.49l-3.986,7.301h-1.919l-.295-.456c-1.109-1.74-3.328-3.809-7.622-3.809-1.964,0-3.666.486-5.169,1.502v23.851c0,6.248.207,9.195,1.021,10.418,1.34,1.983,5.345,2.138,6.533,2.138h.991v2.624l-1.04-.059c-5.207-.272-9.095-.398-11.887-.398-3.514,0-7.505,0-11.735.398l-1.095.104Z" fill="#fff"/>
          <path d="M345.165,75.678l-1.266-.427v-3.985c-2.346,1.737-7.004,4.441-13.223,4.441-12.996,0-21.399-9.011-21.399-22.972,0-4.628.908-9.033,2.586-12.739,3.961-8.592,12.202-13.515,22.582-13.515,3.804,0,7.215.471,9.247.908v-10.059c0-5.899-.079-9.046-.923-10.314-.962-1.377-3.038-1.539-4.157-1.62-.147-.008-.275-.015-.383-.03l-.893-.088.206-2.123h1.001c.226,0,5.698-.456,10.14-1.328,1.865-.302,3.711-.721,4.678-1.075l.471-.177.815.486-.039.464c-.314,3.9-.363,12.238-.363,18.486v38.587c0,5.767.078,9.336.913,10.484.982,1.406,3.043,1.641,4.162,1.73.147.008.285.015.393.03l.888.037v2.543h-.987c-1.06,0-5.193.287-9.193.974-2.297.375-3.99.707-4.824,1.09l-.432.191ZM334.24,32.148c-9.223,0-13.723,6.314-13.723,19.296,0,5.262,1.492,17.5,15.23,17.5h.442c1.669,0,4.785-.25,7.505-1.931v-31.697c-.775-.765-3.647-3.168-9.453-3.168Z" fill="#fff"/>
        </g>
      </g>
    </g>
  </g>
</svg>